<mxfile host="app.diagrams.net" modified="2023-05-25T14:11:06.375Z" agent="Mozilla/5.0 (Windows NT 10.0; Win64; x64) AppleWebKit/537.36 (KHTML, like Gecko) Chrome/113.0.0.0 Safari/537.36" etag="aRAclqksrSFbSLtD9Ubo" version="21.3.3" type="github">
  <diagram id="C5RBs43oDa-KdzZeNtuy" name="Page-1">
    <mxGraphModel dx="1466" dy="3050" grid="1" gridSize="10" guides="1" tooltips="1" connect="1" arrows="1" fold="1" page="0" pageScale="1" pageWidth="827" pageHeight="1169" math="0" shadow="0">
      <root>
        <mxCell id="WIyWlLk6GJQsqaUBKTNV-0" />
        <mxCell id="WIyWlLk6GJQsqaUBKTNV-1" parent="WIyWlLk6GJQsqaUBKTNV-0" />
        <mxCell id="70RkYLPMqeiG9e3OQrOJ-6" value=":UserDB" style="shape=umlLifeline;perimeter=lifelinePerimeter;whiteSpace=wrap;html=1;container=0;dropTarget=0;collapsible=0;recursiveResize=0;outlineConnect=0;portConstraint=eastwest;newEdgeStyle={&quot;edgeStyle&quot;:&quot;elbowEdgeStyle&quot;,&quot;elbow&quot;:&quot;vertical&quot;,&quot;curved&quot;:0,&quot;rounded&quot;:0};" parent="WIyWlLk6GJQsqaUBKTNV-1" vertex="1">
          <mxGeometry x="797" y="-1590" width="100" height="450" as="geometry" />
        </mxCell>
        <mxCell id="70RkYLPMqeiG9e3OQrOJ-7" value="" style="html=1;points=[];perimeter=orthogonalPerimeter;outlineConnect=0;targetShapes=umlLifeline;portConstraint=eastwest;newEdgeStyle={&quot;edgeStyle&quot;:&quot;elbowEdgeStyle&quot;,&quot;elbow&quot;:&quot;vertical&quot;,&quot;curved&quot;:0,&quot;rounded&quot;:0};" parent="70RkYLPMqeiG9e3OQrOJ-6" vertex="1">
          <mxGeometry x="45" y="70" width="10" height="340" as="geometry" />
        </mxCell>
        <mxCell id="slzVIG4Kqr-2eb110mHJ-109" value="" style="shape=umlLifeline;perimeter=lifelinePerimeter;whiteSpace=wrap;html=1;container=1;dropTarget=0;collapsible=0;recursiveResize=0;outlineConnect=0;portConstraint=eastwest;newEdgeStyle={&quot;edgeStyle&quot;:&quot;elbowEdgeStyle&quot;,&quot;elbow&quot;:&quot;vertical&quot;,&quot;curved&quot;:0,&quot;rounded&quot;:0};participant=umlActor;size=60;" parent="WIyWlLk6GJQsqaUBKTNV-1" vertex="1">
          <mxGeometry x="695" y="-415" width="30" height="360" as="geometry" />
        </mxCell>
        <mxCell id="slzVIG4Kqr-2eb110mHJ-113" value="" style="shape=umlLifeline;perimeter=lifelinePerimeter;whiteSpace=wrap;html=1;container=1;dropTarget=0;collapsible=0;recursiveResize=0;outlineConnect=0;portConstraint=eastwest;newEdgeStyle={&quot;edgeStyle&quot;:&quot;elbowEdgeStyle&quot;,&quot;elbow&quot;:&quot;vertical&quot;,&quot;curved&quot;:0,&quot;rounded&quot;:0};participant=umlActor;size=60;" parent="WIyWlLk6GJQsqaUBKTNV-1" vertex="1">
          <mxGeometry x="262.58" y="876" width="30" height="444" as="geometry" />
        </mxCell>
        <mxCell id="U-Zn1JElJ_j373spM2wp-0" value=": Connect_User" style="shape=umlLifeline;perimeter=lifelinePerimeter;whiteSpace=wrap;html=1;container=0;dropTarget=0;collapsible=0;recursiveResize=0;outlineConnect=0;portConstraint=eastwest;newEdgeStyle={&quot;edgeStyle&quot;:&quot;elbowEdgeStyle&quot;,&quot;elbow&quot;:&quot;vertical&quot;,&quot;curved&quot;:0,&quot;rounded&quot;:0};" parent="WIyWlLk6GJQsqaUBKTNV-1" vertex="1">
          <mxGeometry x="281" y="-420" width="100" height="370" as="geometry" />
        </mxCell>
        <mxCell id="U-Zn1JElJ_j373spM2wp-1" value="" style="html=1;points=[];perimeter=orthogonalPerimeter;outlineConnect=0;targetShapes=umlLifeline;portConstraint=eastwest;newEdgeStyle={&quot;edgeStyle&quot;:&quot;elbowEdgeStyle&quot;,&quot;elbow&quot;:&quot;vertical&quot;,&quot;curved&quot;:0,&quot;rounded&quot;:0};" parent="U-Zn1JElJ_j373spM2wp-0" vertex="1">
          <mxGeometry x="45" y="70" width="10" height="280" as="geometry" />
        </mxCell>
        <mxCell id="U-Zn1JElJ_j373spM2wp-4" value="User" style="shape=umlActor;verticalLabelPosition=bottom;verticalAlign=top;html=1;outlineConnect=0;" parent="WIyWlLk6GJQsqaUBKTNV-1" vertex="1">
          <mxGeometry x="159" y="-410" width="30" height="60" as="geometry" />
        </mxCell>
        <mxCell id="U-Zn1JElJ_j373spM2wp-6" value="" style="endArrow=none;dashed=1;html=1;rounded=0;" parent="WIyWlLk6GJQsqaUBKTNV-1" target="U-Zn1JElJ_j373spM2wp-4" edge="1">
          <mxGeometry width="50" height="50" relative="1" as="geometry">
            <mxPoint x="173" y="-50" as="sourcePoint" />
            <mxPoint x="172.06595297574108" y="-300" as="targetPoint" />
          </mxGeometry>
        </mxCell>
        <mxCell id="U-Zn1JElJ_j373spM2wp-7" value="AddFriend(name)" style="html=1;verticalAlign=bottom;endArrow=block;edgeStyle=elbowEdgeStyle;elbow=vertical;curved=0;rounded=0;" parent="WIyWlLk6GJQsqaUBKTNV-1" edge="1">
          <mxGeometry relative="1" as="geometry">
            <mxPoint x="170" y="-234" as="sourcePoint" />
            <Array as="points" />
            <mxPoint x="326" y="-234" as="targetPoint" />
            <mxPoint as="offset" />
          </mxGeometry>
        </mxCell>
        <mxCell id="U-Zn1JElJ_j373spM2wp-10" value=":FriendDB" style="shape=umlLifeline;perimeter=lifelinePerimeter;whiteSpace=wrap;html=1;container=0;dropTarget=0;collapsible=0;recursiveResize=0;outlineConnect=0;portConstraint=eastwest;newEdgeStyle={&quot;edgeStyle&quot;:&quot;elbowEdgeStyle&quot;,&quot;elbow&quot;:&quot;vertical&quot;,&quot;curved&quot;:0,&quot;rounded&quot;:0};" parent="WIyWlLk6GJQsqaUBKTNV-1" vertex="1">
          <mxGeometry x="795" y="-420" width="100" height="370" as="geometry" />
        </mxCell>
        <mxCell id="U-Zn1JElJ_j373spM2wp-11" value="" style="html=1;points=[];perimeter=orthogonalPerimeter;outlineConnect=0;targetShapes=umlLifeline;portConstraint=eastwest;newEdgeStyle={&quot;edgeStyle&quot;:&quot;elbowEdgeStyle&quot;,&quot;elbow&quot;:&quot;vertical&quot;,&quot;curved&quot;:0,&quot;rounded&quot;:0};" parent="U-Zn1JElJ_j373spM2wp-10" vertex="1">
          <mxGeometry x="45" y="70" width="10" height="280" as="geometry" />
        </mxCell>
        <mxCell id="U-Zn1JElJ_j373spM2wp-14" value="User" style="shape=umlActor;verticalLabelPosition=bottom;verticalAlign=top;html=1;outlineConnect=0;" parent="WIyWlLk6GJQsqaUBKTNV-1" vertex="1">
          <mxGeometry x="115" y="1488" width="30" height="60" as="geometry" />
        </mxCell>
        <mxCell id="U-Zn1JElJ_j373spM2wp-15" value="" style="endArrow=none;dashed=1;html=1;rounded=0;" parent="WIyWlLk6GJQsqaUBKTNV-1" edge="1">
          <mxGeometry width="50" height="50" relative="1" as="geometry">
            <mxPoint x="129" y="1946" as="sourcePoint" />
            <mxPoint x="129" y="1576" as="targetPoint" />
          </mxGeometry>
        </mxCell>
        <mxCell id="U-Zn1JElJ_j373spM2wp-16" value="MyRoomObject : Belong_Room_Object" style="shape=umlLifeline;perimeter=lifelinePerimeter;whiteSpace=wrap;html=1;container=0;dropTarget=0;collapsible=0;recursiveResize=0;outlineConnect=0;portConstraint=eastwest;newEdgeStyle={&quot;edgeStyle&quot;:&quot;elbowEdgeStyle&quot;,&quot;elbow&quot;:&quot;vertical&quot;,&quot;curved&quot;:0,&quot;rounded&quot;:0};" parent="WIyWlLk6GJQsqaUBKTNV-1" vertex="1">
          <mxGeometry x="310" y="1496" width="132" height="450" as="geometry" />
        </mxCell>
        <mxCell id="U-Zn1JElJ_j373spM2wp-77" value="" style="html=1;points=[];perimeter=orthogonalPerimeter;outlineConnect=0;targetShapes=umlLifeline;portConstraint=eastwest;newEdgeStyle={&quot;edgeStyle&quot;:&quot;elbowEdgeStyle&quot;,&quot;elbow&quot;:&quot;vertical&quot;,&quot;curved&quot;:0,&quot;rounded&quot;:0};" parent="U-Zn1JElJ_j373spM2wp-16" vertex="1">
          <mxGeometry x="62" y="93.5" width="10" height="346.5" as="geometry" />
        </mxCell>
        <mxCell id="U-Zn1JElJ_j373spM2wp-17" value="" style="text;strokeColor=none;fillColor=none;align=left;verticalAlign=middle;spacingTop=-1;spacingLeft=4;spacingRight=4;rotatable=0;labelPosition=right;points=[];portConstraint=eastwest;" parent="WIyWlLk6GJQsqaUBKTNV-1" vertex="1">
          <mxGeometry x="405" y="70" width="190" height="14" as="geometry" />
        </mxCell>
        <mxCell id="U-Zn1JElJ_j373spM2wp-18" value="sd Add Friend" style="shape=umlFrame;whiteSpace=wrap;html=1;pointerEvents=0;width=140;height=30;" parent="WIyWlLk6GJQsqaUBKTNV-1" vertex="1">
          <mxGeometry x="35" y="-490" width="1000" height="470" as="geometry" />
        </mxCell>
        <mxCell id="U-Zn1JElJ_j373spM2wp-21" value="sd Decorating My Room" style="shape=umlFrame;whiteSpace=wrap;html=1;pointerEvents=0;width=140;height=30;" parent="WIyWlLk6GJQsqaUBKTNV-1" vertex="1">
          <mxGeometry x="35" y="1426" width="1000" height="540" as="geometry" />
        </mxCell>
        <mxCell id="U-Zn1JElJ_j373spM2wp-22" value=": Collocate_Object" style="shape=umlLifeline;perimeter=lifelinePerimeter;whiteSpace=wrap;html=1;container=0;dropTarget=0;collapsible=0;recursiveResize=0;outlineConnect=0;portConstraint=eastwest;newEdgeStyle={&quot;edgeStyle&quot;:&quot;elbowEdgeStyle&quot;,&quot;elbow&quot;:&quot;vertical&quot;,&quot;curved&quot;:0,&quot;rounded&quot;:0};" parent="WIyWlLk6GJQsqaUBKTNV-1" vertex="1">
          <mxGeometry x="166" y="1496" width="132" height="450" as="geometry" />
        </mxCell>
        <mxCell id="U-Zn1JElJ_j373spM2wp-23" value="" style="html=1;points=[];perimeter=orthogonalPerimeter;outlineConnect=0;targetShapes=umlLifeline;portConstraint=eastwest;newEdgeStyle={&quot;edgeStyle&quot;:&quot;elbowEdgeStyle&quot;,&quot;elbow&quot;:&quot;vertical&quot;,&quot;curved&quot;:0,&quot;rounded&quot;:0};" parent="U-Zn1JElJ_j373spM2wp-22" vertex="1">
          <mxGeometry x="60" y="100" width="10" height="340" as="geometry" />
        </mxCell>
        <mxCell id="U-Zn1JElJ_j373spM2wp-24" value="FindObject(objectId)" style="html=1;verticalAlign=bottom;endArrow=block;edgeStyle=elbowEdgeStyle;elbow=vertical;curved=0;rounded=0;" parent="WIyWlLk6GJQsqaUBKTNV-1" target="U-Zn1JElJ_j373spM2wp-77" edge="1">
          <mxGeometry x="0.0013" relative="1" as="geometry">
            <mxPoint x="128" y="1616" as="sourcePoint" />
            <Array as="points">
              <mxPoint x="323" y="1616" />
            </Array>
            <mxPoint x="613" y="1616" as="targetPoint" />
            <mxPoint as="offset" />
          </mxGeometry>
        </mxCell>
        <mxCell id="U-Zn1JElJ_j373spM2wp-25" value=": MyRoomDB" style="shape=umlLifeline;perimeter=lifelinePerimeter;whiteSpace=wrap;html=1;container=0;dropTarget=0;collapsible=0;recursiveResize=0;outlineConnect=0;portConstraint=eastwest;newEdgeStyle={&quot;edgeStyle&quot;:&quot;elbowEdgeStyle&quot;,&quot;elbow&quot;:&quot;vertical&quot;,&quot;curved&quot;:0,&quot;rounded&quot;:0};" parent="WIyWlLk6GJQsqaUBKTNV-1" vertex="1">
          <mxGeometry x="451" y="1496" width="132" height="450" as="geometry" />
        </mxCell>
        <mxCell id="U-Zn1JElJ_j373spM2wp-26" value="" style="html=1;points=[];perimeter=orthogonalPerimeter;outlineConnect=0;targetShapes=umlLifeline;portConstraint=eastwest;newEdgeStyle={&quot;edgeStyle&quot;:&quot;elbowEdgeStyle&quot;,&quot;elbow&quot;:&quot;vertical&quot;,&quot;curved&quot;:0,&quot;rounded&quot;:0};" parent="U-Zn1JElJ_j373spM2wp-25" vertex="1">
          <mxGeometry x="61" y="100" width="10" height="340" as="geometry" />
        </mxCell>
        <mxCell id="U-Zn1JElJ_j373spM2wp-28" value="return sucess" style="html=1;verticalAlign=bottom;endArrow=open;dashed=1;endSize=8;edgeStyle=elbowEdgeStyle;elbow=vertical;curved=0;rounded=0;" parent="WIyWlLk6GJQsqaUBKTNV-1" source="U-Zn1JElJ_j373spM2wp-23" edge="1">
          <mxGeometry x="0.0056" relative="1" as="geometry">
            <mxPoint x="130" y="1930" as="targetPoint" />
            <Array as="points" />
            <mxPoint x="278" y="1826.12" as="sourcePoint" />
            <mxPoint as="offset" />
          </mxGeometry>
        </mxCell>
        <mxCell id="U-Zn1JElJ_j373spM2wp-29" value="User" style="shape=umlActor;verticalLabelPosition=bottom;verticalAlign=top;html=1;outlineConnect=0;" parent="WIyWlLk6GJQsqaUBKTNV-1" vertex="1">
          <mxGeometry x="163" y="4028" width="30" height="60" as="geometry" />
        </mxCell>
        <mxCell id="U-Zn1JElJ_j373spM2wp-30" value="" style="endArrow=none;dashed=1;html=1;rounded=0;" parent="WIyWlLk6GJQsqaUBKTNV-1" edge="1">
          <mxGeometry width="50" height="50" relative="1" as="geometry">
            <mxPoint x="177" y="4486" as="sourcePoint" />
            <mxPoint x="177" y="4116" as="targetPoint" />
          </mxGeometry>
        </mxCell>
        <mxCell id="U-Zn1JElJ_j373spM2wp-31" value=": StoreObjectDB" style="shape=umlLifeline;perimeter=lifelinePerimeter;whiteSpace=wrap;html=1;container=0;dropTarget=0;collapsible=0;recursiveResize=0;outlineConnect=0;portConstraint=eastwest;newEdgeStyle={&quot;edgeStyle&quot;:&quot;elbowEdgeStyle&quot;,&quot;elbow&quot;:&quot;vertical&quot;,&quot;curved&quot;:0,&quot;rounded&quot;:0};" parent="WIyWlLk6GJQsqaUBKTNV-1" vertex="1">
          <mxGeometry x="479" y="4036" width="132" height="450" as="geometry" />
        </mxCell>
        <mxCell id="U-Zn1JElJ_j373spM2wp-32" value="sd Purchase Object" style="shape=umlFrame;whiteSpace=wrap;html=1;pointerEvents=0;width=140;height=30;" parent="WIyWlLk6GJQsqaUBKTNV-1" vertex="1">
          <mxGeometry x="46" y="3966" width="1000" height="540" as="geometry" />
        </mxCell>
        <mxCell id="U-Zn1JElJ_j373spM2wp-33" value=": Store" style="shape=umlLifeline;perimeter=lifelinePerimeter;whiteSpace=wrap;html=1;container=0;dropTarget=0;collapsible=0;recursiveResize=0;outlineConnect=0;portConstraint=eastwest;newEdgeStyle={&quot;edgeStyle&quot;:&quot;elbowEdgeStyle&quot;,&quot;elbow&quot;:&quot;vertical&quot;,&quot;curved&quot;:0,&quot;rounded&quot;:0};" parent="WIyWlLk6GJQsqaUBKTNV-1" vertex="1">
          <mxGeometry x="265" y="4036" width="132" height="450" as="geometry" />
        </mxCell>
        <mxCell id="U-Zn1JElJ_j373spM2wp-34" value="" style="html=1;points=[];perimeter=orthogonalPerimeter;outlineConnect=0;targetShapes=umlLifeline;portConstraint=eastwest;newEdgeStyle={&quot;edgeStyle&quot;:&quot;elbowEdgeStyle&quot;,&quot;elbow&quot;:&quot;vertical&quot;,&quot;curved&quot;:0,&quot;rounded&quot;:0};" parent="U-Zn1JElJ_j373spM2wp-33" vertex="1">
          <mxGeometry x="60" y="240" width="10" height="151" as="geometry" />
        </mxCell>
        <mxCell id="U-Zn1JElJ_j373spM2wp-37" value="PurchaseObject(objectId)" style="html=1;verticalAlign=bottom;endArrow=block;edgeStyle=elbowEdgeStyle;elbow=vertical;curved=0;rounded=0;" parent="WIyWlLk6GJQsqaUBKTNV-1" target="U-Zn1JElJ_j373spM2wp-34" edge="1">
          <mxGeometry x="0.0057" relative="1" as="geometry">
            <mxPoint x="180.50352941176442" y="4280" as="sourcePoint" />
            <Array as="points" />
            <mxPoint x="326" y="4278" as="targetPoint" />
            <mxPoint as="offset" />
          </mxGeometry>
        </mxCell>
        <mxCell id="U-Zn1JElJ_j373spM2wp-39" value="User" style="shape=umlActor;verticalLabelPosition=bottom;verticalAlign=top;html=1;outlineConnect=0;" parent="WIyWlLk6GJQsqaUBKTNV-1" vertex="1">
          <mxGeometry x="177" y="5222" width="30" height="60" as="geometry" />
        </mxCell>
        <mxCell id="U-Zn1JElJ_j373spM2wp-40" value="" style="endArrow=none;dashed=1;html=1;rounded=0;" parent="WIyWlLk6GJQsqaUBKTNV-1" edge="1">
          <mxGeometry width="50" height="50" relative="1" as="geometry">
            <mxPoint x="191" y="5680" as="sourcePoint" />
            <mxPoint x="191" y="5310" as="targetPoint" />
          </mxGeometry>
        </mxCell>
        <mxCell id="U-Zn1JElJ_j373spM2wp-41" value="return success" style="html=1;verticalAlign=bottom;endArrow=open;dashed=1;endSize=8;edgeStyle=elbowEdgeStyle;elbow=vertical;curved=0;rounded=0;" parent="WIyWlLk6GJQsqaUBKTNV-1" source="U-Zn1JElJ_j373spM2wp-73" edge="1">
          <mxGeometry relative="1" as="geometry">
            <mxPoint x="350" y="5410" as="targetPoint" />
            <Array as="points">
              <mxPoint x="390" y="5410" />
            </Array>
            <mxPoint x="558.5" y="5396.470588235294" as="sourcePoint" />
          </mxGeometry>
        </mxCell>
        <mxCell id="U-Zn1JElJ_j373spM2wp-42" value="sd Move to My Room" style="shape=umlFrame;whiteSpace=wrap;html=1;pointerEvents=0;width=140;height=30;" parent="WIyWlLk6GJQsqaUBKTNV-1" vertex="1">
          <mxGeometry x="60" y="5160" width="1000" height="540" as="geometry" />
        </mxCell>
        <mxCell id="U-Zn1JElJ_j373spM2wp-43" value=": RoomManager" style="shape=umlLifeline;perimeter=lifelinePerimeter;whiteSpace=wrap;html=1;container=0;dropTarget=0;collapsible=0;recursiveResize=0;outlineConnect=0;portConstraint=eastwest;newEdgeStyle={&quot;edgeStyle&quot;:&quot;elbowEdgeStyle&quot;,&quot;elbow&quot;:&quot;vertical&quot;,&quot;curved&quot;:0,&quot;rounded&quot;:0};" parent="WIyWlLk6GJQsqaUBKTNV-1" vertex="1">
          <mxGeometry x="281" y="5230" width="132" height="450" as="geometry" />
        </mxCell>
        <mxCell id="U-Zn1JElJ_j373spM2wp-44" value="" style="html=1;points=[];perimeter=orthogonalPerimeter;outlineConnect=0;targetShapes=umlLifeline;portConstraint=eastwest;newEdgeStyle={&quot;edgeStyle&quot;:&quot;elbowEdgeStyle&quot;,&quot;elbow&quot;:&quot;vertical&quot;,&quot;curved&quot;:0,&quot;rounded&quot;:0};" parent="U-Zn1JElJ_j373spM2wp-43" vertex="1">
          <mxGeometry x="60" y="118" width="10" height="242" as="geometry" />
        </mxCell>
        <mxCell id="U-Zn1JElJ_j373spM2wp-45" value="SearchRoom(roomId)" style="html=1;verticalAlign=bottom;endArrow=block;edgeStyle=elbowEdgeStyle;elbow=vertical;curved=0;rounded=0;" parent="WIyWlLk6GJQsqaUBKTNV-1" target="U-Zn1JElJ_j373spM2wp-73" edge="1">
          <mxGeometry relative="1" as="geometry">
            <mxPoint x="352" y="5370" as="sourcePoint" />
            <Array as="points">
              <mxPoint x="537" y="5370" />
            </Array>
            <mxPoint x="560" y="5370" as="targetPoint" />
            <mxPoint as="offset" />
          </mxGeometry>
        </mxCell>
        <mxCell id="U-Zn1JElJ_j373spM2wp-46" value="SearchRoom(roomId)" style="html=1;verticalAlign=bottom;endArrow=block;edgeStyle=elbowEdgeStyle;elbow=vertical;curved=0;rounded=0;" parent="WIyWlLk6GJQsqaUBKTNV-1" target="U-Zn1JElJ_j373spM2wp-43" edge="1">
          <mxGeometry x="0.0047" relative="1" as="geometry">
            <mxPoint x="190" y="5350" as="sourcePoint" />
            <Array as="points">
              <mxPoint x="385" y="5350" />
            </Array>
            <mxPoint x="675" y="5350" as="targetPoint" />
            <mxPoint as="offset" />
          </mxGeometry>
        </mxCell>
        <mxCell id="U-Zn1JElJ_j373spM2wp-48" value="return success&lt;span style=&quot;white-space: pre;&quot;&gt; &lt;/span&gt;" style="html=1;verticalAlign=bottom;endArrow=open;dashed=1;endSize=8;edgeStyle=elbowEdgeStyle;elbow=vertical;curved=0;rounded=0;" parent="WIyWlLk6GJQsqaUBKTNV-1" source="U-Zn1JElJ_j373spM2wp-44" edge="1">
          <mxGeometry relative="1" as="geometry">
            <mxPoint x="190" y="5500" as="targetPoint" />
            <Array as="points" />
            <mxPoint x="338" y="5490" as="sourcePoint" />
          </mxGeometry>
        </mxCell>
        <mxCell id="U-Zn1JElJ_j373spM2wp-49" value=": Connect_User" style="shape=umlLifeline;perimeter=lifelinePerimeter;whiteSpace=wrap;html=1;container=0;dropTarget=0;collapsible=0;recursiveResize=0;outlineConnect=0;portConstraint=eastwest;newEdgeStyle={&quot;edgeStyle&quot;:&quot;elbowEdgeStyle&quot;,&quot;elbow&quot;:&quot;vertical&quot;,&quot;curved&quot;:0,&quot;rounded&quot;:0};" parent="WIyWlLk6GJQsqaUBKTNV-1" vertex="1">
          <mxGeometry x="620" y="866" width="100" height="450" as="geometry" />
        </mxCell>
        <mxCell id="U-Zn1JElJ_j373spM2wp-50" value="" style="html=1;points=[];perimeter=orthogonalPerimeter;outlineConnect=0;targetShapes=umlLifeline;portConstraint=eastwest;newEdgeStyle={&quot;edgeStyle&quot;:&quot;elbowEdgeStyle&quot;,&quot;elbow&quot;:&quot;vertical&quot;,&quot;curved&quot;:0,&quot;rounded&quot;:0};" parent="U-Zn1JElJ_j373spM2wp-49" vertex="1">
          <mxGeometry x="45" y="70" width="10" height="360" as="geometry" />
        </mxCell>
        <mxCell id="U-Zn1JElJ_j373spM2wp-51" value="DeleteFriend(name)" style="html=1;verticalAlign=bottom;endArrow=block;edgeStyle=elbowEdgeStyle;elbow=vertical;curved=0;rounded=0;" parent="WIyWlLk6GJQsqaUBKTNV-1" target="U-Zn1JElJ_j373spM2wp-50" edge="1">
          <mxGeometry relative="1" as="geometry">
            <mxPoint x="170" y="1090" as="sourcePoint" />
            <Array as="points">
              <mxPoint x="380" y="1090" />
            </Array>
            <mxPoint x="666" y="1080" as="targetPoint" />
          </mxGeometry>
        </mxCell>
        <mxCell id="U-Zn1JElJ_j373spM2wp-52" value="User" style="shape=umlActor;verticalLabelPosition=bottom;verticalAlign=top;html=1;outlineConnect=0;" parent="WIyWlLk6GJQsqaUBKTNV-1" vertex="1">
          <mxGeometry x="154" y="876" width="30" height="60" as="geometry" />
        </mxCell>
        <mxCell id="U-Zn1JElJ_j373spM2wp-53" value="" style="endArrow=none;dashed=1;html=1;rounded=0;" parent="WIyWlLk6GJQsqaUBKTNV-1" target="U-Zn1JElJ_j373spM2wp-52" edge="1">
          <mxGeometry width="50" height="50" relative="1" as="geometry">
            <mxPoint x="168" y="1316" as="sourcePoint" />
            <mxPoint x="167.06595297574108" y="986" as="targetPoint" />
          </mxGeometry>
        </mxCell>
        <mxCell id="U-Zn1JElJ_j373spM2wp-54" value="return failure" style="html=1;verticalAlign=bottom;endArrow=open;dashed=1;endSize=8;edgeStyle=elbowEdgeStyle;elbow=vertical;curved=0;rounded=0;" parent="WIyWlLk6GJQsqaUBKTNV-1" source="U-Zn1JElJ_j373spM2wp-50" edge="1">
          <mxGeometry x="0.001" relative="1" as="geometry">
            <mxPoint x="168" y="1220" as="targetPoint" />
            <Array as="points">
              <mxPoint x="373" y="1220" />
            </Array>
            <mxPoint x="667.5" y="1196" as="sourcePoint" />
            <mxPoint as="offset" />
          </mxGeometry>
        </mxCell>
        <mxCell id="U-Zn1JElJ_j373spM2wp-55" value=": FriendDB" style="shape=umlLifeline;perimeter=lifelinePerimeter;whiteSpace=wrap;html=1;container=0;dropTarget=0;collapsible=0;recursiveResize=0;outlineConnect=0;portConstraint=eastwest;newEdgeStyle={&quot;edgeStyle&quot;:&quot;elbowEdgeStyle&quot;,&quot;elbow&quot;:&quot;vertical&quot;,&quot;curved&quot;:0,&quot;rounded&quot;:0};" parent="WIyWlLk6GJQsqaUBKTNV-1" vertex="1">
          <mxGeometry x="790" y="866" width="100" height="450" as="geometry" />
        </mxCell>
        <mxCell id="U-Zn1JElJ_j373spM2wp-56" value="" style="html=1;points=[];perimeter=orthogonalPerimeter;outlineConnect=0;targetShapes=umlLifeline;portConstraint=eastwest;newEdgeStyle={&quot;edgeStyle&quot;:&quot;elbowEdgeStyle&quot;,&quot;elbow&quot;:&quot;vertical&quot;,&quot;curved&quot;:0,&quot;rounded&quot;:0};" parent="U-Zn1JElJ_j373spM2wp-55" vertex="1">
          <mxGeometry x="45" y="70" width="10" height="360" as="geometry" />
        </mxCell>
        <mxCell id="U-Zn1JElJ_j373spM2wp-58" value="" style="text;strokeColor=none;fillColor=none;align=left;verticalAlign=middle;spacingTop=-1;spacingLeft=4;spacingRight=4;rotatable=0;labelPosition=right;points=[];portConstraint=eastwest;" parent="WIyWlLk6GJQsqaUBKTNV-1" vertex="1">
          <mxGeometry x="400" y="1356" width="190" height="14" as="geometry" />
        </mxCell>
        <mxCell id="U-Zn1JElJ_j373spM2wp-59" value="sd Delete Friend" style="shape=umlFrame;whiteSpace=wrap;html=1;pointerEvents=0;width=140;height=30;" parent="WIyWlLk6GJQsqaUBKTNV-1" vertex="1">
          <mxGeometry x="30" y="796" width="1000" height="540" as="geometry" />
        </mxCell>
        <mxCell id="U-Zn1JElJ_j373spM2wp-60" value="return success" style="html=1;verticalAlign=bottom;endArrow=open;dashed=1;endSize=8;edgeStyle=elbowEdgeStyle;elbow=vertical;curved=0;rounded=0;" parent="WIyWlLk6GJQsqaUBKTNV-1" edge="1">
          <mxGeometry relative="1" as="geometry">
            <mxPoint x="168" y="1168" as="targetPoint" />
            <Array as="points">
              <mxPoint x="373" y="1168" />
            </Array>
            <mxPoint x="667.5" y="1168" as="sourcePoint" />
          </mxGeometry>
        </mxCell>
        <mxCell id="U-Zn1JElJ_j373spM2wp-62" value="return success" style="html=1;verticalAlign=bottom;endArrow=open;dashed=1;endSize=8;edgeStyle=elbowEdgeStyle;elbow=vertical;curved=0;rounded=0;" parent="WIyWlLk6GJQsqaUBKTNV-1" edge="1">
          <mxGeometry relative="1" as="geometry">
            <mxPoint x="675.9999999999998" y="1127" as="targetPoint" />
            <Array as="points">
              <mxPoint x="751" y="1127" />
            </Array>
            <mxPoint x="835.9999999999998" y="1127" as="sourcePoint" />
          </mxGeometry>
        </mxCell>
        <mxCell id="U-Zn1JElJ_j373spM2wp-63" value="MyRoomObject : Belong_Room_Object" style="shape=umlLifeline;perimeter=lifelinePerimeter;whiteSpace=wrap;html=1;container=0;dropTarget=0;collapsible=0;recursiveResize=0;outlineConnect=0;portConstraint=eastwest;newEdgeStyle={&quot;edgeStyle&quot;:&quot;elbowEdgeStyle&quot;,&quot;elbow&quot;:&quot;vertical&quot;,&quot;curved&quot;:0,&quot;rounded&quot;:0};" parent="WIyWlLk6GJQsqaUBKTNV-1" vertex="1">
          <mxGeometry x="663" y="4036" width="132" height="450" as="geometry" />
        </mxCell>
        <mxCell id="U-Zn1JElJ_j373spM2wp-64" value="" style="html=1;points=[];perimeter=orthogonalPerimeter;outlineConnect=0;targetShapes=umlLifeline;portConstraint=eastwest;newEdgeStyle={&quot;edgeStyle&quot;:&quot;elbowEdgeStyle&quot;,&quot;elbow&quot;:&quot;vertical&quot;,&quot;curved&quot;:0,&quot;rounded&quot;:0};" parent="U-Zn1JElJ_j373spM2wp-63" vertex="1">
          <mxGeometry x="61" y="320" width="10" height="70" as="geometry" />
        </mxCell>
        <mxCell id="U-Zn1JElJ_j373spM2wp-65" value="User" style="shape=umlActor;verticalLabelPosition=bottom;verticalAlign=top;html=1;outlineConnect=0;" parent="WIyWlLk6GJQsqaUBKTNV-1" vertex="1">
          <mxGeometry x="162" y="2148" width="30" height="60" as="geometry" />
        </mxCell>
        <mxCell id="U-Zn1JElJ_j373spM2wp-66" value="" style="endArrow=none;dashed=1;html=1;rounded=0;" parent="WIyWlLk6GJQsqaUBKTNV-1" edge="1">
          <mxGeometry width="50" height="50" relative="1" as="geometry">
            <mxPoint x="176" y="2460" as="sourcePoint" />
            <mxPoint x="176" y="2236" as="targetPoint" />
          </mxGeometry>
        </mxCell>
        <mxCell id="U-Zn1JElJ_j373spM2wp-67" value=": Write_Post" style="shape=umlLifeline;perimeter=lifelinePerimeter;whiteSpace=wrap;html=1;container=0;dropTarget=0;collapsible=0;recursiveResize=0;outlineConnect=0;portConstraint=eastwest;newEdgeStyle={&quot;edgeStyle&quot;:&quot;elbowEdgeStyle&quot;,&quot;elbow&quot;:&quot;vertical&quot;,&quot;curved&quot;:0,&quot;rounded&quot;:0};" parent="WIyWlLk6GJQsqaUBKTNV-1" vertex="1">
          <mxGeometry x="478" y="2156" width="132" height="314" as="geometry" />
        </mxCell>
        <mxCell id="U-Zn1JElJ_j373spM2wp-68" value="sd Write Post" style="shape=umlFrame;whiteSpace=wrap;html=1;pointerEvents=0;width=140;height=30;" parent="WIyWlLk6GJQsqaUBKTNV-1" vertex="1">
          <mxGeometry x="45" y="2086" width="1000" height="414" as="geometry" />
        </mxCell>
        <mxCell id="U-Zn1JElJ_j373spM2wp-69" value="MyRoomObject : Belong_Room_Object" style="shape=umlLifeline;perimeter=lifelinePerimeter;whiteSpace=wrap;html=1;container=0;dropTarget=0;collapsible=0;recursiveResize=0;outlineConnect=0;portConstraint=eastwest;newEdgeStyle={&quot;edgeStyle&quot;:&quot;elbowEdgeStyle&quot;,&quot;elbow&quot;:&quot;vertical&quot;,&quot;curved&quot;:0,&quot;rounded&quot;:0};" parent="WIyWlLk6GJQsqaUBKTNV-1" vertex="1">
          <mxGeometry x="265" y="2156" width="132" height="314" as="geometry" />
        </mxCell>
        <mxCell id="U-Zn1JElJ_j373spM2wp-70" value="" style="html=1;points=[];perimeter=orthogonalPerimeter;outlineConnect=0;targetShapes=umlLifeline;portConstraint=eastwest;newEdgeStyle={&quot;edgeStyle&quot;:&quot;elbowEdgeStyle&quot;,&quot;elbow&quot;:&quot;vertical&quot;,&quot;curved&quot;:0,&quot;rounded&quot;:0};" parent="U-Zn1JElJ_j373spM2wp-69" vertex="1">
          <mxGeometry x="60" y="121" width="10" height="179" as="geometry" />
        </mxCell>
        <mxCell id="U-Zn1JElJ_j373spM2wp-71" value="OnMouseDown()" style="html=1;verticalAlign=bottom;endArrow=block;edgeStyle=elbowEdgeStyle;elbow=vertical;curved=0;rounded=0;" parent="WIyWlLk6GJQsqaUBKTNV-1" target="U-Zn1JElJ_j373spM2wp-69" edge="1">
          <mxGeometry relative="1" as="geometry">
            <mxPoint x="175" y="2276" as="sourcePoint" />
            <Array as="points">
              <mxPoint x="370" y="2276" />
            </Array>
            <mxPoint x="660" y="2276" as="targetPoint" />
          </mxGeometry>
        </mxCell>
        <mxCell id="U-Zn1JElJ_j373spM2wp-72" value=": MyRoomDB" style="shape=umlLifeline;perimeter=lifelinePerimeter;whiteSpace=wrap;html=1;container=0;dropTarget=0;collapsible=0;recursiveResize=0;outlineConnect=0;portConstraint=eastwest;newEdgeStyle={&quot;edgeStyle&quot;:&quot;elbowEdgeStyle&quot;,&quot;elbow&quot;:&quot;vertical&quot;,&quot;curved&quot;:0,&quot;rounded&quot;:0};" parent="WIyWlLk6GJQsqaUBKTNV-1" vertex="1">
          <mxGeometry x="471" y="5230" width="132" height="450" as="geometry" />
        </mxCell>
        <mxCell id="U-Zn1JElJ_j373spM2wp-73" value="" style="html=1;points=[];perimeter=orthogonalPerimeter;outlineConnect=0;targetShapes=umlLifeline;portConstraint=eastwest;newEdgeStyle={&quot;edgeStyle&quot;:&quot;elbowEdgeStyle&quot;,&quot;elbow&quot;:&quot;vertical&quot;,&quot;curved&quot;:0,&quot;rounded&quot;:0};" parent="U-Zn1JElJ_j373spM2wp-72" vertex="1">
          <mxGeometry x="60" y="139" width="10" height="221" as="geometry" />
        </mxCell>
        <mxCell id="U-Zn1JElJ_j373spM2wp-74" value="return success" style="html=1;verticalAlign=bottom;endArrow=open;dashed=1;endSize=8;edgeStyle=elbowEdgeStyle;elbow=vertical;curved=0;rounded=0;" parent="WIyWlLk6GJQsqaUBKTNV-1" source="U-Zn1JElJ_j373spM2wp-44" edge="1">
          <mxGeometry x="-0.0023" relative="1" as="geometry">
            <mxPoint x="190" y="5430" as="targetPoint" />
            <Array as="points">
              <mxPoint x="270" y="5430" />
            </Array>
            <mxPoint x="341" y="5420" as="sourcePoint" />
            <mxPoint as="offset" />
          </mxGeometry>
        </mxCell>
        <mxCell id="U-Zn1JElJ_j373spM2wp-75" value="MoveToRoom(roomId)" style="html=1;verticalAlign=bottom;endArrow=block;edgeStyle=elbowEdgeStyle;elbow=vertical;curved=0;rounded=0;" parent="WIyWlLk6GJQsqaUBKTNV-1" target="U-Zn1JElJ_j373spM2wp-44" edge="1">
          <mxGeometry x="0.0092" relative="1" as="geometry">
            <mxPoint x="190" y="5470" as="sourcePoint" />
            <Array as="points">
              <mxPoint x="270" y="5470" />
            </Array>
            <mxPoint x="726.5" y="5460.034482758621" as="targetPoint" />
            <mxPoint as="offset" />
          </mxGeometry>
        </mxCell>
        <mxCell id="U-Zn1JElJ_j373spM2wp-79" value="return success" style="html=1;verticalAlign=bottom;endArrow=open;dashed=1;endSize=8;edgeStyle=elbowEdgeStyle;elbow=vertical;curved=0;rounded=0;" parent="WIyWlLk6GJQsqaUBKTNV-1" source="U-Zn1JElJ_j373spM2wp-26" target="U-Zn1JElJ_j373spM2wp-23" edge="1">
          <mxGeometry relative="1" as="geometry">
            <mxPoint x="283.3235294117644" y="1762" as="targetPoint" />
            <Array as="points">
              <mxPoint x="380" y="1920" />
            </Array>
            <mxPoint x="663.4999999999995" y="1761.9999999999995" as="sourcePoint" />
          </mxGeometry>
        </mxCell>
        <mxCell id="U-Zn1JElJ_j373spM2wp-81" value="return object" style="html=1;verticalAlign=bottom;endArrow=open;dashed=1;endSize=8;edgeStyle=elbowEdgeStyle;elbow=vertical;curved=0;rounded=0;" parent="WIyWlLk6GJQsqaUBKTNV-1" source="U-Zn1JElJ_j373spM2wp-77" target="U-Zn1JElJ_j373spM2wp-23" edge="1">
          <mxGeometry relative="1" as="geometry">
            <mxPoint x="287" y="1676" as="targetPoint" />
            <Array as="points">
              <mxPoint x="303" y="1650" />
            </Array>
            <mxPoint x="532" y="1677" as="sourcePoint" />
          </mxGeometry>
        </mxCell>
        <mxCell id="U-Zn1JElJ_j373spM2wp-82" value="" style="html=1;points=[];perimeter=orthogonalPerimeter;outlineConnect=0;targetShapes=umlLifeline;portConstraint=eastwest;newEdgeStyle={&quot;edgeStyle&quot;:&quot;elbowEdgeStyle&quot;,&quot;elbow&quot;:&quot;vertical&quot;,&quot;curved&quot;:0,&quot;rounded&quot;:0};" parent="WIyWlLk6GJQsqaUBKTNV-1" vertex="1">
          <mxGeometry x="540" y="2312.5" width="10" height="147.5" as="geometry" />
        </mxCell>
        <mxCell id="U-Zn1JElJ_j373spM2wp-83" value="WritePost(title, content)" style="html=1;verticalAlign=bottom;endArrow=block;edgeStyle=elbowEdgeStyle;elbow=vertical;curved=0;rounded=0;" parent="WIyWlLk6GJQsqaUBKTNV-1" source="U-Zn1JElJ_j373spM2wp-70" target="U-Zn1JElJ_j373spM2wp-82" edge="1">
          <mxGeometry relative="1" as="geometry">
            <mxPoint x="175" y="2316" as="sourcePoint" />
            <Array as="points">
              <mxPoint x="450" y="2316" />
            </Array>
            <mxPoint x="383" y="2316" as="targetPoint" />
          </mxGeometry>
        </mxCell>
        <mxCell id="U-Zn1JElJ_j373spM2wp-84" value="return success" style="html=1;verticalAlign=bottom;endArrow=open;dashed=1;endSize=8;edgeStyle=elbowEdgeStyle;elbow=vertical;curved=0;rounded=0;" parent="WIyWlLk6GJQsqaUBKTNV-1" source="U-Zn1JElJ_j373spM2wp-82" edge="1">
          <mxGeometry relative="1" as="geometry">
            <mxPoint x="175" y="2396" as="targetPoint" />
            <Array as="points">
              <mxPoint x="255" y="2396" />
            </Array>
            <mxPoint x="579" y="2337" as="sourcePoint" />
          </mxGeometry>
        </mxCell>
        <mxCell id="U-Zn1JElJ_j373spM2wp-86" value="return success" style="html=1;verticalAlign=bottom;endArrow=open;dashed=1;endSize=8;edgeStyle=elbowEdgeStyle;elbow=vertical;curved=0;rounded=0;" parent="WIyWlLk6GJQsqaUBKTNV-1" source="U-Zn1JElJ_j373spM2wp-34" edge="1">
          <mxGeometry relative="1" as="geometry">
            <mxPoint x="180" y="4320" as="targetPoint" />
            <Array as="points">
              <mxPoint x="240" y="4320" />
            </Array>
            <mxPoint x="711.4999999999995" y="4362" as="sourcePoint" />
          </mxGeometry>
        </mxCell>
        <mxCell id="U-Zn1JElJ_j373spM2wp-90" value=": PostDB" style="shape=umlLifeline;perimeter=lifelinePerimeter;whiteSpace=wrap;html=1;container=0;dropTarget=0;collapsible=0;recursiveResize=0;outlineConnect=0;portConstraint=eastwest;newEdgeStyle={&quot;edgeStyle&quot;:&quot;elbowEdgeStyle&quot;,&quot;elbow&quot;:&quot;vertical&quot;,&quot;curved&quot;:0,&quot;rounded&quot;:0};" parent="WIyWlLk6GJQsqaUBKTNV-1" vertex="1">
          <mxGeometry x="655" y="2156" width="132" height="314" as="geometry" />
        </mxCell>
        <mxCell id="U-Zn1JElJ_j373spM2wp-91" value="" style="html=1;points=[];perimeter=orthogonalPerimeter;outlineConnect=0;targetShapes=umlLifeline;portConstraint=eastwest;newEdgeStyle={&quot;edgeStyle&quot;:&quot;elbowEdgeStyle&quot;,&quot;elbow&quot;:&quot;vertical&quot;,&quot;curved&quot;:0,&quot;rounded&quot;:0};" parent="U-Zn1JElJ_j373spM2wp-90" vertex="1">
          <mxGeometry x="61" y="180" width="10" height="120" as="geometry" />
        </mxCell>
        <mxCell id="U-Zn1JElJ_j373spM2wp-92" value="SavePost(title, content)" style="html=1;verticalAlign=bottom;endArrow=block;edgeStyle=elbowEdgeStyle;elbow=vertical;curved=0;rounded=0;" parent="WIyWlLk6GJQsqaUBKTNV-1" source="U-Zn1JElJ_j373spM2wp-82" target="U-Zn1JElJ_j373spM2wp-90" edge="1">
          <mxGeometry relative="1" as="geometry">
            <mxPoint x="555" y="2346" as="sourcePoint" />
            <Array as="points">
              <mxPoint x="590" y="2350" />
              <mxPoint x="663" y="2346" />
            </Array>
            <mxPoint x="643" y="2346" as="targetPoint" />
          </mxGeometry>
        </mxCell>
        <mxCell id="U-Zn1JElJ_j373spM2wp-93" value="return success" style="html=1;verticalAlign=bottom;endArrow=open;dashed=1;endSize=8;edgeStyle=elbowEdgeStyle;elbow=vertical;curved=0;rounded=0;" parent="WIyWlLk6GJQsqaUBKTNV-1" source="U-Zn1JElJ_j373spM2wp-91" target="U-Zn1JElJ_j373spM2wp-82" edge="1">
          <mxGeometry relative="1" as="geometry">
            <mxPoint x="555" y="2366" as="targetPoint" />
            <Array as="points">
              <mxPoint x="650" y="2380" />
            </Array>
            <mxPoint x="924" y="2366" as="sourcePoint" />
          </mxGeometry>
        </mxCell>
        <mxCell id="U-Zn1JElJ_j373spM2wp-94" value="User" style="shape=umlActor;verticalLabelPosition=bottom;verticalAlign=top;html=1;outlineConnect=0;" parent="WIyWlLk6GJQsqaUBKTNV-1" vertex="1">
          <mxGeometry x="162" y="2788" width="30" height="60" as="geometry" />
        </mxCell>
        <mxCell id="U-Zn1JElJ_j373spM2wp-95" value="" style="endArrow=none;dashed=1;html=1;rounded=0;" parent="WIyWlLk6GJQsqaUBKTNV-1" edge="1">
          <mxGeometry width="50" height="50" relative="1" as="geometry">
            <mxPoint x="176" y="3246" as="sourcePoint" />
            <mxPoint x="176" y="2876" as="targetPoint" />
          </mxGeometry>
        </mxCell>
        <mxCell id="U-Zn1JElJ_j373spM2wp-96" value=": Write_Post" style="shape=umlLifeline;perimeter=lifelinePerimeter;whiteSpace=wrap;html=1;container=0;dropTarget=0;collapsible=0;recursiveResize=0;outlineConnect=0;portConstraint=eastwest;newEdgeStyle={&quot;edgeStyle&quot;:&quot;elbowEdgeStyle&quot;,&quot;elbow&quot;:&quot;vertical&quot;,&quot;curved&quot;:0,&quot;rounded&quot;:0};" parent="WIyWlLk6GJQsqaUBKTNV-1" vertex="1">
          <mxGeometry x="478" y="2796" width="132" height="450" as="geometry" />
        </mxCell>
        <mxCell id="U-Zn1JElJ_j373spM2wp-97" value="sd Delete Post" style="shape=umlFrame;whiteSpace=wrap;html=1;pointerEvents=0;width=140;height=30;" parent="WIyWlLk6GJQsqaUBKTNV-1" vertex="1">
          <mxGeometry x="45" y="2726" width="1000" height="540" as="geometry" />
        </mxCell>
        <mxCell id="U-Zn1JElJ_j373spM2wp-98" value="MyRoomObject : Belong_Room_Object" style="shape=umlLifeline;perimeter=lifelinePerimeter;whiteSpace=wrap;html=1;container=0;dropTarget=0;collapsible=0;recursiveResize=0;outlineConnect=0;portConstraint=eastwest;newEdgeStyle={&quot;edgeStyle&quot;:&quot;elbowEdgeStyle&quot;,&quot;elbow&quot;:&quot;vertical&quot;,&quot;curved&quot;:0,&quot;rounded&quot;:0};" parent="WIyWlLk6GJQsqaUBKTNV-1" vertex="1">
          <mxGeometry x="265" y="2796" width="132" height="450" as="geometry" />
        </mxCell>
        <mxCell id="U-Zn1JElJ_j373spM2wp-99" value="" style="html=1;points=[];perimeter=orthogonalPerimeter;outlineConnect=0;targetShapes=umlLifeline;portConstraint=eastwest;newEdgeStyle={&quot;edgeStyle&quot;:&quot;elbowEdgeStyle&quot;,&quot;elbow&quot;:&quot;vertical&quot;,&quot;curved&quot;:0,&quot;rounded&quot;:0};" parent="U-Zn1JElJ_j373spM2wp-98" vertex="1">
          <mxGeometry x="60" y="121" width="10" height="289" as="geometry" />
        </mxCell>
        <mxCell id="U-Zn1JElJ_j373spM2wp-100" value="OnMouseDown()" style="html=1;verticalAlign=bottom;endArrow=block;edgeStyle=elbowEdgeStyle;elbow=vertical;curved=0;rounded=0;" parent="WIyWlLk6GJQsqaUBKTNV-1" target="U-Zn1JElJ_j373spM2wp-98" edge="1">
          <mxGeometry relative="1" as="geometry">
            <mxPoint x="175" y="2916" as="sourcePoint" />
            <Array as="points">
              <mxPoint x="370" y="2916" />
            </Array>
            <mxPoint x="660" y="2916" as="targetPoint" />
          </mxGeometry>
        </mxCell>
        <mxCell id="U-Zn1JElJ_j373spM2wp-101" value="" style="html=1;points=[];perimeter=orthogonalPerimeter;outlineConnect=0;targetShapes=umlLifeline;portConstraint=eastwest;newEdgeStyle={&quot;edgeStyle&quot;:&quot;elbowEdgeStyle&quot;,&quot;elbow&quot;:&quot;vertical&quot;,&quot;curved&quot;:0,&quot;rounded&quot;:0};" parent="WIyWlLk6GJQsqaUBKTNV-1" vertex="1">
          <mxGeometry x="540" y="2953.5" width="10" height="256.5" as="geometry" />
        </mxCell>
        <mxCell id="U-Zn1JElJ_j373spM2wp-102" value="LoadPost(postId)" style="html=1;verticalAlign=bottom;endArrow=block;edgeStyle=elbowEdgeStyle;elbow=vertical;curved=0;rounded=0;" parent="WIyWlLk6GJQsqaUBKTNV-1" source="U-Zn1JElJ_j373spM2wp-99" target="U-Zn1JElJ_j373spM2wp-101" edge="1">
          <mxGeometry relative="1" as="geometry">
            <mxPoint x="175" y="2956" as="sourcePoint" />
            <Array as="points">
              <mxPoint x="360" y="2956" />
            </Array>
            <mxPoint x="383" y="2956" as="targetPoint" />
          </mxGeometry>
        </mxCell>
        <mxCell id="U-Zn1JElJ_j373spM2wp-105" value=": PostDB" style="shape=umlLifeline;perimeter=lifelinePerimeter;whiteSpace=wrap;html=1;container=0;dropTarget=0;collapsible=0;recursiveResize=0;outlineConnect=0;portConstraint=eastwest;newEdgeStyle={&quot;edgeStyle&quot;:&quot;elbowEdgeStyle&quot;,&quot;elbow&quot;:&quot;vertical&quot;,&quot;curved&quot;:0,&quot;rounded&quot;:0};" parent="WIyWlLk6GJQsqaUBKTNV-1" vertex="1">
          <mxGeometry x="655" y="2796" width="132" height="450" as="geometry" />
        </mxCell>
        <mxCell id="U-Zn1JElJ_j373spM2wp-106" value="" style="html=1;points=[];perimeter=orthogonalPerimeter;outlineConnect=0;targetShapes=umlLifeline;portConstraint=eastwest;newEdgeStyle={&quot;edgeStyle&quot;:&quot;elbowEdgeStyle&quot;,&quot;elbow&quot;:&quot;vertical&quot;,&quot;curved&quot;:0,&quot;rounded&quot;:0};" parent="U-Zn1JElJ_j373spM2wp-105" vertex="1">
          <mxGeometry x="62" y="180" width="10" height="230" as="geometry" />
        </mxCell>
        <mxCell id="U-Zn1JElJ_j373spM2wp-107" value="GetPost(int postId)" style="html=1;verticalAlign=bottom;endArrow=block;edgeStyle=elbowEdgeStyle;elbow=vertical;curved=0;rounded=0;" parent="WIyWlLk6GJQsqaUBKTNV-1" source="U-Zn1JElJ_j373spM2wp-101" target="U-Zn1JElJ_j373spM2wp-105" edge="1">
          <mxGeometry relative="1" as="geometry">
            <mxPoint x="555" y="2986" as="sourcePoint" />
            <Array as="points">
              <mxPoint x="585" y="2976" />
              <mxPoint x="663" y="2986" />
            </Array>
            <mxPoint x="643" y="2986" as="targetPoint" />
          </mxGeometry>
        </mxCell>
        <mxCell id="U-Zn1JElJ_j373spM2wp-108" value="return success" style="html=1;verticalAlign=bottom;endArrow=open;dashed=1;endSize=8;edgeStyle=elbowEdgeStyle;elbow=vertical;curved=0;rounded=0;" parent="WIyWlLk6GJQsqaUBKTNV-1" source="U-Zn1JElJ_j373spM2wp-105" target="U-Zn1JElJ_j373spM2wp-101" edge="1">
          <mxGeometry relative="1" as="geometry">
            <mxPoint x="555" y="3006" as="targetPoint" />
            <Array as="points">
              <mxPoint x="635" y="3006" />
            </Array>
            <mxPoint x="924" y="3006" as="sourcePoint" />
          </mxGeometry>
        </mxCell>
        <mxCell id="U-Zn1JElJ_j373spM2wp-109" value="User" style="shape=umlActor;verticalLabelPosition=bottom;verticalAlign=top;html=1;outlineConnect=0;" parent="WIyWlLk6GJQsqaUBKTNV-1" vertex="1">
          <mxGeometry x="161" y="3418" width="30" height="60" as="geometry" />
        </mxCell>
        <mxCell id="U-Zn1JElJ_j373spM2wp-110" value="" style="endArrow=none;dashed=1;html=1;rounded=0;" parent="WIyWlLk6GJQsqaUBKTNV-1" edge="1">
          <mxGeometry width="50" height="50" relative="1" as="geometry">
            <mxPoint x="175" y="3876" as="sourcePoint" />
            <mxPoint x="175" y="3506" as="targetPoint" />
          </mxGeometry>
        </mxCell>
        <mxCell id="U-Zn1JElJ_j373spM2wp-111" value=": Write_Post" style="shape=umlLifeline;perimeter=lifelinePerimeter;whiteSpace=wrap;html=1;container=0;dropTarget=0;collapsible=0;recursiveResize=0;outlineConnect=0;portConstraint=eastwest;newEdgeStyle={&quot;edgeStyle&quot;:&quot;elbowEdgeStyle&quot;,&quot;elbow&quot;:&quot;vertical&quot;,&quot;curved&quot;:0,&quot;rounded&quot;:0};" parent="WIyWlLk6GJQsqaUBKTNV-1" vertex="1">
          <mxGeometry x="477" y="3426" width="132" height="450" as="geometry" />
        </mxCell>
        <mxCell id="U-Zn1JElJ_j373spM2wp-112" value="sd Edit Post" style="shape=umlFrame;whiteSpace=wrap;html=1;pointerEvents=0;width=140;height=30;" parent="WIyWlLk6GJQsqaUBKTNV-1" vertex="1">
          <mxGeometry x="44" y="3356" width="1000" height="540" as="geometry" />
        </mxCell>
        <mxCell id="U-Zn1JElJ_j373spM2wp-113" value="MyRoomObject : Belong_Room_Object" style="shape=umlLifeline;perimeter=lifelinePerimeter;whiteSpace=wrap;html=1;container=0;dropTarget=0;collapsible=0;recursiveResize=0;outlineConnect=0;portConstraint=eastwest;newEdgeStyle={&quot;edgeStyle&quot;:&quot;elbowEdgeStyle&quot;,&quot;elbow&quot;:&quot;vertical&quot;,&quot;curved&quot;:0,&quot;rounded&quot;:0};" parent="WIyWlLk6GJQsqaUBKTNV-1" vertex="1">
          <mxGeometry x="264" y="3426" width="132" height="450" as="geometry" />
        </mxCell>
        <mxCell id="U-Zn1JElJ_j373spM2wp-114" value="" style="html=1;points=[];perimeter=orthogonalPerimeter;outlineConnect=0;targetShapes=umlLifeline;portConstraint=eastwest;newEdgeStyle={&quot;edgeStyle&quot;:&quot;elbowEdgeStyle&quot;,&quot;elbow&quot;:&quot;vertical&quot;,&quot;curved&quot;:0,&quot;rounded&quot;:0};" parent="U-Zn1JElJ_j373spM2wp-113" vertex="1">
          <mxGeometry x="60" y="121" width="10" height="249" as="geometry" />
        </mxCell>
        <mxCell id="U-Zn1JElJ_j373spM2wp-115" value="OnMouseDown()" style="html=1;verticalAlign=bottom;endArrow=block;edgeStyle=elbowEdgeStyle;elbow=vertical;curved=0;rounded=0;" parent="WIyWlLk6GJQsqaUBKTNV-1" target="U-Zn1JElJ_j373spM2wp-113" edge="1">
          <mxGeometry relative="1" as="geometry">
            <mxPoint x="174" y="3546" as="sourcePoint" />
            <Array as="points">
              <mxPoint x="369" y="3546" />
            </Array>
            <mxPoint x="659" y="3546" as="targetPoint" />
          </mxGeometry>
        </mxCell>
        <mxCell id="U-Zn1JElJ_j373spM2wp-116" value="" style="html=1;points=[];perimeter=orthogonalPerimeter;outlineConnect=0;targetShapes=umlLifeline;portConstraint=eastwest;newEdgeStyle={&quot;edgeStyle&quot;:&quot;elbowEdgeStyle&quot;,&quot;elbow&quot;:&quot;vertical&quot;,&quot;curved&quot;:0,&quot;rounded&quot;:0};" parent="WIyWlLk6GJQsqaUBKTNV-1" vertex="1">
          <mxGeometry x="539" y="3546.5" width="10" height="253.5" as="geometry" />
        </mxCell>
        <mxCell id="U-Zn1JElJ_j373spM2wp-120" value=": PostDB" style="shape=umlLifeline;perimeter=lifelinePerimeter;whiteSpace=wrap;html=1;container=0;dropTarget=0;collapsible=0;recursiveResize=0;outlineConnect=0;portConstraint=eastwest;newEdgeStyle={&quot;edgeStyle&quot;:&quot;elbowEdgeStyle&quot;,&quot;elbow&quot;:&quot;vertical&quot;,&quot;curved&quot;:0,&quot;rounded&quot;:0};" parent="WIyWlLk6GJQsqaUBKTNV-1" vertex="1">
          <mxGeometry x="654" y="3426" width="132" height="450" as="geometry" />
        </mxCell>
        <mxCell id="slzVIG4Kqr-2eb110mHJ-97" value="" style="html=1;points=[];perimeter=orthogonalPerimeter;outlineConnect=0;targetShapes=umlLifeline;portConstraint=eastwest;newEdgeStyle={&quot;edgeStyle&quot;:&quot;elbowEdgeStyle&quot;,&quot;elbow&quot;:&quot;vertical&quot;,&quot;curved&quot;:0,&quot;rounded&quot;:0};" parent="U-Zn1JElJ_j373spM2wp-120" vertex="1">
          <mxGeometry x="61" y="129" width="10" height="241" as="geometry" />
        </mxCell>
        <mxCell id="U-Zn1JElJ_j373spM2wp-123" value=":UserManager" style="shape=umlLifeline;perimeter=lifelinePerimeter;whiteSpace=wrap;html=1;container=0;dropTarget=0;collapsible=0;recursiveResize=0;outlineConnect=0;portConstraint=eastwest;newEdgeStyle={&quot;edgeStyle&quot;:&quot;elbowEdgeStyle&quot;,&quot;elbow&quot;:&quot;vertical&quot;,&quot;curved&quot;:0,&quot;rounded&quot;:0};" parent="WIyWlLk6GJQsqaUBKTNV-1" vertex="1">
          <mxGeometry x="625" y="-999" width="100" height="450" as="geometry" />
        </mxCell>
        <mxCell id="U-Zn1JElJ_j373spM2wp-124" value="" style="html=1;points=[];perimeter=orthogonalPerimeter;outlineConnect=0;targetShapes=umlLifeline;portConstraint=eastwest;newEdgeStyle={&quot;edgeStyle&quot;:&quot;elbowEdgeStyle&quot;,&quot;elbow&quot;:&quot;vertical&quot;,&quot;curved&quot;:0,&quot;rounded&quot;:0};" parent="U-Zn1JElJ_j373spM2wp-123" vertex="1">
          <mxGeometry x="45" y="70" width="10" height="330" as="geometry" />
        </mxCell>
        <mxCell id="U-Zn1JElJ_j373spM2wp-125" value="VerifyUser(email, password)" style="html=1;verticalAlign=bottom;endArrow=block;edgeStyle=elbowEdgeStyle;elbow=vertical;curved=0;rounded=0;" parent="WIyWlLk6GJQsqaUBKTNV-1" edge="1">
          <mxGeometry x="0.0011" relative="1" as="geometry">
            <mxPoint x="175" y="-847" as="sourcePoint" />
            <Array as="points">
              <mxPoint x="370" y="-847" />
            </Array>
            <mxPoint x="670" y="-847" as="targetPoint" />
            <mxPoint as="offset" />
          </mxGeometry>
        </mxCell>
        <mxCell id="U-Zn1JElJ_j373spM2wp-126" value="User" style="shape=umlActor;verticalLabelPosition=bottom;verticalAlign=top;html=1;outlineConnect=0;" parent="WIyWlLk6GJQsqaUBKTNV-1" vertex="1">
          <mxGeometry x="159" y="-990" width="30" height="60" as="geometry" />
        </mxCell>
        <mxCell id="U-Zn1JElJ_j373spM2wp-127" value="" style="endArrow=none;dashed=1;html=1;rounded=0;" parent="WIyWlLk6GJQsqaUBKTNV-1" target="U-Zn1JElJ_j373spM2wp-126" edge="1">
          <mxGeometry width="50" height="50" relative="1" as="geometry">
            <mxPoint x="173" y="-550" as="sourcePoint" />
            <mxPoint x="172.06595297574108" y="-880" as="targetPoint" />
          </mxGeometry>
        </mxCell>
        <mxCell id="U-Zn1JElJ_j373spM2wp-128" value="return success" style="html=1;verticalAlign=bottom;endArrow=open;dashed=1;endSize=8;edgeStyle=elbowEdgeStyle;elbow=vertical;curved=0;rounded=0;" parent="WIyWlLk6GJQsqaUBKTNV-1" edge="1">
          <mxGeometry x="0.001" relative="1" as="geometry">
            <mxPoint x="172" y="-677" as="targetPoint" />
            <Array as="points">
              <mxPoint x="377" y="-677" />
            </Array>
            <mxPoint x="671.5" y="-677" as="sourcePoint" />
            <mxPoint as="offset" />
          </mxGeometry>
        </mxCell>
        <mxCell id="U-Zn1JElJ_j373spM2wp-129" value=":UserDB" style="shape=umlLifeline;perimeter=lifelinePerimeter;whiteSpace=wrap;html=1;container=0;dropTarget=0;collapsible=0;recursiveResize=0;outlineConnect=0;portConstraint=eastwest;newEdgeStyle={&quot;edgeStyle&quot;:&quot;elbowEdgeStyle&quot;,&quot;elbow&quot;:&quot;vertical&quot;,&quot;curved&quot;:0,&quot;rounded&quot;:0};" parent="WIyWlLk6GJQsqaUBKTNV-1" vertex="1">
          <mxGeometry x="795" y="-1000" width="100" height="450" as="geometry" />
        </mxCell>
        <mxCell id="U-Zn1JElJ_j373spM2wp-130" value="" style="html=1;points=[];perimeter=orthogonalPerimeter;outlineConnect=0;targetShapes=umlLifeline;portConstraint=eastwest;newEdgeStyle={&quot;edgeStyle&quot;:&quot;elbowEdgeStyle&quot;,&quot;elbow&quot;:&quot;vertical&quot;,&quot;curved&quot;:0,&quot;rounded&quot;:0};" parent="U-Zn1JElJ_j373spM2wp-129" vertex="1">
          <mxGeometry x="45" y="70" width="10" height="310" as="geometry" />
        </mxCell>
        <mxCell id="U-Zn1JElJ_j373spM2wp-132" value="sd Update User Infomation" style="shape=umlFrame;whiteSpace=wrap;html=1;pointerEvents=0;width=220;height=40;" parent="WIyWlLk6GJQsqaUBKTNV-1" vertex="1">
          <mxGeometry x="35" y="-1070" width="1000" height="540" as="geometry" />
        </mxCell>
        <mxCell id="U-Zn1JElJ_j373spM2wp-134" value="return success" style="html=1;verticalAlign=bottom;endArrow=open;dashed=1;endSize=8;edgeStyle=elbowEdgeStyle;elbow=vertical;curved=0;rounded=0;" parent="WIyWlLk6GJQsqaUBKTNV-1" edge="1">
          <mxGeometry relative="1" as="geometry">
            <mxPoint x="679.9999999999998" y="-787" as="targetPoint" />
            <Array as="points">
              <mxPoint x="755" y="-787" />
            </Array>
            <mxPoint x="839.9999999999998" y="-787" as="sourcePoint" />
          </mxGeometry>
        </mxCell>
        <mxCell id="U-Zn1JElJ_j373spM2wp-135" value="UpdateInfo(email, password, name, gender, age)" style="html=1;verticalAlign=bottom;endArrow=block;edgeStyle=elbowEdgeStyle;elbow=vertical;curved=0;rounded=0;" parent="WIyWlLk6GJQsqaUBKTNV-1" edge="1">
          <mxGeometry relative="1" as="geometry">
            <mxPoint x="175" y="-732" as="sourcePoint" />
            <Array as="points">
              <mxPoint x="384" y="-732" />
            </Array>
            <mxPoint x="674" y="-732" as="targetPoint" />
          </mxGeometry>
        </mxCell>
        <mxCell id="U-Zn1JElJ_j373spM2wp-136" value="return fail" style="html=1;verticalAlign=bottom;endArrow=open;dashed=1;endSize=8;edgeStyle=elbowEdgeStyle;elbow=vertical;curved=0;rounded=0;" parent="WIyWlLk6GJQsqaUBKTNV-1" edge="1">
          <mxGeometry x="0.001" relative="1" as="geometry">
            <mxPoint x="675" y="-620.71" as="targetPoint" />
            <Array as="points">
              <mxPoint x="845" y="-621" />
            </Array>
            <mxPoint x="839.9999999999998" y="-621" as="sourcePoint" />
            <mxPoint as="offset" />
          </mxGeometry>
        </mxCell>
        <mxCell id="U-Zn1JElJ_j373spM2wp-139" value=": FriendDB" style="shape=umlLifeline;perimeter=lifelinePerimeter;whiteSpace=wrap;html=1;container=0;dropTarget=0;collapsible=0;recursiveResize=0;outlineConnect=0;portConstraint=eastwest;newEdgeStyle={&quot;edgeStyle&quot;:&quot;elbowEdgeStyle&quot;,&quot;elbow&quot;:&quot;vertical&quot;,&quot;curved&quot;:0,&quot;rounded&quot;:0};" parent="WIyWlLk6GJQsqaUBKTNV-1" vertex="1">
          <mxGeometry x="625" y="210" width="100" height="450" as="geometry" />
        </mxCell>
        <mxCell id="U-Zn1JElJ_j373spM2wp-140" value="" style="html=1;points=[];perimeter=orthogonalPerimeter;outlineConnect=0;targetShapes=umlLifeline;portConstraint=eastwest;newEdgeStyle={&quot;edgeStyle&quot;:&quot;elbowEdgeStyle&quot;,&quot;elbow&quot;:&quot;vertical&quot;,&quot;curved&quot;:0,&quot;rounded&quot;:0};" parent="U-Zn1JElJ_j373spM2wp-139" vertex="1">
          <mxGeometry x="45" y="70" width="10" height="210" as="geometry" />
        </mxCell>
        <mxCell id="U-Zn1JElJ_j373spM2wp-141" value="FindFriend(name)" style="html=1;verticalAlign=bottom;endArrow=block;edgeStyle=elbowEdgeStyle;elbow=vertical;curved=0;rounded=0;" parent="WIyWlLk6GJQsqaUBKTNV-1" edge="1">
          <mxGeometry relative="1" as="geometry">
            <mxPoint x="185" y="293" as="sourcePoint" />
            <Array as="points">
              <mxPoint x="380" y="293" />
            </Array>
            <mxPoint x="670" y="293" as="targetPoint" />
          </mxGeometry>
        </mxCell>
        <mxCell id="U-Zn1JElJ_j373spM2wp-142" value="Actor" style="shape=umlActor;verticalLabelPosition=bottom;verticalAlign=top;html=1;outlineConnect=0;" parent="WIyWlLk6GJQsqaUBKTNV-1" vertex="1">
          <mxGeometry x="159" y="220" width="30" height="60" as="geometry" />
        </mxCell>
        <mxCell id="U-Zn1JElJ_j373spM2wp-143" value="" style="endArrow=none;dashed=1;html=1;rounded=0;" parent="WIyWlLk6GJQsqaUBKTNV-1" target="U-Zn1JElJ_j373spM2wp-142" edge="1">
          <mxGeometry width="50" height="50" relative="1" as="geometry">
            <mxPoint x="173" y="660" as="sourcePoint" />
            <mxPoint x="172.06595297574108" y="330" as="targetPoint" />
          </mxGeometry>
        </mxCell>
        <mxCell id="U-Zn1JElJ_j373spM2wp-144" value="" style="text;strokeColor=none;fillColor=none;align=left;verticalAlign=middle;spacingTop=-1;spacingLeft=4;spacingRight=4;rotatable=0;labelPosition=right;points=[];portConstraint=eastwest;" parent="WIyWlLk6GJQsqaUBKTNV-1" vertex="1">
          <mxGeometry x="1440" y="740" width="190" height="14" as="geometry" />
        </mxCell>
        <mxCell id="U-Zn1JElJ_j373spM2wp-145" value="sd Find&amp;nbsp;Friend" style="shape=umlFrame;whiteSpace=wrap;html=1;pointerEvents=0;width=180;height=30;" parent="WIyWlLk6GJQsqaUBKTNV-1" vertex="1">
          <mxGeometry x="35" y="140" width="1000" height="540" as="geometry" />
        </mxCell>
        <mxCell id="U-Zn1JElJ_j373spM2wp-146" value="return user" style="html=1;verticalAlign=bottom;endArrow=open;dashed=1;endSize=8;edgeStyle=elbowEdgeStyle;elbow=vertical;curved=0;rounded=0;" parent="WIyWlLk6GJQsqaUBKTNV-1" edge="1">
          <mxGeometry relative="1" as="geometry">
            <mxPoint x="175" y="359" as="targetPoint" />
            <Array as="points">
              <mxPoint x="380" y="359" />
            </Array>
            <mxPoint x="674.5" y="359" as="sourcePoint" />
          </mxGeometry>
        </mxCell>
        <mxCell id="U-Zn1JElJ_j373spM2wp-147" value="User" style="shape=umlActor;verticalLabelPosition=bottom;verticalAlign=top;html=1;outlineConnect=0;" parent="WIyWlLk6GJQsqaUBKTNV-1" vertex="1">
          <mxGeometry x="173" y="4632" width="30" height="60" as="geometry" />
        </mxCell>
        <mxCell id="U-Zn1JElJ_j373spM2wp-148" value="" style="endArrow=none;dashed=1;html=1;rounded=0;" parent="WIyWlLk6GJQsqaUBKTNV-1" edge="1">
          <mxGeometry width="50" height="50" relative="1" as="geometry">
            <mxPoint x="187" y="5090" as="sourcePoint" />
            <mxPoint x="187" y="4720" as="targetPoint" />
          </mxGeometry>
        </mxCell>
        <mxCell id="U-Zn1JElJ_j373spM2wp-149" value=": StoreObjectDB" style="shape=umlLifeline;perimeter=lifelinePerimeter;whiteSpace=wrap;html=1;container=0;dropTarget=0;collapsible=0;recursiveResize=0;outlineConnect=0;portConstraint=eastwest;newEdgeStyle={&quot;edgeStyle&quot;:&quot;elbowEdgeStyle&quot;,&quot;elbow&quot;:&quot;vertical&quot;,&quot;curved&quot;:0,&quot;rounded&quot;:0};" parent="WIyWlLk6GJQsqaUBKTNV-1" vertex="1">
          <mxGeometry x="489" y="4640" width="132" height="450" as="geometry" />
        </mxCell>
        <mxCell id="U-Zn1JElJ_j373spM2wp-150" value="sd Find Object" style="shape=umlFrame;whiteSpace=wrap;html=1;pointerEvents=0;width=140;height=30;" parent="WIyWlLk6GJQsqaUBKTNV-1" vertex="1">
          <mxGeometry x="56" y="4570" width="1000" height="540" as="geometry" />
        </mxCell>
        <mxCell id="U-Zn1JElJ_j373spM2wp-151" value=": Store" style="shape=umlLifeline;perimeter=lifelinePerimeter;whiteSpace=wrap;html=1;container=0;dropTarget=0;collapsible=0;recursiveResize=0;outlineConnect=0;portConstraint=eastwest;newEdgeStyle={&quot;edgeStyle&quot;:&quot;elbowEdgeStyle&quot;,&quot;elbow&quot;:&quot;vertical&quot;,&quot;curved&quot;:0,&quot;rounded&quot;:0};" parent="WIyWlLk6GJQsqaUBKTNV-1" vertex="1">
          <mxGeometry x="276" y="4640" width="132" height="450" as="geometry" />
        </mxCell>
        <mxCell id="U-Zn1JElJ_j373spM2wp-152" value="" style="html=1;points=[];perimeter=orthogonalPerimeter;outlineConnect=0;targetShapes=umlLifeline;portConstraint=eastwest;newEdgeStyle={&quot;edgeStyle&quot;:&quot;elbowEdgeStyle&quot;,&quot;elbow&quot;:&quot;vertical&quot;,&quot;curved&quot;:0,&quot;rounded&quot;:0};" parent="U-Zn1JElJ_j373spM2wp-151" vertex="1">
          <mxGeometry x="60" y="116" width="10" height="97" as="geometry" />
        </mxCell>
        <mxCell id="U-Zn1JElJ_j373spM2wp-153" value="FindObject(objectId)" style="html=1;verticalAlign=bottom;endArrow=block;edgeStyle=elbowEdgeStyle;elbow=vertical;curved=0;rounded=0;" parent="WIyWlLk6GJQsqaUBKTNV-1" target="U-Zn1JElJ_j373spM2wp-151" edge="1">
          <mxGeometry relative="1" as="geometry">
            <mxPoint x="186" y="4760" as="sourcePoint" />
            <Array as="points">
              <mxPoint x="381" y="4760" />
            </Array>
            <mxPoint x="671" y="4760" as="targetPoint" />
          </mxGeometry>
        </mxCell>
        <mxCell id="U-Zn1JElJ_j373spM2wp-154" value="return&amp;nbsp; object" style="html=1;verticalAlign=bottom;endArrow=open;dashed=1;endSize=8;edgeStyle=elbowEdgeStyle;elbow=vertical;curved=0;rounded=0;" parent="WIyWlLk6GJQsqaUBKTNV-1" edge="1">
          <mxGeometry relative="1" as="geometry">
            <mxPoint x="186" y="4844.24" as="targetPoint" />
            <Array as="points" />
            <mxPoint x="336" y="4844.12" as="sourcePoint" />
          </mxGeometry>
        </mxCell>
        <mxCell id="U-Zn1JElJ_j373spM2wp-155" value="" style="html=1;points=[];perimeter=orthogonalPerimeter;outlineConnect=0;targetShapes=umlLifeline;portConstraint=eastwest;newEdgeStyle={&quot;edgeStyle&quot;:&quot;elbowEdgeStyle&quot;,&quot;elbow&quot;:&quot;vertical&quot;,&quot;curved&quot;:0,&quot;rounded&quot;:0};" parent="WIyWlLk6GJQsqaUBKTNV-1" vertex="1">
          <mxGeometry x="551" y="4775.5" width="10" height="38" as="geometry" />
        </mxCell>
        <mxCell id="U-Zn1JElJ_j373spM2wp-156" value="SearchObject(objectId)" style="html=1;verticalAlign=bottom;endArrow=block;edgeStyle=elbowEdgeStyle;elbow=vertical;curved=0;rounded=0;" parent="WIyWlLk6GJQsqaUBKTNV-1" edge="1">
          <mxGeometry relative="1" as="geometry">
            <mxPoint x="347" y="4780" as="sourcePoint" />
            <Array as="points">
              <mxPoint x="532" y="4780" />
            </Array>
            <mxPoint x="555" y="4780" as="targetPoint" />
          </mxGeometry>
        </mxCell>
        <mxCell id="U-Zn1JElJ_j373spM2wp-157" value="return object" style="html=1;verticalAlign=bottom;endArrow=open;dashed=1;endSize=8;edgeStyle=elbowEdgeStyle;elbow=vertical;curved=0;rounded=0;" parent="WIyWlLk6GJQsqaUBKTNV-1" edge="1">
          <mxGeometry relative="1" as="geometry">
            <mxPoint x="345" y="4806" as="targetPoint" />
            <Array as="points" />
            <mxPoint x="554.5" y="4806.470588235294" as="sourcePoint" />
          </mxGeometry>
        </mxCell>
        <mxCell id="slzVIG4Kqr-2eb110mHJ-0" value="alt" style="shape=umlFrame;whiteSpace=wrap;html=1;pointerEvents=0;" parent="WIyWlLk6GJQsqaUBKTNV-1" vertex="1">
          <mxGeometry x="159" y="-810" width="821" height="250" as="geometry" />
        </mxCell>
        <mxCell id="slzVIG4Kqr-2eb110mHJ-1" value="[correct password]" style="text;html=1;align=center;verticalAlign=middle;resizable=0;points=[];autosize=1;strokeColor=none;fillColor=none;" parent="WIyWlLk6GJQsqaUBKTNV-1" vertex="1">
          <mxGeometry x="215" y="-813" width="120" height="30" as="geometry" />
        </mxCell>
        <mxCell id="slzVIG4Kqr-2eb110mHJ-2" value="" style="endArrow=none;dashed=1;html=1;dashPattern=1 3;strokeWidth=2;rounded=0;entryX=1.003;entryY=0.637;entryDx=0;entryDy=0;entryPerimeter=0;exitX=0.001;exitY=0.637;exitDx=0;exitDy=0;exitPerimeter=0;" parent="WIyWlLk6GJQsqaUBKTNV-1" edge="1">
          <mxGeometry width="50" height="50" relative="1" as="geometry">
            <mxPoint x="159.82100000000014" y="-646.3800000000001" as="sourcePoint" />
            <mxPoint x="982.4629999999997" y="-646.3800000000001" as="targetPoint" />
          </mxGeometry>
        </mxCell>
        <mxCell id="slzVIG4Kqr-2eb110mHJ-3" value="[incorrect password]" style="text;html=1;align=center;verticalAlign=middle;resizable=0;points=[];autosize=1;strokeColor=none;fillColor=none;" parent="WIyWlLk6GJQsqaUBKTNV-1" vertex="1">
          <mxGeometry x="167" y="-650" width="130" height="30" as="geometry" />
        </mxCell>
        <mxCell id="slzVIG4Kqr-2eb110mHJ-4" value="return failure" style="html=1;verticalAlign=bottom;endArrow=open;dashed=1;endSize=8;edgeStyle=elbowEdgeStyle;elbow=vertical;curved=0;rounded=0;" parent="WIyWlLk6GJQsqaUBKTNV-1" edge="1">
          <mxGeometry x="0.001" relative="1" as="geometry">
            <mxPoint x="173" y="-603" as="targetPoint" />
            <Array as="points">
              <mxPoint x="378" y="-603" />
            </Array>
            <mxPoint x="672.5" y="-603" as="sourcePoint" />
            <mxPoint as="offset" />
          </mxGeometry>
        </mxCell>
        <mxCell id="slzVIG4Kqr-2eb110mHJ-11" value="return result" style="html=1;verticalAlign=bottom;endArrow=open;dashed=1;endSize=8;edgeStyle=elbowEdgeStyle;elbow=vertical;curved=0;rounded=0;" parent="WIyWlLk6GJQsqaUBKTNV-1" source="slzVIG4Kqr-2eb110mHJ-109" edge="1">
          <mxGeometry relative="1" as="geometry">
            <mxPoint x="336" y="-206" as="targetPoint" />
            <Array as="points" />
            <mxPoint x="672" y="-205.86" as="sourcePoint" />
          </mxGeometry>
        </mxCell>
        <mxCell id="slzVIG4Kqr-2eb110mHJ-12" value="alt" style="shape=umlFrame;whiteSpace=wrap;html=1;pointerEvents=0;" parent="WIyWlLk6GJQsqaUBKTNV-1" vertex="1">
          <mxGeometry x="140" y="320" width="580" height="200" as="geometry" />
        </mxCell>
        <mxCell id="slzVIG4Kqr-2eb110mHJ-13" value="[cannot find the user]" style="text;html=1;align=center;verticalAlign=middle;resizable=0;points=[];autosize=1;strokeColor=none;fillColor=none;" parent="WIyWlLk6GJQsqaUBKTNV-1" vertex="1">
          <mxGeometry x="140" y="405" width="140" height="30" as="geometry" />
        </mxCell>
        <mxCell id="slzVIG4Kqr-2eb110mHJ-15" value="" style="endArrow=none;dashed=1;html=1;dashPattern=1 3;strokeWidth=2;rounded=0;entryX=1.003;entryY=0.405;entryDx=0;entryDy=0;entryPerimeter=0;exitX=0.003;exitY=0.413;exitDx=0;exitDy=0;exitPerimeter=0;" parent="WIyWlLk6GJQsqaUBKTNV-1" source="slzVIG4Kqr-2eb110mHJ-12" target="slzVIG4Kqr-2eb110mHJ-12" edge="1">
          <mxGeometry width="50" height="50" relative="1" as="geometry">
            <mxPoint x="540" y="380" as="sourcePoint" />
            <mxPoint x="590" y="330" as="targetPoint" />
          </mxGeometry>
        </mxCell>
        <mxCell id="slzVIG4Kqr-2eb110mHJ-16" value="[found the user]" style="text;html=1;align=center;verticalAlign=middle;resizable=0;points=[];autosize=1;strokeColor=none;fillColor=none;" parent="WIyWlLk6GJQsqaUBKTNV-1" vertex="1">
          <mxGeometry x="203" y="320" width="110" height="30" as="geometry" />
        </mxCell>
        <mxCell id="slzVIG4Kqr-2eb110mHJ-17" value="return null" style="html=1;verticalAlign=bottom;endArrow=open;dashed=1;endSize=8;edgeStyle=elbowEdgeStyle;elbow=vertical;curved=0;rounded=0;" parent="WIyWlLk6GJQsqaUBKTNV-1" edge="1">
          <mxGeometry relative="1" as="geometry">
            <mxPoint x="173" y="450" as="targetPoint" />
            <Array as="points">
              <mxPoint x="378" y="450" />
            </Array>
            <mxPoint x="672.5" y="450" as="sourcePoint" />
          </mxGeometry>
        </mxCell>
        <mxCell id="slzVIG4Kqr-2eb110mHJ-18" value="Find Friend" style="rounded=0;whiteSpace=wrap;html=1;" parent="WIyWlLk6GJQsqaUBKTNV-1" vertex="1">
          <mxGeometry x="159" y="-330" width="721" height="50" as="geometry" />
        </mxCell>
        <mxCell id="slzVIG4Kqr-2eb110mHJ-19" value="ref" style="shape=umlFrame;whiteSpace=wrap;html=1;pointerEvents=0;" parent="WIyWlLk6GJQsqaUBKTNV-1" vertex="1">
          <mxGeometry x="159" y="-330" width="721" height="50" as="geometry" />
        </mxCell>
        <mxCell id="slzVIG4Kqr-2eb110mHJ-22" value="Find Friend" style="rounded=0;whiteSpace=wrap;html=1;" parent="WIyWlLk6GJQsqaUBKTNV-1" vertex="1">
          <mxGeometry x="140" y="960" width="721" height="70" as="geometry" />
        </mxCell>
        <mxCell id="slzVIG4Kqr-2eb110mHJ-23" value="ref" style="shape=umlFrame;whiteSpace=wrap;html=1;pointerEvents=0;" parent="WIyWlLk6GJQsqaUBKTNV-1" vertex="1">
          <mxGeometry x="140" y="960" width="721" height="70" as="geometry" />
        </mxCell>
        <mxCell id="slzVIG4Kqr-2eb110mHJ-24" value="alt" style="shape=umlFrame;whiteSpace=wrap;html=1;pointerEvents=0;" parent="WIyWlLk6GJQsqaUBKTNV-1" vertex="1">
          <mxGeometry x="140" y="1050" width="730" height="200" as="geometry" />
        </mxCell>
        <mxCell id="slzVIG4Kqr-2eb110mHJ-25" value="[found the user]" style="text;html=1;align=center;verticalAlign=middle;resizable=0;points=[];autosize=1;strokeColor=none;fillColor=none;" parent="WIyWlLk6GJQsqaUBKTNV-1" vertex="1">
          <mxGeometry x="203" y="1050" width="110" height="30" as="geometry" />
        </mxCell>
        <mxCell id="slzVIG4Kqr-2eb110mHJ-27" value="" style="endArrow=none;dashed=1;html=1;dashPattern=1 3;strokeWidth=2;rounded=0;exitX=-0.01;exitY=-0.011;exitDx=0;exitDy=0;exitPerimeter=0;entryX=0.999;entryY=0.631;entryDx=0;entryDy=0;entryPerimeter=0;" parent="WIyWlLk6GJQsqaUBKTNV-1" source="slzVIG4Kqr-2eb110mHJ-29" target="slzVIG4Kqr-2eb110mHJ-24" edge="1">
          <mxGeometry width="50" height="50" relative="1" as="geometry">
            <mxPoint x="430" y="1160" as="sourcePoint" />
            <mxPoint x="870" y="1180" as="targetPoint" />
          </mxGeometry>
        </mxCell>
        <mxCell id="slzVIG4Kqr-2eb110mHJ-28" value="return failure" style="html=1;verticalAlign=bottom;endArrow=open;dashed=1;endSize=8;edgeStyle=elbowEdgeStyle;elbow=vertical;curved=0;rounded=0;" parent="WIyWlLk6GJQsqaUBKTNV-1" source="U-Zn1JElJ_j373spM2wp-56" target="U-Zn1JElJ_j373spM2wp-50" edge="1">
          <mxGeometry x="0.001" relative="1" as="geometry">
            <mxPoint x="178" y="1230" as="targetPoint" />
            <Array as="points">
              <mxPoint x="760" y="1200" />
            </Array>
            <mxPoint x="675" y="1230" as="sourcePoint" />
            <mxPoint as="offset" />
          </mxGeometry>
        </mxCell>
        <mxCell id="slzVIG4Kqr-2eb110mHJ-29" value="[cannot find the user]" style="text;html=1;align=center;verticalAlign=middle;resizable=0;points=[];autosize=1;strokeColor=none;fillColor=none;" parent="WIyWlLk6GJQsqaUBKTNV-1" vertex="1">
          <mxGeometry x="140" y="1180" width="140" height="30" as="geometry" />
        </mxCell>
        <mxCell id="slzVIG4Kqr-2eb110mHJ-32" value="alt" style="shape=umlFrame;whiteSpace=wrap;html=1;pointerEvents=0;" parent="WIyWlLk6GJQsqaUBKTNV-1" vertex="1">
          <mxGeometry x="154" y="2990" width="606" height="200" as="geometry" />
        </mxCell>
        <mxCell id="slzVIG4Kqr-2eb110mHJ-33" value="[found post]" style="text;html=1;align=center;verticalAlign=middle;resizable=0;points=[];autosize=1;strokeColor=none;fillColor=none;" parent="WIyWlLk6GJQsqaUBKTNV-1" vertex="1">
          <mxGeometry x="213" y="2990" width="90" height="30" as="geometry" />
        </mxCell>
        <mxCell id="slzVIG4Kqr-2eb110mHJ-34" value="DeletePost(postId)" style="html=1;verticalAlign=bottom;endArrow=block;edgeStyle=elbowEdgeStyle;elbow=vertical;curved=0;rounded=0;" parent="WIyWlLk6GJQsqaUBKTNV-1" target="U-Zn1JElJ_j373spM2wp-101" edge="1">
          <mxGeometry relative="1" as="geometry">
            <mxPoint x="176" y="3039.5" as="sourcePoint" />
            <Array as="points">
              <mxPoint x="201" y="3039.5" />
            </Array>
            <mxPoint x="381" y="3039.5" as="targetPoint" />
          </mxGeometry>
        </mxCell>
        <mxCell id="slzVIG4Kqr-2eb110mHJ-35" value="return success" style="html=1;verticalAlign=bottom;endArrow=open;dashed=1;endSize=8;edgeStyle=elbowEdgeStyle;elbow=vertical;curved=0;rounded=0;" parent="WIyWlLk6GJQsqaUBKTNV-1" edge="1">
          <mxGeometry relative="1" as="geometry">
            <mxPoint x="549" y="3089.66" as="targetPoint" />
            <Array as="points">
              <mxPoint x="634" y="3089.66" />
            </Array>
            <mxPoint x="719" y="3089.66" as="sourcePoint" />
          </mxGeometry>
        </mxCell>
        <mxCell id="slzVIG4Kqr-2eb110mHJ-36" value="DeletePost(postId)" style="html=1;verticalAlign=bottom;endArrow=block;edgeStyle=elbowEdgeStyle;elbow=vertical;curved=0;rounded=0;" parent="WIyWlLk6GJQsqaUBKTNV-1" source="U-Zn1JElJ_j373spM2wp-101" target="U-Zn1JElJ_j373spM2wp-106" edge="1">
          <mxGeometry relative="1" as="geometry">
            <mxPoint x="186" y="3049.5" as="sourcePoint" />
            <Array as="points">
              <mxPoint x="640" y="3060" />
            </Array>
            <mxPoint x="550" y="3050" as="targetPoint" />
          </mxGeometry>
        </mxCell>
        <mxCell id="slzVIG4Kqr-2eb110mHJ-38" value="" style="endArrow=none;dashed=1;html=1;dashPattern=1 3;strokeWidth=2;rounded=0;entryX=1.004;entryY=0.645;entryDx=0;entryDy=0;entryPerimeter=0;" parent="WIyWlLk6GJQsqaUBKTNV-1" target="slzVIG4Kqr-2eb110mHJ-32" edge="1">
          <mxGeometry width="50" height="50" relative="1" as="geometry">
            <mxPoint x="150" y="3120" as="sourcePoint" />
            <mxPoint x="420" y="3040" as="targetPoint" />
          </mxGeometry>
        </mxCell>
        <mxCell id="slzVIG4Kqr-2eb110mHJ-40" value="[cannot find post]" style="text;html=1;align=center;verticalAlign=middle;resizable=0;points=[];autosize=1;strokeColor=none;fillColor=none;" parent="WIyWlLk6GJQsqaUBKTNV-1" vertex="1">
          <mxGeometry x="155" y="3120" width="110" height="30" as="geometry" />
        </mxCell>
        <mxCell id="slzVIG4Kqr-2eb110mHJ-42" value="return success" style="html=1;verticalAlign=bottom;endArrow=open;dashed=1;endSize=8;edgeStyle=elbowEdgeStyle;elbow=vertical;curved=0;rounded=0;" parent="WIyWlLk6GJQsqaUBKTNV-1" source="U-Zn1JElJ_j373spM2wp-101" edge="1">
          <mxGeometry relative="1" as="geometry">
            <mxPoint x="177" y="3100" as="targetPoint" />
            <Array as="points">
              <mxPoint x="340" y="3100" />
            </Array>
            <mxPoint x="331" y="3110" as="sourcePoint" />
          </mxGeometry>
        </mxCell>
        <mxCell id="slzVIG4Kqr-2eb110mHJ-43" value="return failure" style="html=1;verticalAlign=bottom;endArrow=open;dashed=1;endSize=8;edgeStyle=elbowEdgeStyle;elbow=vertical;curved=0;rounded=0;" parent="WIyWlLk6GJQsqaUBKTNV-1" edge="1">
          <mxGeometry relative="1" as="geometry">
            <mxPoint x="177" y="3170" as="targetPoint" />
            <Array as="points">
              <mxPoint x="340" y="3170" />
            </Array>
            <mxPoint x="540" y="3170" as="sourcePoint" />
          </mxGeometry>
        </mxCell>
        <mxCell id="slzVIG4Kqr-2eb110mHJ-44" value="return failure" style="html=1;verticalAlign=bottom;endArrow=open;dashed=1;endSize=8;edgeStyle=elbowEdgeStyle;elbow=vertical;curved=0;rounded=0;" parent="WIyWlLk6GJQsqaUBKTNV-1" source="U-Zn1JElJ_j373spM2wp-106" target="U-Zn1JElJ_j373spM2wp-101" edge="1">
          <mxGeometry relative="1" as="geometry">
            <mxPoint x="187" y="3180" as="targetPoint" />
            <Array as="points">
              <mxPoint x="630" y="3150" />
            </Array>
            <mxPoint x="550" y="3180" as="sourcePoint" />
          </mxGeometry>
        </mxCell>
        <mxCell id="slzVIG4Kqr-2eb110mHJ-84" value="LoadPost(postId)" style="html=1;verticalAlign=bottom;endArrow=block;edgeStyle=elbowEdgeStyle;elbow=vertical;curved=0;rounded=0;" parent="WIyWlLk6GJQsqaUBKTNV-1" edge="1">
          <mxGeometry relative="1" as="geometry">
            <mxPoint x="332.58" y="3570" as="sourcePoint" />
            <Array as="points">
              <mxPoint x="357.58" y="3570" />
            </Array>
            <mxPoint x="537.58" y="3570" as="targetPoint" />
          </mxGeometry>
        </mxCell>
        <mxCell id="slzVIG4Kqr-2eb110mHJ-85" value="GetPost(int postId)" style="html=1;verticalAlign=bottom;endArrow=block;edgeStyle=elbowEdgeStyle;elbow=vertical;curved=0;rounded=0;" parent="WIyWlLk6GJQsqaUBKTNV-1" edge="1">
          <mxGeometry relative="1" as="geometry">
            <mxPoint x="547.58" y="3590" as="sourcePoint" />
            <Array as="points">
              <mxPoint x="582.58" y="3590" />
              <mxPoint x="660.58" y="3600" />
            </Array>
            <mxPoint x="717.58" y="3590" as="targetPoint" />
          </mxGeometry>
        </mxCell>
        <mxCell id="slzVIG4Kqr-2eb110mHJ-86" value="return success" style="html=1;verticalAlign=bottom;endArrow=open;dashed=1;endSize=8;edgeStyle=elbowEdgeStyle;elbow=vertical;curved=0;rounded=0;" parent="WIyWlLk6GJQsqaUBKTNV-1" edge="1">
          <mxGeometry relative="1" as="geometry">
            <mxPoint x="547.58" y="3620" as="targetPoint" />
            <Array as="points">
              <mxPoint x="632.58" y="3620" />
            </Array>
            <mxPoint x="717.58" y="3620" as="sourcePoint" />
          </mxGeometry>
        </mxCell>
        <mxCell id="slzVIG4Kqr-2eb110mHJ-87" value="alt" style="shape=umlFrame;whiteSpace=wrap;html=1;pointerEvents=0;" parent="WIyWlLk6GJQsqaUBKTNV-1" vertex="1">
          <mxGeometry x="151.57999999999998" y="3604" width="606" height="200" as="geometry" />
        </mxCell>
        <mxCell id="slzVIG4Kqr-2eb110mHJ-88" value="[found post]" style="text;html=1;align=center;verticalAlign=middle;resizable=0;points=[];autosize=1;strokeColor=none;fillColor=none;" parent="WIyWlLk6GJQsqaUBKTNV-1" vertex="1">
          <mxGeometry x="210.57999999999998" y="3604" width="90" height="30" as="geometry" />
        </mxCell>
        <mxCell id="slzVIG4Kqr-2eb110mHJ-89" value="EditPost(postId)" style="html=1;verticalAlign=bottom;endArrow=block;edgeStyle=elbowEdgeStyle;elbow=vertical;curved=0;rounded=0;" parent="WIyWlLk6GJQsqaUBKTNV-1" edge="1">
          <mxGeometry relative="1" as="geometry">
            <mxPoint x="173.57999999999998" y="3653.5" as="sourcePoint" />
            <Array as="points">
              <mxPoint x="198.57999999999998" y="3653.5" />
            </Array>
            <mxPoint x="537.58" y="3654" as="targetPoint" />
          </mxGeometry>
        </mxCell>
        <mxCell id="slzVIG4Kqr-2eb110mHJ-90" value="return success" style="html=1;verticalAlign=bottom;endArrow=open;dashed=1;endSize=8;edgeStyle=elbowEdgeStyle;elbow=vertical;curved=0;rounded=0;" parent="WIyWlLk6GJQsqaUBKTNV-1" edge="1">
          <mxGeometry relative="1" as="geometry">
            <mxPoint x="546.58" y="3703.66" as="targetPoint" />
            <Array as="points">
              <mxPoint x="631.58" y="3703.66" />
            </Array>
            <mxPoint x="716.58" y="3703.66" as="sourcePoint" />
          </mxGeometry>
        </mxCell>
        <mxCell id="slzVIG4Kqr-2eb110mHJ-91" value="EditPost(postId)" style="html=1;verticalAlign=bottom;endArrow=block;edgeStyle=elbowEdgeStyle;elbow=vertical;curved=0;rounded=0;" parent="WIyWlLk6GJQsqaUBKTNV-1" edge="1">
          <mxGeometry relative="1" as="geometry">
            <mxPoint x="547.58" y="3674" as="sourcePoint" />
            <Array as="points">
              <mxPoint x="637.58" y="3674" />
            </Array>
            <mxPoint x="714.58" y="3674" as="targetPoint" />
          </mxGeometry>
        </mxCell>
        <mxCell id="slzVIG4Kqr-2eb110mHJ-92" value="" style="endArrow=none;dashed=1;html=1;dashPattern=1 3;strokeWidth=2;rounded=0;entryX=1.004;entryY=0.645;entryDx=0;entryDy=0;entryPerimeter=0;" parent="WIyWlLk6GJQsqaUBKTNV-1" target="slzVIG4Kqr-2eb110mHJ-87" edge="1">
          <mxGeometry width="50" height="50" relative="1" as="geometry">
            <mxPoint x="147.57999999999998" y="3734" as="sourcePoint" />
            <mxPoint x="417.58" y="3654" as="targetPoint" />
          </mxGeometry>
        </mxCell>
        <mxCell id="slzVIG4Kqr-2eb110mHJ-93" value="[cannot find post]" style="text;html=1;align=center;verticalAlign=middle;resizable=0;points=[];autosize=1;strokeColor=none;fillColor=none;" parent="WIyWlLk6GJQsqaUBKTNV-1" vertex="1">
          <mxGeometry x="152.57999999999998" y="3734" width="110" height="30" as="geometry" />
        </mxCell>
        <mxCell id="slzVIG4Kqr-2eb110mHJ-94" value="return success" style="html=1;verticalAlign=bottom;endArrow=open;dashed=1;endSize=8;edgeStyle=elbowEdgeStyle;elbow=vertical;curved=0;rounded=0;" parent="WIyWlLk6GJQsqaUBKTNV-1" edge="1">
          <mxGeometry relative="1" as="geometry">
            <mxPoint x="174.57999999999998" y="3714" as="targetPoint" />
            <Array as="points">
              <mxPoint x="337.58" y="3714" />
            </Array>
            <mxPoint x="537.58" y="3714" as="sourcePoint" />
          </mxGeometry>
        </mxCell>
        <mxCell id="slzVIG4Kqr-2eb110mHJ-95" value="return failure" style="html=1;verticalAlign=bottom;endArrow=open;dashed=1;endSize=8;edgeStyle=elbowEdgeStyle;elbow=vertical;curved=0;rounded=0;" parent="WIyWlLk6GJQsqaUBKTNV-1" edge="1">
          <mxGeometry relative="1" as="geometry">
            <mxPoint x="174.57999999999998" y="3784" as="targetPoint" />
            <Array as="points">
              <mxPoint x="337.58" y="3784" />
            </Array>
            <mxPoint x="537.58" y="3784" as="sourcePoint" />
          </mxGeometry>
        </mxCell>
        <mxCell id="slzVIG4Kqr-2eb110mHJ-96" value="return failure" style="html=1;verticalAlign=bottom;endArrow=open;dashed=1;endSize=8;edgeStyle=elbowEdgeStyle;elbow=vertical;curved=0;rounded=0;" parent="WIyWlLk6GJQsqaUBKTNV-1" edge="1">
          <mxGeometry relative="1" as="geometry">
            <mxPoint x="547.58" y="3764" as="targetPoint" />
            <Array as="points">
              <mxPoint x="627.58" y="3764" />
            </Array>
            <mxPoint x="714.58" y="3764" as="sourcePoint" />
          </mxGeometry>
        </mxCell>
        <mxCell id="slzVIG4Kqr-2eb110mHJ-99" value="alt" style="shape=umlFrame;whiteSpace=wrap;html=1;pointerEvents=0;" parent="WIyWlLk6GJQsqaUBKTNV-1" vertex="1">
          <mxGeometry x="168" y="5380" width="402" height="220" as="geometry" />
        </mxCell>
        <mxCell id="slzVIG4Kqr-2eb110mHJ-101" value="[found room]" style="text;html=1;align=center;verticalAlign=middle;resizable=0;points=[];autosize=1;strokeColor=none;fillColor=none;" parent="WIyWlLk6GJQsqaUBKTNV-1" vertex="1">
          <mxGeometry x="225" y="5380" width="90" height="30" as="geometry" />
        </mxCell>
        <mxCell id="slzVIG4Kqr-2eb110mHJ-102" value="" style="endArrow=none;dashed=1;html=1;dashPattern=1 3;strokeWidth=2;rounded=0;entryX=1.006;entryY=0.671;entryDx=0;entryDy=0;entryPerimeter=0;exitX=-0.003;exitY=0.667;exitDx=0;exitDy=0;exitPerimeter=0;" parent="WIyWlLk6GJQsqaUBKTNV-1" source="slzVIG4Kqr-2eb110mHJ-99" target="slzVIG4Kqr-2eb110mHJ-99" edge="1">
          <mxGeometry width="50" height="50" relative="1" as="geometry">
            <mxPoint x="400" y="5430" as="sourcePoint" />
            <mxPoint x="450" y="5380" as="targetPoint" />
          </mxGeometry>
        </mxCell>
        <mxCell id="slzVIG4Kqr-2eb110mHJ-103" value="[cannot find room]" style="text;html=1;align=center;verticalAlign=middle;resizable=0;points=[];autosize=1;strokeColor=none;fillColor=none;" parent="WIyWlLk6GJQsqaUBKTNV-1" vertex="1">
          <mxGeometry x="166" y="5530" width="120" height="30" as="geometry" />
        </mxCell>
        <mxCell id="slzVIG4Kqr-2eb110mHJ-104" value="return failure" style="html=1;verticalAlign=bottom;endArrow=open;dashed=1;endSize=8;edgeStyle=elbowEdgeStyle;elbow=vertical;curved=0;rounded=0;" parent="WIyWlLk6GJQsqaUBKTNV-1" target="U-Zn1JElJ_j373spM2wp-44" edge="1">
          <mxGeometry relative="1" as="geometry">
            <mxPoint x="350" y="5534.79" as="targetPoint" />
            <Array as="points">
              <mxPoint x="470" y="5550" />
            </Array>
            <mxPoint x="530" y="5550" as="sourcePoint" />
          </mxGeometry>
        </mxCell>
        <mxCell id="slzVIG4Kqr-2eb110mHJ-105" value="return failure" style="html=1;verticalAlign=bottom;endArrow=open;dashed=1;endSize=8;edgeStyle=elbowEdgeStyle;elbow=vertical;curved=0;rounded=0;" parent="WIyWlLk6GJQsqaUBKTNV-1" edge="1">
          <mxGeometry relative="1" as="geometry">
            <mxPoint x="189" y="5580" as="targetPoint" />
            <Array as="points" />
            <mxPoint x="340" y="5580.31" as="sourcePoint" />
          </mxGeometry>
        </mxCell>
        <mxCell id="slzVIG4Kqr-2eb110mHJ-110" value="Other&lt;br&gt;User" style="text;html=1;align=center;verticalAlign=middle;resizable=0;points=[];autosize=1;strokeColor=none;fillColor=none;" parent="WIyWlLk6GJQsqaUBKTNV-1" vertex="1">
          <mxGeometry x="685" y="-370" width="50" height="40" as="geometry" />
        </mxCell>
        <mxCell id="slzVIG4Kqr-2eb110mHJ-112" value="return result" style="html=1;verticalAlign=bottom;endArrow=open;dashed=1;endSize=8;edgeStyle=elbowEdgeStyle;elbow=vertical;curved=0;rounded=0;entryX=0.423;entryY=1.048;entryDx=0;entryDy=0;entryPerimeter=0;" parent="WIyWlLk6GJQsqaUBKTNV-1" edge="1">
          <mxGeometry relative="1" as="geometry">
            <mxPoint x="170.45000000000005" y="-73.55999999999995" as="targetPoint" />
            <Array as="points" />
            <mxPoint x="326.42" y="-75" as="sourcePoint" />
          </mxGeometry>
        </mxCell>
        <mxCell id="slzVIG4Kqr-2eb110mHJ-114" value="Other&lt;br&gt;User" style="text;html=1;align=center;verticalAlign=middle;resizable=0;points=[];autosize=1;strokeColor=none;fillColor=none;" parent="WIyWlLk6GJQsqaUBKTNV-1" vertex="1">
          <mxGeometry x="252.58" y="930" width="50" height="40" as="geometry" />
        </mxCell>
        <mxCell id="slzVIG4Kqr-2eb110mHJ-115" value="DeleteFriend(name)" style="html=1;verticalAlign=bottom;endArrow=block;edgeStyle=elbowEdgeStyle;elbow=vertical;curved=0;rounded=0;" parent="WIyWlLk6GJQsqaUBKTNV-1" source="slzVIG4Kqr-2eb110mHJ-113" target="U-Zn1JElJ_j373spM2wp-50" edge="1">
          <mxGeometry relative="1" as="geometry">
            <mxPoint x="173" y="1140" as="sourcePoint" />
            <Array as="points">
              <mxPoint x="383" y="1140" />
            </Array>
            <mxPoint x="660" y="1140" as="targetPoint" />
          </mxGeometry>
        </mxCell>
        <mxCell id="slzVIG4Kqr-2eb110mHJ-116" value="return success" style="html=1;verticalAlign=bottom;endArrow=open;dashed=1;endSize=8;edgeStyle=elbowEdgeStyle;elbow=vertical;curved=0;rounded=0;" parent="WIyWlLk6GJQsqaUBKTNV-1" source="U-Zn1JElJ_j373spM2wp-56" target="U-Zn1JElJ_j373spM2wp-50" edge="1">
          <mxGeometry relative="1" as="geometry">
            <mxPoint x="679.9999999999998" y="1149.66" as="targetPoint" />
            <Array as="points">
              <mxPoint x="755" y="1149.66" />
            </Array>
            <mxPoint x="839.9999999999998" y="1149.66" as="sourcePoint" />
          </mxGeometry>
        </mxCell>
        <mxCell id="kII_z5-Zf5RFWolfgUbG-2" value="AddFriend(name)" style="html=1;verticalAlign=bottom;endArrow=block;edgeStyle=elbowEdgeStyle;elbow=vertical;curved=0;rounded=0;" parent="WIyWlLk6GJQsqaUBKTNV-1" target="slzVIG4Kqr-2eb110mHJ-109" edge="1">
          <mxGeometry relative="1" as="geometry">
            <mxPoint x="336" y="-224" as="sourcePoint" />
            <Array as="points" />
            <mxPoint x="492" y="-224" as="targetPoint" />
            <mxPoint as="offset" />
          </mxGeometry>
        </mxCell>
        <mxCell id="70RkYLPMqeiG9e3OQrOJ-0" value=":UserManager" style="shape=umlLifeline;perimeter=lifelinePerimeter;whiteSpace=wrap;html=1;container=0;dropTarget=0;collapsible=0;recursiveResize=0;outlineConnect=0;portConstraint=eastwest;newEdgeStyle={&quot;edgeStyle&quot;:&quot;elbowEdgeStyle&quot;,&quot;elbow&quot;:&quot;vertical&quot;,&quot;curved&quot;:0,&quot;rounded&quot;:0};" parent="WIyWlLk6GJQsqaUBKTNV-1" vertex="1">
          <mxGeometry x="627" y="-1589" width="100" height="450" as="geometry" />
        </mxCell>
        <mxCell id="70RkYLPMqeiG9e3OQrOJ-1" value="" style="html=1;points=[];perimeter=orthogonalPerimeter;outlineConnect=0;targetShapes=umlLifeline;portConstraint=eastwest;newEdgeStyle={&quot;edgeStyle&quot;:&quot;elbowEdgeStyle&quot;,&quot;elbow&quot;:&quot;vertical&quot;,&quot;curved&quot;:0,&quot;rounded&quot;:0};" parent="70RkYLPMqeiG9e3OQrOJ-0" vertex="1">
          <mxGeometry x="45" y="70" width="10" height="330" as="geometry" />
        </mxCell>
        <mxCell id="70RkYLPMqeiG9e3OQrOJ-27" value="&lt;br&gt;Validate(id, email, password)" style="html=1;align=left;spacingLeft=2;endArrow=block;rounded=0;edgeStyle=orthogonalEdgeStyle;curved=0;rounded=0;" parent="70RkYLPMqeiG9e3OQrOJ-0" source="70RkYLPMqeiG9e3OQrOJ-1" target="70RkYLPMqeiG9e3OQrOJ-1" edge="1">
          <mxGeometry relative="1" as="geometry">
            <mxPoint x="55" y="99" as="sourcePoint" />
            <Array as="points">
              <mxPoint x="83" y="149" />
              <mxPoint x="83" y="179" />
            </Array>
            <mxPoint x="55" y="129" as="targetPoint" />
          </mxGeometry>
        </mxCell>
        <mxCell id="70RkYLPMqeiG9e3OQrOJ-2" value="Register(id, email, password, name, gender, age)&amp;nbsp;" style="html=1;verticalAlign=bottom;endArrow=block;edgeStyle=elbowEdgeStyle;elbow=vertical;curved=0;rounded=0;" parent="WIyWlLk6GJQsqaUBKTNV-1" target="70RkYLPMqeiG9e3OQrOJ-1" edge="1">
          <mxGeometry x="0.0011" relative="1" as="geometry">
            <mxPoint x="180" y="-1450" as="sourcePoint" />
            <Array as="points">
              <mxPoint x="280" y="-1450" />
            </Array>
            <mxPoint x="672" y="-1507" as="targetPoint" />
            <mxPoint as="offset" />
          </mxGeometry>
        </mxCell>
        <mxCell id="70RkYLPMqeiG9e3OQrOJ-3" value="Non-member" style="shape=umlActor;verticalLabelPosition=bottom;verticalAlign=top;html=1;outlineConnect=0;" parent="WIyWlLk6GJQsqaUBKTNV-1" vertex="1">
          <mxGeometry x="161" y="-1580" width="30" height="60" as="geometry" />
        </mxCell>
        <mxCell id="70RkYLPMqeiG9e3OQrOJ-4" value="" style="endArrow=none;dashed=1;html=1;rounded=0;" parent="WIyWlLk6GJQsqaUBKTNV-1" target="70RkYLPMqeiG9e3OQrOJ-3" edge="1">
          <mxGeometry width="50" height="50" relative="1" as="geometry">
            <mxPoint x="175" y="-1140" as="sourcePoint" />
            <mxPoint x="174.06595297574108" y="-1470" as="targetPoint" />
          </mxGeometry>
        </mxCell>
        <mxCell id="70RkYLPMqeiG9e3OQrOJ-9" value="sd Register" style="shape=umlFrame;whiteSpace=wrap;html=1;pointerEvents=0;width=220;height=40;" parent="WIyWlLk6GJQsqaUBKTNV-1" vertex="1">
          <mxGeometry x="37" y="-1660" width="1000" height="540" as="geometry" />
        </mxCell>
        <mxCell id="70RkYLPMqeiG9e3OQrOJ-28" value="alt" style="shape=umlFrame;whiteSpace=wrap;html=1;pointerEvents=0;" parent="WIyWlLk6GJQsqaUBKTNV-1" vertex="1">
          <mxGeometry x="152" y="-1400" width="760" height="185" as="geometry" />
        </mxCell>
        <mxCell id="70RkYLPMqeiG9e3OQrOJ-29" value="[valid user info]" style="text;html=1;align=center;verticalAlign=middle;resizable=0;points=[];autosize=1;strokeColor=none;fillColor=none;" parent="WIyWlLk6GJQsqaUBKTNV-1" vertex="1">
          <mxGeometry x="210.58" y="-1400" width="100" height="30" as="geometry" />
        </mxCell>
        <mxCell id="70RkYLPMqeiG9e3OQrOJ-31" value="" style="endArrow=none;dashed=1;html=1;dashPattern=1 3;strokeWidth=2;rounded=0;exitX=-0.002;exitY=0.459;exitDx=0;exitDy=0;exitPerimeter=0;entryX=1.003;entryY=0.448;entryDx=0;entryDy=0;entryPerimeter=0;" parent="WIyWlLk6GJQsqaUBKTNV-1" source="70RkYLPMqeiG9e3OQrOJ-28" target="70RkYLPMqeiG9e3OQrOJ-28" edge="1">
          <mxGeometry width="50" height="50" relative="1" as="geometry">
            <mxPoint x="540" y="-1320" as="sourcePoint" />
            <mxPoint x="590" y="-1370" as="targetPoint" />
          </mxGeometry>
        </mxCell>
        <mxCell id="70RkYLPMqeiG9e3OQrOJ-32" value="UpdateUserDB(id, email, password, name, gender, age, registerDate)" style="html=1;verticalAlign=bottom;endArrow=block;edgeStyle=elbowEdgeStyle;elbow=vertical;curved=0;rounded=0;" parent="WIyWlLk6GJQsqaUBKTNV-1" source="70RkYLPMqeiG9e3OQrOJ-1" target="70RkYLPMqeiG9e3OQrOJ-7" edge="1">
          <mxGeometry width="80" relative="1" as="geometry">
            <mxPoint x="520" y="-1350" as="sourcePoint" />
            <mxPoint x="600" y="-1350" as="targetPoint" />
            <Array as="points">
              <mxPoint x="770" y="-1370" />
            </Array>
          </mxGeometry>
        </mxCell>
        <mxCell id="70RkYLPMqeiG9e3OQrOJ-33" value="UpdateFriend(name)" style="html=1;verticalAlign=bottom;endArrow=block;edgeStyle=elbowEdgeStyle;elbow=vertical;curved=0;rounded=0;" parent="WIyWlLk6GJQsqaUBKTNV-1" source="U-Zn1JElJ_j373spM2wp-1" target="U-Zn1JElJ_j373spM2wp-11" edge="1">
          <mxGeometry width="80" relative="1" as="geometry">
            <mxPoint x="520" y="-170" as="sourcePoint" />
            <mxPoint x="600" y="-170" as="targetPoint" />
            <Array as="points">
              <mxPoint x="590" y="-140" />
            </Array>
          </mxGeometry>
        </mxCell>
        <mxCell id="70RkYLPMqeiG9e3OQrOJ-34" value="UpdateUserDB(id, email, password, name, gender, age)" style="html=1;verticalAlign=bottom;endArrow=block;edgeStyle=elbowEdgeStyle;elbow=vertical;curved=0;rounded=0;" parent="WIyWlLk6GJQsqaUBKTNV-1" edge="1">
          <mxGeometry width="80" relative="1" as="geometry">
            <mxPoint x="679.9999999999998" y="-698" as="sourcePoint" />
            <mxPoint x="839.9999999999998" y="-698" as="targetPoint" />
            <Array as="points">
              <mxPoint x="760" y="-698" />
            </Array>
          </mxGeometry>
        </mxCell>
        <mxCell id="70RkYLPMqeiG9e3OQrOJ-35" value="CheckUserDB(email, password)" style="html=1;verticalAlign=bottom;endArrow=block;edgeStyle=elbowEdgeStyle;elbow=vertical;curved=0;rounded=0;" parent="WIyWlLk6GJQsqaUBKTNV-1" edge="1">
          <mxGeometry width="80" relative="1" as="geometry">
            <mxPoint x="679.9999999999998" y="-820" as="sourcePoint" />
            <mxPoint x="839.9999999999998" y="-820" as="targetPoint" />
            <Array as="points">
              <mxPoint x="760" y="-820" />
            </Array>
          </mxGeometry>
        </mxCell>
        <mxCell id="70RkYLPMqeiG9e3OQrOJ-36" value="return success" style="html=1;verticalAlign=bottom;endArrow=open;dashed=1;endSize=8;edgeStyle=elbowEdgeStyle;elbow=vertical;curved=0;rounded=0;" parent="WIyWlLk6GJQsqaUBKTNV-1" source="70RkYLPMqeiG9e3OQrOJ-1" edge="1">
          <mxGeometry relative="1" as="geometry">
            <mxPoint x="600" y="-1350" as="sourcePoint" />
            <mxPoint x="180" y="-1350" as="targetPoint" />
            <Array as="points">
              <mxPoint x="390" y="-1350" />
            </Array>
          </mxGeometry>
        </mxCell>
        <mxCell id="70RkYLPMqeiG9e3OQrOJ-37" value="return failure" style="html=1;verticalAlign=bottom;endArrow=open;dashed=1;endSize=8;edgeStyle=elbowEdgeStyle;elbow=vertical;curved=0;rounded=0;" parent="WIyWlLk6GJQsqaUBKTNV-1" source="70RkYLPMqeiG9e3OQrOJ-1" edge="1">
          <mxGeometry relative="1" as="geometry">
            <mxPoint x="669" y="-1270" as="sourcePoint" />
            <mxPoint x="177" y="-1270" as="targetPoint" />
          </mxGeometry>
        </mxCell>
        <mxCell id="70RkYLPMqeiG9e3OQrOJ-38" value="[invalid user info]" style="text;html=1;align=center;verticalAlign=middle;resizable=0;points=[];autosize=1;strokeColor=none;fillColor=none;" parent="WIyWlLk6GJQsqaUBKTNV-1" vertex="1">
          <mxGeometry x="154" y="-1310" width="110" height="30" as="geometry" />
        </mxCell>
        <mxCell id="70RkYLPMqeiG9e3OQrOJ-39" value="UpdateFriendList()" style="html=1;verticalAlign=bottom;endArrow=block;edgeStyle=elbowEdgeStyle;elbow=vertical;curved=0;rounded=0;" parent="WIyWlLk6GJQsqaUBKTNV-1" source="U-Zn1JElJ_j373spM2wp-50" target="U-Zn1JElJ_j373spM2wp-56" edge="1">
          <mxGeometry width="80" relative="1" as="geometry">
            <mxPoint x="520" y="1070" as="sourcePoint" />
            <mxPoint x="600" y="1070" as="targetPoint" />
            <Array as="points">
              <mxPoint x="770" y="1100" />
            </Array>
          </mxGeometry>
        </mxCell>
        <mxCell id="70RkYLPMqeiG9e3OQrOJ-40" value="loop [until return success]" style="shape=umlFrame;whiteSpace=wrap;html=1;pointerEvents=0;width=150;height=30;" parent="WIyWlLk6GJQsqaUBKTNV-1" vertex="1">
          <mxGeometry x="140" y="-1490" width="800" height="290" as="geometry" />
        </mxCell>
        <mxCell id="70RkYLPMqeiG9e3OQrOJ-41" value=": Link_Obj_Post" style="shape=umlLifeline;perimeter=lifelinePerimeter;whiteSpace=wrap;html=1;container=0;dropTarget=0;collapsible=0;recursiveResize=0;outlineConnect=0;portConstraint=eastwest;newEdgeStyle={&quot;edgeStyle&quot;:&quot;elbowEdgeStyle&quot;,&quot;elbow&quot;:&quot;vertical&quot;,&quot;curved&quot;:0,&quot;rounded&quot;:0};" parent="WIyWlLk6GJQsqaUBKTNV-1" vertex="1">
          <mxGeometry x="591" y="1496" width="132" height="450" as="geometry" />
        </mxCell>
        <mxCell id="70RkYLPMqeiG9e3OQrOJ-42" value="" style="html=1;points=[];perimeter=orthogonalPerimeter;outlineConnect=0;targetShapes=umlLifeline;portConstraint=eastwest;newEdgeStyle={&quot;edgeStyle&quot;:&quot;elbowEdgeStyle&quot;,&quot;elbow&quot;:&quot;vertical&quot;,&quot;curved&quot;:0,&quot;rounded&quot;:0};" parent="70RkYLPMqeiG9e3OQrOJ-41" vertex="1">
          <mxGeometry x="61" y="100" width="10" height="340" as="geometry" />
        </mxCell>
        <mxCell id="70RkYLPMqeiG9e3OQrOJ-43" value="alt" style="shape=umlFrame;whiteSpace=wrap;html=1;pointerEvents=0;" parent="WIyWlLk6GJQsqaUBKTNV-1" vertex="1">
          <mxGeometry x="159" y="2330" width="591" height="160" as="geometry" />
        </mxCell>
        <mxCell id="70RkYLPMqeiG9e3OQrOJ-45" value="[web requset not error]" style="text;html=1;align=center;verticalAlign=middle;resizable=0;points=[];autosize=1;strokeColor=none;fillColor=none;" parent="WIyWlLk6GJQsqaUBKTNV-1" vertex="1">
          <mxGeometry x="215" y="2330" width="140" height="30" as="geometry" />
        </mxCell>
        <mxCell id="70RkYLPMqeiG9e3OQrOJ-46" value="" style="endArrow=none;dashed=1;html=1;dashPattern=1 3;strokeWidth=2;rounded=0;entryX=1;entryY=0.677;entryDx=0;entryDy=0;entryPerimeter=0;exitX=0.001;exitY=0.673;exitDx=0;exitDy=0;exitPerimeter=0;" parent="WIyWlLk6GJQsqaUBKTNV-1" source="70RkYLPMqeiG9e3OQrOJ-43" target="70RkYLPMqeiG9e3OQrOJ-43" edge="1">
          <mxGeometry width="50" height="50" relative="1" as="geometry">
            <mxPoint x="580" y="2360" as="sourcePoint" />
            <mxPoint x="630" y="2310" as="targetPoint" />
          </mxGeometry>
        </mxCell>
        <mxCell id="70RkYLPMqeiG9e3OQrOJ-47" value="return failure" style="html=1;verticalAlign=bottom;endArrow=open;dashed=1;endSize=8;edgeStyle=elbowEdgeStyle;elbow=vertical;curved=0;rounded=0;" parent="WIyWlLk6GJQsqaUBKTNV-1" target="U-Zn1JElJ_j373spM2wp-70" edge="1">
          <mxGeometry relative="1" as="geometry">
            <mxPoint x="374" y="2450" as="targetPoint" />
            <Array as="points">
              <mxPoint x="474" y="2450" />
            </Array>
            <mxPoint x="540" y="2450" as="sourcePoint" />
          </mxGeometry>
        </mxCell>
        <mxCell id="70RkYLPMqeiG9e3OQrOJ-48" value="[web request error]" style="text;html=1;align=center;verticalAlign=middle;resizable=0;points=[];autosize=1;strokeColor=none;fillColor=none;" parent="WIyWlLk6GJQsqaUBKTNV-1" vertex="1">
          <mxGeometry x="159" y="2440" width="120" height="30" as="geometry" />
        </mxCell>
        <mxCell id="70RkYLPMqeiG9e3OQrOJ-49" value="UserManager : User" style="shape=umlLifeline;perimeter=lifelinePerimeter;whiteSpace=wrap;html=1;container=0;dropTarget=0;collapsible=0;recursiveResize=0;outlineConnect=0;portConstraint=eastwest;newEdgeStyle={&quot;edgeStyle&quot;:&quot;elbowEdgeStyle&quot;,&quot;elbow&quot;:&quot;vertical&quot;,&quot;curved&quot;:0,&quot;rounded&quot;:0};" parent="WIyWlLk6GJQsqaUBKTNV-1" vertex="1">
          <mxGeometry x="728" y="1496" width="132" height="450" as="geometry" />
        </mxCell>
        <mxCell id="70RkYLPMqeiG9e3OQrOJ-50" value="" style="html=1;points=[];perimeter=orthogonalPerimeter;outlineConnect=0;targetShapes=umlLifeline;portConstraint=eastwest;newEdgeStyle={&quot;edgeStyle&quot;:&quot;elbowEdgeStyle&quot;,&quot;elbow&quot;:&quot;vertical&quot;,&quot;curved&quot;:0,&quot;rounded&quot;:0};" parent="70RkYLPMqeiG9e3OQrOJ-49" vertex="1">
          <mxGeometry x="61" y="100" width="10" height="340" as="geometry" />
        </mxCell>
        <mxCell id="70RkYLPMqeiG9e3OQrOJ-57" value=": PostDB" style="shape=umlLifeline;perimeter=lifelinePerimeter;whiteSpace=wrap;html=1;container=0;dropTarget=0;collapsible=0;recursiveResize=0;outlineConnect=0;portConstraint=eastwest;newEdgeStyle={&quot;edgeStyle&quot;:&quot;elbowEdgeStyle&quot;,&quot;elbow&quot;:&quot;vertical&quot;,&quot;curved&quot;:0,&quot;rounded&quot;:0};" parent="WIyWlLk6GJQsqaUBKTNV-1" vertex="1">
          <mxGeometry x="866" y="1496" width="132" height="450" as="geometry" />
        </mxCell>
        <mxCell id="70RkYLPMqeiG9e3OQrOJ-58" value="" style="html=1;points=[];perimeter=orthogonalPerimeter;outlineConnect=0;targetShapes=umlLifeline;portConstraint=eastwest;newEdgeStyle={&quot;edgeStyle&quot;:&quot;elbowEdgeStyle&quot;,&quot;elbow&quot;:&quot;vertical&quot;,&quot;curved&quot;:0,&quot;rounded&quot;:0};" parent="70RkYLPMqeiG9e3OQrOJ-57" vertex="1">
          <mxGeometry x="61" y="100" width="10" height="330" as="geometry" />
        </mxCell>
        <mxCell id="70RkYLPMqeiG9e3OQrOJ-60" value="GetRoomId(userId)" style="html=1;verticalAlign=bottom;endArrow=block;edgeStyle=elbowEdgeStyle;elbow=vertical;curved=0;rounded=0;" parent="WIyWlLk6GJQsqaUBKTNV-1" source="70RkYLPMqeiG9e3OQrOJ-42" target="70RkYLPMqeiG9e3OQrOJ-50" edge="1">
          <mxGeometry width="80" relative="1" as="geometry">
            <mxPoint x="640" y="1830" as="sourcePoint" />
            <mxPoint x="720" y="1830" as="targetPoint" />
            <Array as="points">
              <mxPoint x="730" y="1790" />
            </Array>
          </mxGeometry>
        </mxCell>
        <mxCell id="70RkYLPMqeiG9e3OQrOJ-61" value="return roomId" style="html=1;verticalAlign=bottom;endArrow=open;dashed=1;endSize=8;edgeStyle=elbowEdgeStyle;elbow=vertical;curved=0;rounded=0;" parent="WIyWlLk6GJQsqaUBKTNV-1" source="70RkYLPMqeiG9e3OQrOJ-50" target="70RkYLPMqeiG9e3OQrOJ-42" edge="1">
          <mxGeometry relative="1" as="geometry">
            <mxPoint x="610" y="1730" as="sourcePoint" />
            <mxPoint x="530" y="1730" as="targetPoint" />
            <Array as="points">
              <mxPoint x="720" y="1810" />
            </Array>
          </mxGeometry>
        </mxCell>
        <mxCell id="70RkYLPMqeiG9e3OQrOJ-62" value="[link object and post]" style="text;html=1;align=center;verticalAlign=middle;resizable=0;points=[];autosize=1;strokeColor=none;fillColor=none;" parent="WIyWlLk6GJQsqaUBKTNV-1" vertex="1">
          <mxGeometry x="159" y="1730" width="130" height="30" as="geometry" />
        </mxCell>
        <mxCell id="70RkYLPMqeiG9e3OQrOJ-64" value="LinkPost(postId, objectId)" style="html=1;verticalAlign=bottom;endArrow=block;edgeStyle=elbowEdgeStyle;elbow=vertical;curved=0;rounded=0;" parent="WIyWlLk6GJQsqaUBKTNV-1" target="70RkYLPMqeiG9e3OQrOJ-42" edge="1">
          <mxGeometry width="80" relative="1" as="geometry">
            <mxPoint x="130.57999999999998" y="1770" as="sourcePoint" />
            <mxPoint x="210.57999999999998" y="1770" as="targetPoint" />
          </mxGeometry>
        </mxCell>
        <mxCell id="70RkYLPMqeiG9e3OQrOJ-54" value="opt" style="shape=umlFrame;whiteSpace=wrap;html=1;pointerEvents=0;" parent="WIyWlLk6GJQsqaUBKTNV-1" vertex="1">
          <mxGeometry x="105" y="1730" width="910" height="170" as="geometry" />
        </mxCell>
        <mxCell id="70RkYLPMqeiG9e3OQrOJ-66" value="SavePostObject(roomId, objectId, postId)" style="html=1;verticalAlign=bottom;endArrow=block;edgeStyle=elbowEdgeStyle;elbow=vertical;curved=0;rounded=0;" parent="WIyWlLk6GJQsqaUBKTNV-1" source="70RkYLPMqeiG9e3OQrOJ-42" target="70RkYLPMqeiG9e3OQrOJ-58" edge="1">
          <mxGeometry width="80" relative="1" as="geometry">
            <mxPoint x="672" y="1800" as="sourcePoint" />
            <mxPoint x="799" y="1800" as="targetPoint" />
            <Array as="points">
              <mxPoint x="720" y="1840" />
            </Array>
          </mxGeometry>
        </mxCell>
        <mxCell id="70RkYLPMqeiG9e3OQrOJ-67" value="return result" style="html=1;verticalAlign=bottom;endArrow=open;dashed=1;endSize=8;edgeStyle=elbowEdgeStyle;elbow=vertical;curved=0;rounded=0;" parent="WIyWlLk6GJQsqaUBKTNV-1" source="70RkYLPMqeiG9e3OQrOJ-58" target="70RkYLPMqeiG9e3OQrOJ-42" edge="1">
          <mxGeometry relative="1" as="geometry">
            <mxPoint x="620" y="1650" as="sourcePoint" />
            <mxPoint x="540" y="1650" as="targetPoint" />
            <Array as="points">
              <mxPoint x="810" y="1870" />
            </Array>
          </mxGeometry>
        </mxCell>
        <mxCell id="SFeLP2DOMXrLUii9xXlE-4" value="User" style="shape=umlActor;verticalLabelPosition=bottom;verticalAlign=top;html=1;outlineConnect=0;" parent="WIyWlLk6GJQsqaUBKTNV-1" vertex="1">
          <mxGeometry x="177" y="5812" width="30" height="60" as="geometry" />
        </mxCell>
        <mxCell id="SFeLP2DOMXrLUii9xXlE-5" value="" style="endArrow=none;dashed=1;html=1;rounded=0;" parent="WIyWlLk6GJQsqaUBKTNV-1" edge="1">
          <mxGeometry width="50" height="50" relative="1" as="geometry">
            <mxPoint x="191" y="6270" as="sourcePoint" />
            <mxPoint x="191" y="5900" as="targetPoint" />
          </mxGeometry>
        </mxCell>
        <mxCell id="SFeLP2DOMXrLUii9xXlE-7" value="sd Place Object" style="shape=umlFrame;whiteSpace=wrap;html=1;pointerEvents=0;width=140;height=30;" parent="WIyWlLk6GJQsqaUBKTNV-1" vertex="1">
          <mxGeometry x="60" y="5750" width="1000" height="540" as="geometry" />
        </mxCell>
        <mxCell id="SFeLP2DOMXrLUii9xXlE-8" value="MyRoomObject : Belong_Room_Object" style="shape=umlLifeline;perimeter=lifelinePerimeter;whiteSpace=wrap;html=1;container=0;dropTarget=0;collapsible=0;recursiveResize=0;outlineConnect=0;portConstraint=eastwest;newEdgeStyle={&quot;edgeStyle&quot;:&quot;elbowEdgeStyle&quot;,&quot;elbow&quot;:&quot;vertical&quot;,&quot;curved&quot;:0,&quot;rounded&quot;:0};" parent="WIyWlLk6GJQsqaUBKTNV-1" vertex="1">
          <mxGeometry x="364" y="5812" width="132" height="450" as="geometry" />
        </mxCell>
        <mxCell id="SFeLP2DOMXrLUii9xXlE-9" value="" style="html=1;points=[];perimeter=orthogonalPerimeter;outlineConnect=0;targetShapes=umlLifeline;portConstraint=eastwest;newEdgeStyle={&quot;edgeStyle&quot;:&quot;elbowEdgeStyle&quot;,&quot;elbow&quot;:&quot;vertical&quot;,&quot;curved&quot;:0,&quot;rounded&quot;:0};" parent="SFeLP2DOMXrLUii9xXlE-8" vertex="1">
          <mxGeometry x="60" y="118" width="10" height="312" as="geometry" />
        </mxCell>
        <mxCell id="qphNTlsPjm0YE57-EB-R-6" value="" style="endArrow=classic;html=1;rounded=0;" parent="SFeLP2DOMXrLUii9xXlE-8" target="qphNTlsPjm0YE57-EB-R-19" edge="1">
          <mxGeometry width="50" height="50" relative="1" as="geometry">
            <mxPoint x="70" y="134" as="sourcePoint" />
            <mxPoint x="70" y="214" as="targetPoint" />
            <Array as="points">
              <mxPoint x="96" y="134" />
              <mxPoint x="156" y="134" />
            </Array>
          </mxGeometry>
        </mxCell>
        <mxCell id="qphNTlsPjm0YE57-EB-R-22" value="ChangeObject(object)" style="edgeLabel;html=1;align=center;verticalAlign=middle;resizable=0;points=[];" parent="qphNTlsPjm0YE57-EB-R-6" vertex="1" connectable="0">
          <mxGeometry x="-0.13" y="-1" relative="1" as="geometry">
            <mxPoint as="offset" />
          </mxGeometry>
        </mxCell>
        <mxCell id="SFeLP2DOMXrLUii9xXlE-11" value="Operate MouseWheel(object)" style="html=1;verticalAlign=bottom;endArrow=block;edgeStyle=elbowEdgeStyle;elbow=vertical;curved=0;rounded=0;" parent="WIyWlLk6GJQsqaUBKTNV-1" target="SFeLP2DOMXrLUii9xXlE-8" edge="1">
          <mxGeometry x="0.0047" relative="1" as="geometry">
            <mxPoint x="190" y="5940" as="sourcePoint" />
            <Array as="points">
              <mxPoint x="385" y="5940" />
            </Array>
            <mxPoint x="675" y="5940" as="targetPoint" />
            <mxPoint as="offset" />
          </mxGeometry>
        </mxCell>
        <mxCell id="SFeLP2DOMXrLUii9xXlE-13" value=": MyRoomDB" style="shape=umlLifeline;perimeter=lifelinePerimeter;whiteSpace=wrap;html=1;container=0;dropTarget=0;collapsible=0;recursiveResize=0;outlineConnect=0;portConstraint=eastwest;newEdgeStyle={&quot;edgeStyle&quot;:&quot;elbowEdgeStyle&quot;,&quot;elbow&quot;:&quot;vertical&quot;,&quot;curved&quot;:0,&quot;rounded&quot;:0};" parent="WIyWlLk6GJQsqaUBKTNV-1" vertex="1">
          <mxGeometry x="860" y="5820" width="132" height="450" as="geometry" />
        </mxCell>
        <mxCell id="SFeLP2DOMXrLUii9xXlE-14" value="" style="html=1;points=[];perimeter=orthogonalPerimeter;outlineConnect=0;targetShapes=umlLifeline;portConstraint=eastwest;newEdgeStyle={&quot;edgeStyle&quot;:&quot;elbowEdgeStyle&quot;,&quot;elbow&quot;:&quot;vertical&quot;,&quot;curved&quot;:0,&quot;rounded&quot;:0};" parent="SFeLP2DOMXrLUii9xXlE-13" vertex="1">
          <mxGeometry x="60" y="178" width="10" height="59" as="geometry" />
        </mxCell>
        <mxCell id="qphNTlsPjm0YE57-EB-R-10" value="return result" style="html=1;verticalAlign=bottom;endArrow=open;dashed=1;endSize=8;edgeStyle=elbowEdgeStyle;elbow=vertical;curved=0;rounded=0;" parent="WIyWlLk6GJQsqaUBKTNV-1" edge="1">
          <mxGeometry relative="1" as="geometry">
            <mxPoint x="191" y="6060.09" as="targetPoint" />
            <Array as="points" />
            <mxPoint x="429" y="6060.09" as="sourcePoint" />
          </mxGeometry>
        </mxCell>
        <mxCell id="qphNTlsPjm0YE57-EB-R-12" value="" style="html=1;points=[];perimeter=orthogonalPerimeter;outlineConnect=0;targetShapes=umlLifeline;portConstraint=eastwest;newEdgeStyle={&quot;edgeStyle&quot;:&quot;elbowEdgeStyle&quot;,&quot;elbow&quot;:&quot;vertical&quot;,&quot;curved&quot;:0,&quot;rounded&quot;:0};" parent="WIyWlLk6GJQsqaUBKTNV-1" vertex="1">
          <mxGeometry x="920" y="6150" width="10" height="59" as="geometry" />
        </mxCell>
        <mxCell id="qphNTlsPjm0YE57-EB-R-16" value="Operate MouseClick(object)" style="html=1;verticalAlign=bottom;endArrow=block;edgeStyle=elbowEdgeStyle;elbow=vertical;curved=0;rounded=0;" parent="WIyWlLk6GJQsqaUBKTNV-1" edge="1">
          <mxGeometry x="0.0047" relative="1" as="geometry">
            <mxPoint x="189" y="6090" as="sourcePoint" />
            <Array as="points">
              <mxPoint x="384" y="6090" />
            </Array>
            <mxPoint x="429" y="6090" as="targetPoint" />
            <mxPoint as="offset" />
          </mxGeometry>
        </mxCell>
        <mxCell id="qphNTlsPjm0YE57-EB-R-18" value=": Collocate_Object" style="shape=umlLifeline;perimeter=lifelinePerimeter;whiteSpace=wrap;html=1;container=0;dropTarget=0;collapsible=0;recursiveResize=0;outlineConnect=0;portConstraint=eastwest;newEdgeStyle={&quot;edgeStyle&quot;:&quot;elbowEdgeStyle&quot;,&quot;elbow&quot;:&quot;vertical&quot;,&quot;curved&quot;:0,&quot;rounded&quot;:0};" parent="WIyWlLk6GJQsqaUBKTNV-1" vertex="1">
          <mxGeometry x="523" y="5810" width="132" height="450" as="geometry" />
        </mxCell>
        <mxCell id="qphNTlsPjm0YE57-EB-R-19" value="" style="html=1;points=[];perimeter=orthogonalPerimeter;outlineConnect=0;targetShapes=umlLifeline;portConstraint=eastwest;newEdgeStyle={&quot;edgeStyle&quot;:&quot;elbowEdgeStyle&quot;,&quot;elbow&quot;:&quot;vertical&quot;,&quot;curved&quot;:0,&quot;rounded&quot;:0};" parent="qphNTlsPjm0YE57-EB-R-18" vertex="1">
          <mxGeometry x="60" y="100" width="10" height="340" as="geometry" />
        </mxCell>
        <mxCell id="SFeLP2DOMXrLUii9xXlE-10" value="SaveObjects(roomId)" style="html=1;verticalAlign=bottom;endArrow=block;edgeStyle=elbowEdgeStyle;elbow=vertical;curved=0;rounded=0;" parent="WIyWlLk6GJQsqaUBKTNV-1" edge="1">
          <mxGeometry relative="1" as="geometry">
            <mxPoint x="429.590909090909" y="6008" as="sourcePoint" />
            <Array as="points">
              <mxPoint x="537" y="6008" />
            </Array>
            <mxPoint x="919.9999999999998" y="6008" as="targetPoint" />
            <mxPoint as="offset" />
          </mxGeometry>
        </mxCell>
        <mxCell id="SFeLP2DOMXrLUii9xXlE-22" value="return result" style="html=1;verticalAlign=bottom;endArrow=open;dashed=1;endSize=8;edgeStyle=elbowEdgeStyle;elbow=vertical;curved=0;rounded=0;" parent="WIyWlLk6GJQsqaUBKTNV-1" edge="1">
          <mxGeometry relative="1" as="geometry">
            <mxPoint x="429.590909090909" y="6047.727272727272" as="targetPoint" />
            <Array as="points" />
            <mxPoint x="920.5" y="6047.490000000001" as="sourcePoint" />
          </mxGeometry>
        </mxCell>
        <mxCell id="qphNTlsPjm0YE57-EB-R-23" value="return result" style="html=1;verticalAlign=bottom;endArrow=open;dashed=1;endSize=8;edgeStyle=elbowEdgeStyle;elbow=vertical;curved=0;rounded=0;" parent="WIyWlLk6GJQsqaUBKTNV-1" source="qphNTlsPjm0YE57-EB-R-19" edge="1">
          <mxGeometry relative="1" as="geometry">
            <mxPoint x="429.540909090909" y="5980.237272727272" as="targetPoint" />
            <Array as="points" />
            <mxPoint x="920.45" y="5980.000000000001" as="sourcePoint" />
          </mxGeometry>
        </mxCell>
        <mxCell id="qphNTlsPjm0YE57-EB-R-24" value="" style="endArrow=classic;html=1;rounded=0;" parent="WIyWlLk6GJQsqaUBKTNV-1" edge="1">
          <mxGeometry width="50" height="50" relative="1" as="geometry">
            <mxPoint x="432.73" y="6100" as="sourcePoint" />
            <mxPoint x="581.73" y="6100" as="targetPoint" />
            <Array as="points">
              <mxPoint x="458.73" y="6100" />
              <mxPoint x="518.73" y="6100" />
            </Array>
          </mxGeometry>
        </mxCell>
        <mxCell id="qphNTlsPjm0YE57-EB-R-25" value="ChangeLocation(object)" style="edgeLabel;html=1;align=center;verticalAlign=middle;resizable=0;points=[];" parent="qphNTlsPjm0YE57-EB-R-24" vertex="1" connectable="0">
          <mxGeometry x="-0.13" y="-1" relative="1" as="geometry">
            <mxPoint as="offset" />
          </mxGeometry>
        </mxCell>
        <mxCell id="qphNTlsPjm0YE57-EB-R-26" value="return result" style="html=1;verticalAlign=bottom;endArrow=open;dashed=1;endSize=8;edgeStyle=elbowEdgeStyle;elbow=vertical;curved=0;rounded=0;" parent="WIyWlLk6GJQsqaUBKTNV-1" edge="1">
          <mxGeometry relative="1" as="geometry">
            <mxPoint x="428.270909090909" y="6134.237272727272" as="targetPoint" />
            <Array as="points" />
            <mxPoint x="581.73" y="6134" as="sourcePoint" />
          </mxGeometry>
        </mxCell>
        <mxCell id="qphNTlsPjm0YE57-EB-R-11" value="SaveObjects(roomId)" style="html=1;verticalAlign=bottom;endArrow=block;edgeStyle=elbowEdgeStyle;elbow=vertical;curved=0;rounded=0;" parent="WIyWlLk6GJQsqaUBKTNV-1" edge="1">
          <mxGeometry relative="1" as="geometry">
            <mxPoint x="430" y="6160" as="sourcePoint" />
            <Array as="points">
              <mxPoint x="537" y="6160" />
            </Array>
            <mxPoint x="919.9999999999998" y="6160" as="targetPoint" />
            <mxPoint as="offset" />
          </mxGeometry>
        </mxCell>
        <mxCell id="qphNTlsPjm0YE57-EB-R-13" value="return result" style="html=1;verticalAlign=bottom;endArrow=open;dashed=1;endSize=8;edgeStyle=elbowEdgeStyle;elbow=vertical;curved=0;rounded=0;" parent="WIyWlLk6GJQsqaUBKTNV-1" edge="1">
          <mxGeometry relative="1" as="geometry">
            <mxPoint x="430" y="6200" as="targetPoint" />
            <Array as="points" />
            <mxPoint x="920.5" y="6199.490000000001" as="sourcePoint" />
          </mxGeometry>
        </mxCell>
        <mxCell id="qphNTlsPjm0YE57-EB-R-27" value="return result" style="html=1;verticalAlign=bottom;endArrow=open;dashed=1;endSize=8;edgeStyle=elbowEdgeStyle;elbow=vertical;curved=0;rounded=0;" parent="WIyWlLk6GJQsqaUBKTNV-1" edge="1">
          <mxGeometry relative="1" as="geometry">
            <mxPoint x="192" y="6217.09" as="targetPoint" />
            <Array as="points" />
            <mxPoint x="430" y="6217.09" as="sourcePoint" />
          </mxGeometry>
        </mxCell>
        <mxCell id="nB9c-g2lxoRYfgPW0xEW-0" value=":UserDB" style="shape=umlLifeline;perimeter=lifelinePerimeter;whiteSpace=wrap;html=1;container=0;dropTarget=0;collapsible=0;recursiveResize=0;outlineConnect=0;portConstraint=eastwest;newEdgeStyle={&quot;edgeStyle&quot;:&quot;elbowEdgeStyle&quot;,&quot;elbow&quot;:&quot;vertical&quot;,&quot;curved&quot;:0,&quot;rounded&quot;:0};" vertex="1" parent="WIyWlLk6GJQsqaUBKTNV-1">
          <mxGeometry x="1880" y="-1590" width="100" height="450" as="geometry" />
        </mxCell>
        <mxCell id="nB9c-g2lxoRYfgPW0xEW-1" value="" style="html=1;points=[];perimeter=orthogonalPerimeter;outlineConnect=0;targetShapes=umlLifeline;portConstraint=eastwest;newEdgeStyle={&quot;edgeStyle&quot;:&quot;elbowEdgeStyle&quot;,&quot;elbow&quot;:&quot;vertical&quot;,&quot;curved&quot;:0,&quot;rounded&quot;:0};" vertex="1" parent="nB9c-g2lxoRYfgPW0xEW-0">
          <mxGeometry x="45" y="70" width="10" height="340" as="geometry" />
        </mxCell>
        <mxCell id="nB9c-g2lxoRYfgPW0xEW-2" value=":UserManager" style="shape=umlLifeline;perimeter=lifelinePerimeter;whiteSpace=wrap;html=1;container=0;dropTarget=0;collapsible=0;recursiveResize=0;outlineConnect=0;portConstraint=eastwest;newEdgeStyle={&quot;edgeStyle&quot;:&quot;elbowEdgeStyle&quot;,&quot;elbow&quot;:&quot;vertical&quot;,&quot;curved&quot;:0,&quot;rounded&quot;:0};" vertex="1" parent="WIyWlLk6GJQsqaUBKTNV-1">
          <mxGeometry x="1710" y="-1589" width="100" height="450" as="geometry" />
        </mxCell>
        <mxCell id="nB9c-g2lxoRYfgPW0xEW-3" value="" style="html=1;points=[];perimeter=orthogonalPerimeter;outlineConnect=0;targetShapes=umlLifeline;portConstraint=eastwest;newEdgeStyle={&quot;edgeStyle&quot;:&quot;elbowEdgeStyle&quot;,&quot;elbow&quot;:&quot;vertical&quot;,&quot;curved&quot;:0,&quot;rounded&quot;:0};" vertex="1" parent="nB9c-g2lxoRYfgPW0xEW-2">
          <mxGeometry x="45" y="70" width="10" height="330" as="geometry" />
        </mxCell>
        <mxCell id="nB9c-g2lxoRYfgPW0xEW-5" value="Request(id, password)&amp;nbsp;" style="html=1;verticalAlign=bottom;endArrow=block;edgeStyle=elbowEdgeStyle;elbow=vertical;curved=0;rounded=0;" edge="1" parent="WIyWlLk6GJQsqaUBKTNV-1" target="nB9c-g2lxoRYfgPW0xEW-3">
          <mxGeometry x="0.0011" relative="1" as="geometry">
            <mxPoint x="1263" y="-1450" as="sourcePoint" />
            <Array as="points">
              <mxPoint x="1363" y="-1450" />
            </Array>
            <mxPoint x="1755" y="-1507" as="targetPoint" />
            <mxPoint as="offset" />
          </mxGeometry>
        </mxCell>
        <mxCell id="nB9c-g2lxoRYfgPW0xEW-6" value="User" style="shape=umlActor;verticalLabelPosition=bottom;verticalAlign=top;html=1;outlineConnect=0;" vertex="1" parent="WIyWlLk6GJQsqaUBKTNV-1">
          <mxGeometry x="1244" y="-1580" width="30" height="60" as="geometry" />
        </mxCell>
        <mxCell id="nB9c-g2lxoRYfgPW0xEW-7" value="" style="endArrow=none;dashed=1;html=1;rounded=0;" edge="1" parent="WIyWlLk6GJQsqaUBKTNV-1" target="nB9c-g2lxoRYfgPW0xEW-6">
          <mxGeometry width="50" height="50" relative="1" as="geometry">
            <mxPoint x="1258" y="-1140" as="sourcePoint" />
            <mxPoint x="1257.065952975741" y="-1470" as="targetPoint" />
          </mxGeometry>
        </mxCell>
        <mxCell id="nB9c-g2lxoRYfgPW0xEW-8" value="sd&amp;nbsp; Login" style="shape=umlFrame;whiteSpace=wrap;html=1;pointerEvents=0;width=220;height=40;" vertex="1" parent="WIyWlLk6GJQsqaUBKTNV-1">
          <mxGeometry x="1120" y="-1660" width="1000" height="540" as="geometry" />
        </mxCell>
        <mxCell id="nB9c-g2lxoRYfgPW0xEW-9" value="alt" style="shape=umlFrame;whiteSpace=wrap;html=1;pointerEvents=0;" vertex="1" parent="WIyWlLk6GJQsqaUBKTNV-1">
          <mxGeometry x="1235" y="-1370" width="575" height="155" as="geometry" />
        </mxCell>
        <mxCell id="nB9c-g2lxoRYfgPW0xEW-10" value="[valid user info]" style="text;html=1;align=center;verticalAlign=middle;resizable=0;points=[];autosize=1;strokeColor=none;fillColor=none;" vertex="1" parent="WIyWlLk6GJQsqaUBKTNV-1">
          <mxGeometry x="1293.58" y="-1420" width="100" height="30" as="geometry" />
        </mxCell>
        <mxCell id="nB9c-g2lxoRYfgPW0xEW-11" value="" style="endArrow=none;dashed=1;html=1;dashPattern=1 3;strokeWidth=2;rounded=0;exitX=-0.002;exitY=0.459;exitDx=0;exitDy=0;exitPerimeter=0;" edge="1" parent="WIyWlLk6GJQsqaUBKTNV-1">
          <mxGeometry width="50" height="50" relative="1" as="geometry">
            <mxPoint x="1233.48" y="-1276.855" as="sourcePoint" />
            <mxPoint x="1810" y="-1279" as="targetPoint" />
          </mxGeometry>
        </mxCell>
        <mxCell id="nB9c-g2lxoRYfgPW0xEW-12" value="CheckUserDB(id, password)" style="html=1;verticalAlign=bottom;endArrow=block;edgeStyle=elbowEdgeStyle;elbow=vertical;curved=0;rounded=0;" edge="1" parent="WIyWlLk6GJQsqaUBKTNV-1">
          <mxGeometry width="80" relative="1" as="geometry">
            <mxPoint x="1765" y="-1426" as="sourcePoint" />
            <mxPoint x="1925" y="-1426" as="targetPoint" />
            <Array as="points">
              <mxPoint x="1830" y="-1426" />
              <mxPoint x="1853" y="-1406" />
            </Array>
          </mxGeometry>
        </mxCell>
        <mxCell id="nB9c-g2lxoRYfgPW0xEW-13" value="return success" style="html=1;verticalAlign=bottom;endArrow=open;dashed=1;endSize=8;edgeStyle=elbowEdgeStyle;elbow=vertical;curved=0;rounded=0;" edge="1" parent="WIyWlLk6GJQsqaUBKTNV-1">
          <mxGeometry relative="1" as="geometry">
            <mxPoint x="1755" y="-1303" as="sourcePoint" />
            <mxPoint x="1263" y="-1303" as="targetPoint" />
            <Array as="points">
              <mxPoint x="1473" y="-1303" />
            </Array>
          </mxGeometry>
        </mxCell>
        <mxCell id="nB9c-g2lxoRYfgPW0xEW-14" value="return failure" style="html=1;verticalAlign=bottom;endArrow=open;dashed=1;endSize=8;edgeStyle=elbowEdgeStyle;elbow=vertical;curved=0;rounded=0;" edge="1" parent="WIyWlLk6GJQsqaUBKTNV-1">
          <mxGeometry relative="1" as="geometry">
            <mxPoint x="1755" y="-1233.7058823529412" as="sourcePoint" />
            <mxPoint x="1260" y="-1234" as="targetPoint" />
          </mxGeometry>
        </mxCell>
        <mxCell id="nB9c-g2lxoRYfgPW0xEW-15" value="[Access user login]" style="text;html=1;align=center;verticalAlign=middle;resizable=0;points=[];autosize=1;strokeColor=none;fillColor=none;" vertex="1" parent="WIyWlLk6GJQsqaUBKTNV-1">
          <mxGeometry x="1288.58" y="-1370" width="120" height="30" as="geometry" />
        </mxCell>
        <mxCell id="nB9c-g2lxoRYfgPW0xEW-16" value="loop [until return success]" style="shape=umlFrame;whiteSpace=wrap;html=1;pointerEvents=0;width=150;height=30;" vertex="1" parent="WIyWlLk6GJQsqaUBKTNV-1">
          <mxGeometry x="1223" y="-1490" width="800" height="290" as="geometry" />
        </mxCell>
        <mxCell id="nB9c-g2lxoRYfgPW0xEW-17" value="return result" style="html=1;verticalAlign=bottom;endArrow=open;dashed=1;endSize=8;edgeStyle=elbowEdgeStyle;elbow=vertical;curved=0;rounded=0;" edge="1" parent="WIyWlLk6GJQsqaUBKTNV-1" source="nB9c-g2lxoRYfgPW0xEW-1">
          <mxGeometry relative="1" as="geometry">
            <mxPoint x="1920" y="-1387.18" as="sourcePoint" />
            <mxPoint x="1763" y="-1396" as="targetPoint" />
            <Array as="points">
              <mxPoint x="1848" y="-1396" />
            </Array>
          </mxGeometry>
        </mxCell>
        <mxCell id="nB9c-g2lxoRYfgPW0xEW-35" value=":UserManager" style="shape=umlLifeline;perimeter=lifelinePerimeter;whiteSpace=wrap;html=1;container=0;dropTarget=0;collapsible=0;recursiveResize=0;outlineConnect=0;portConstraint=eastwest;newEdgeStyle={&quot;edgeStyle&quot;:&quot;elbowEdgeStyle&quot;,&quot;elbow&quot;:&quot;vertical&quot;,&quot;curved&quot;:0,&quot;rounded&quot;:0};" vertex="1" parent="WIyWlLk6GJQsqaUBKTNV-1">
          <mxGeometry x="1713" y="-999" width="100" height="450" as="geometry" />
        </mxCell>
        <mxCell id="nB9c-g2lxoRYfgPW0xEW-36" value="" style="html=1;points=[];perimeter=orthogonalPerimeter;outlineConnect=0;targetShapes=umlLifeline;portConstraint=eastwest;newEdgeStyle={&quot;edgeStyle&quot;:&quot;elbowEdgeStyle&quot;,&quot;elbow&quot;:&quot;vertical&quot;,&quot;curved&quot;:0,&quot;rounded&quot;:0};" vertex="1" parent="nB9c-g2lxoRYfgPW0xEW-35">
          <mxGeometry x="45" y="70" width="10" height="330" as="geometry" />
        </mxCell>
        <mxCell id="nB9c-g2lxoRYfgPW0xEW-37" value="VerifyUser(email, password)" style="html=1;verticalAlign=bottom;endArrow=block;edgeStyle=elbowEdgeStyle;elbow=vertical;curved=0;rounded=0;" edge="1" parent="WIyWlLk6GJQsqaUBKTNV-1">
          <mxGeometry x="0.0011" relative="1" as="geometry">
            <mxPoint x="1260" y="-827.18" as="sourcePoint" />
            <Array as="points">
              <mxPoint x="1455" y="-827.18" />
            </Array>
            <mxPoint x="1758" y="-827.1799999999998" as="targetPoint" />
            <mxPoint as="offset" />
          </mxGeometry>
        </mxCell>
        <mxCell id="nB9c-g2lxoRYfgPW0xEW-38" value="User" style="shape=umlActor;verticalLabelPosition=bottom;verticalAlign=top;html=1;outlineConnect=0;" vertex="1" parent="WIyWlLk6GJQsqaUBKTNV-1">
          <mxGeometry x="1247" y="-990" width="30" height="60" as="geometry" />
        </mxCell>
        <mxCell id="nB9c-g2lxoRYfgPW0xEW-39" value="" style="endArrow=none;dashed=1;html=1;rounded=0;" edge="1" parent="WIyWlLk6GJQsqaUBKTNV-1" target="nB9c-g2lxoRYfgPW0xEW-38">
          <mxGeometry width="50" height="50" relative="1" as="geometry">
            <mxPoint x="1261" y="-550" as="sourcePoint" />
            <mxPoint x="1260.065952975741" y="-880" as="targetPoint" />
          </mxGeometry>
        </mxCell>
        <mxCell id="nB9c-g2lxoRYfgPW0xEW-40" value="SendConfirmationMessage" style="html=1;verticalAlign=bottom;endArrow=open;dashed=1;endSize=8;edgeStyle=elbowEdgeStyle;elbow=vertical;curved=0;rounded=0;" edge="1" parent="WIyWlLk6GJQsqaUBKTNV-1">
          <mxGeometry x="0.001" relative="1" as="geometry">
            <mxPoint x="1260" y="-752" as="targetPoint" />
            <Array as="points">
              <mxPoint x="1465" y="-752" />
            </Array>
            <mxPoint x="1759.5" y="-752" as="sourcePoint" />
            <mxPoint as="offset" />
          </mxGeometry>
        </mxCell>
        <mxCell id="nB9c-g2lxoRYfgPW0xEW-41" value=":UserDB" style="shape=umlLifeline;perimeter=lifelinePerimeter;whiteSpace=wrap;html=1;container=0;dropTarget=0;collapsible=0;recursiveResize=0;outlineConnect=0;portConstraint=eastwest;newEdgeStyle={&quot;edgeStyle&quot;:&quot;elbowEdgeStyle&quot;,&quot;elbow&quot;:&quot;vertical&quot;,&quot;curved&quot;:0,&quot;rounded&quot;:0};" vertex="1" parent="WIyWlLk6GJQsqaUBKTNV-1">
          <mxGeometry x="1883" y="-1000" width="100" height="450" as="geometry" />
        </mxCell>
        <mxCell id="nB9c-g2lxoRYfgPW0xEW-42" value="" style="html=1;points=[];perimeter=orthogonalPerimeter;outlineConnect=0;targetShapes=umlLifeline;portConstraint=eastwest;newEdgeStyle={&quot;edgeStyle&quot;:&quot;elbowEdgeStyle&quot;,&quot;elbow&quot;:&quot;vertical&quot;,&quot;curved&quot;:0,&quot;rounded&quot;:0};" vertex="1" parent="nB9c-g2lxoRYfgPW0xEW-41">
          <mxGeometry x="45" y="70" width="10" height="300" as="geometry" />
        </mxCell>
        <mxCell id="nB9c-g2lxoRYfgPW0xEW-43" value="sd Withdraw&amp;nbsp;membership" style="shape=umlFrame;whiteSpace=wrap;html=1;pointerEvents=0;width=220;height=40;" vertex="1" parent="WIyWlLk6GJQsqaUBKTNV-1">
          <mxGeometry x="1123" y="-1070" width="1000" height="540" as="geometry" />
        </mxCell>
        <mxCell id="nB9c-g2lxoRYfgPW0xEW-44" value="return success" style="html=1;verticalAlign=bottom;endArrow=open;dashed=1;endSize=8;edgeStyle=elbowEdgeStyle;elbow=vertical;curved=0;rounded=0;" edge="1" parent="WIyWlLk6GJQsqaUBKTNV-1">
          <mxGeometry relative="1" as="geometry">
            <mxPoint x="1768" y="-775" as="targetPoint" />
            <Array as="points">
              <mxPoint x="1843" y="-775" />
            </Array>
            <mxPoint x="1928" y="-775" as="sourcePoint" />
          </mxGeometry>
        </mxCell>
        <mxCell id="nB9c-g2lxoRYfgPW0xEW-45" value="RequestWithdrawal()" style="html=1;verticalAlign=bottom;endArrow=block;edgeStyle=elbowEdgeStyle;elbow=vertical;curved=0;rounded=0;" edge="1" parent="WIyWlLk6GJQsqaUBKTNV-1">
          <mxGeometry relative="1" as="geometry">
            <mxPoint x="1263" y="-890" as="sourcePoint" />
            <Array as="points">
              <mxPoint x="1472" y="-890" />
            </Array>
            <mxPoint x="1762" y="-890" as="targetPoint" />
          </mxGeometry>
        </mxCell>
        <mxCell id="nB9c-g2lxoRYfgPW0xEW-51" value="return succes" style="html=1;verticalAlign=bottom;endArrow=open;dashed=1;endSize=8;edgeStyle=elbowEdgeStyle;elbow=vertical;curved=0;rounded=0;" edge="1" parent="WIyWlLk6GJQsqaUBKTNV-1">
          <mxGeometry x="0.001" relative="1" as="geometry">
            <mxPoint x="1261" y="-686" as="targetPoint" />
            <Array as="points">
              <mxPoint x="1466" y="-686" />
            </Array>
            <mxPoint x="1760.5" y="-686" as="sourcePoint" />
            <mxPoint as="offset" />
          </mxGeometry>
        </mxCell>
        <mxCell id="nB9c-g2lxoRYfgPW0xEW-52" value="DeleteUserDB(id, email, password, name, gender, age)" style="html=1;verticalAlign=bottom;endArrow=block;edgeStyle=elbowEdgeStyle;elbow=vertical;curved=0;rounded=0;" edge="1" parent="WIyWlLk6GJQsqaUBKTNV-1">
          <mxGeometry width="80" relative="1" as="geometry">
            <mxPoint x="1768" y="-654" as="sourcePoint" />
            <mxPoint x="1928" y="-654" as="targetPoint" />
            <Array as="points">
              <mxPoint x="1848" y="-654" />
            </Array>
          </mxGeometry>
        </mxCell>
        <mxCell id="nB9c-g2lxoRYfgPW0xEW-53" value="CheckUserDB(email, password)" style="html=1;verticalAlign=bottom;endArrow=block;edgeStyle=elbowEdgeStyle;elbow=vertical;curved=0;rounded=0;" edge="1" parent="WIyWlLk6GJQsqaUBKTNV-1">
          <mxGeometry width="80" relative="1" as="geometry">
            <mxPoint x="1768" y="-805" as="sourcePoint" />
            <mxPoint x="1928" y="-805" as="targetPoint" />
            <Array as="points">
              <mxPoint x="1848" y="-805" />
            </Array>
          </mxGeometry>
        </mxCell>
        <mxCell id="nB9c-g2lxoRYfgPW0xEW-54" value="RequestforIdentification()" style="html=1;verticalAlign=bottom;endArrow=open;dashed=1;endSize=8;edgeStyle=elbowEdgeStyle;elbow=vertical;curved=0;rounded=0;" edge="1" parent="WIyWlLk6GJQsqaUBKTNV-1">
          <mxGeometry x="0.001" relative="1" as="geometry">
            <mxPoint x="1260" y="-860" as="targetPoint" />
            <Array as="points">
              <mxPoint x="1465" y="-860" />
            </Array>
            <mxPoint x="1759.5" y="-860" as="sourcePoint" />
            <mxPoint as="offset" />
          </mxGeometry>
        </mxCell>
        <mxCell id="nB9c-g2lxoRYfgPW0xEW-55" value="AcceptMessage" style="html=1;verticalAlign=bottom;endArrow=block;edgeStyle=elbowEdgeStyle;elbow=vertical;curved=0;rounded=0;" edge="1" parent="WIyWlLk6GJQsqaUBKTNV-1">
          <mxGeometry x="0.0011" relative="1" as="geometry">
            <mxPoint x="1260" y="-722" as="sourcePoint" />
            <Array as="points">
              <mxPoint x="1455" y="-722" />
            </Array>
            <mxPoint x="1758" y="-721.9999999999998" as="targetPoint" />
            <mxPoint as="offset" />
          </mxGeometry>
        </mxCell>
        <mxCell id="nB9c-g2lxoRYfgPW0xEW-56" value="return success" style="html=1;verticalAlign=bottom;endArrow=open;dashed=1;endSize=8;edgeStyle=elbowEdgeStyle;elbow=vertical;curved=0;rounded=0;" edge="1" parent="WIyWlLk6GJQsqaUBKTNV-1">
          <mxGeometry relative="1" as="geometry">
            <mxPoint x="1768" y="-635" as="targetPoint" />
            <Array as="points">
              <mxPoint x="1843" y="-635" />
            </Array>
            <mxPoint x="1928" y="-635" as="sourcePoint" />
          </mxGeometry>
        </mxCell>
        <mxCell id="nB9c-g2lxoRYfgPW0xEW-57" value="RequestModification()" style="html=1;verticalAlign=bottom;endArrow=block;edgeStyle=elbowEdgeStyle;elbow=vertical;curved=0;rounded=0;" edge="1" parent="WIyWlLk6GJQsqaUBKTNV-1">
          <mxGeometry relative="1" as="geometry">
            <mxPoint x="175" y="-899" as="sourcePoint" />
            <Array as="points">
              <mxPoint x="384" y="-899" />
            </Array>
            <mxPoint x="674" y="-899" as="targetPoint" />
          </mxGeometry>
        </mxCell>
        <mxCell id="nB9c-g2lxoRYfgPW0xEW-58" value="RequestforIdentification()" style="html=1;verticalAlign=bottom;endArrow=open;dashed=1;endSize=8;edgeStyle=elbowEdgeStyle;elbow=vertical;curved=0;rounded=0;" edge="1" parent="WIyWlLk6GJQsqaUBKTNV-1">
          <mxGeometry x="0.001" relative="1" as="geometry">
            <mxPoint x="173" y="-879" as="targetPoint" />
            <Array as="points">
              <mxPoint x="378" y="-879" />
            </Array>
            <mxPoint x="672.5" y="-879" as="sourcePoint" />
            <mxPoint as="offset" />
          </mxGeometry>
        </mxCell>
        <mxCell id="nB9c-g2lxoRYfgPW0xEW-60" value="SendApprovalMessage" style="html=1;verticalAlign=bottom;endArrow=open;dashed=1;endSize=8;edgeStyle=elbowEdgeStyle;elbow=vertical;curved=0;rounded=0;" edge="1" parent="WIyWlLk6GJQsqaUBKTNV-1">
          <mxGeometry x="0.001" relative="1" as="geometry">
            <mxPoint x="173" y="-754.71" as="targetPoint" />
            <Array as="points">
              <mxPoint x="378" y="-754.71" />
            </Array>
            <mxPoint x="672.5" y="-754.71" as="sourcePoint" />
            <mxPoint as="offset" />
          </mxGeometry>
        </mxCell>
        <mxCell id="nB9c-g2lxoRYfgPW0xEW-61" value="" style="shape=umlLifeline;perimeter=lifelinePerimeter;whiteSpace=wrap;html=1;container=1;dropTarget=0;collapsible=0;recursiveResize=0;outlineConnect=0;portConstraint=eastwest;newEdgeStyle={&quot;edgeStyle&quot;:&quot;elbowEdgeStyle&quot;,&quot;elbow&quot;:&quot;vertical&quot;,&quot;curved&quot;:0,&quot;rounded&quot;:0};participant=umlActor;size=60;" vertex="1" parent="WIyWlLk6GJQsqaUBKTNV-1">
          <mxGeometry x="1780" y="-405" width="30" height="360" as="geometry" />
        </mxCell>
        <mxCell id="nB9c-g2lxoRYfgPW0xEW-62" value=": Connect_User" style="shape=umlLifeline;perimeter=lifelinePerimeter;whiteSpace=wrap;html=1;container=0;dropTarget=0;collapsible=0;recursiveResize=0;outlineConnect=0;portConstraint=eastwest;newEdgeStyle={&quot;edgeStyle&quot;:&quot;elbowEdgeStyle&quot;,&quot;elbow&quot;:&quot;vertical&quot;,&quot;curved&quot;:0,&quot;rounded&quot;:0};" vertex="1" parent="WIyWlLk6GJQsqaUBKTNV-1">
          <mxGeometry x="1366" y="-410" width="100" height="370" as="geometry" />
        </mxCell>
        <mxCell id="nB9c-g2lxoRYfgPW0xEW-63" value="" style="html=1;points=[];perimeter=orthogonalPerimeter;outlineConnect=0;targetShapes=umlLifeline;portConstraint=eastwest;newEdgeStyle={&quot;edgeStyle&quot;:&quot;elbowEdgeStyle&quot;,&quot;elbow&quot;:&quot;vertical&quot;,&quot;curved&quot;:0,&quot;rounded&quot;:0};" vertex="1" parent="nB9c-g2lxoRYfgPW0xEW-62">
          <mxGeometry x="45" y="70" width="10" height="200" as="geometry" />
        </mxCell>
        <mxCell id="nB9c-g2lxoRYfgPW0xEW-64" value="User" style="shape=umlActor;verticalLabelPosition=bottom;verticalAlign=top;html=1;outlineConnect=0;" vertex="1" parent="WIyWlLk6GJQsqaUBKTNV-1">
          <mxGeometry x="1244" y="-400" width="30" height="60" as="geometry" />
        </mxCell>
        <mxCell id="nB9c-g2lxoRYfgPW0xEW-65" value="" style="endArrow=none;dashed=1;html=1;rounded=0;" edge="1" parent="WIyWlLk6GJQsqaUBKTNV-1" target="nB9c-g2lxoRYfgPW0xEW-64">
          <mxGeometry width="50" height="50" relative="1" as="geometry">
            <mxPoint x="1258" y="-40" as="sourcePoint" />
            <mxPoint x="1257.065952975741" y="-290" as="targetPoint" />
          </mxGeometry>
        </mxCell>
        <mxCell id="nB9c-g2lxoRYfgPW0xEW-67" value=":FriendDB" style="shape=umlLifeline;perimeter=lifelinePerimeter;whiteSpace=wrap;html=1;container=0;dropTarget=0;collapsible=0;recursiveResize=0;outlineConnect=0;portConstraint=eastwest;newEdgeStyle={&quot;edgeStyle&quot;:&quot;elbowEdgeStyle&quot;,&quot;elbow&quot;:&quot;vertical&quot;,&quot;curved&quot;:0,&quot;rounded&quot;:0};" vertex="1" parent="WIyWlLk6GJQsqaUBKTNV-1">
          <mxGeometry x="1880" y="-410" width="100" height="370" as="geometry" />
        </mxCell>
        <mxCell id="nB9c-g2lxoRYfgPW0xEW-68" value="" style="html=1;points=[];perimeter=orthogonalPerimeter;outlineConnect=0;targetShapes=umlLifeline;portConstraint=eastwest;newEdgeStyle={&quot;edgeStyle&quot;:&quot;elbowEdgeStyle&quot;,&quot;elbow&quot;:&quot;vertical&quot;,&quot;curved&quot;:0,&quot;rounded&quot;:0};" vertex="1" parent="nB9c-g2lxoRYfgPW0xEW-67">
          <mxGeometry x="45" y="70" width="10" height="200" as="geometry" />
        </mxCell>
        <mxCell id="nB9c-g2lxoRYfgPW0xEW-69" value="sd Manage Friend" style="shape=umlFrame;whiteSpace=wrap;html=1;pointerEvents=0;width=140;height=30;" vertex="1" parent="WIyWlLk6GJQsqaUBKTNV-1">
          <mxGeometry x="1120" y="-480" width="1000" height="470" as="geometry" />
        </mxCell>
        <mxCell id="nB9c-g2lxoRYfgPW0xEW-71" value="Add Friend" style="rounded=0;whiteSpace=wrap;html=1;" vertex="1" parent="WIyWlLk6GJQsqaUBKTNV-1">
          <mxGeometry x="1244" y="-315" width="721" height="50" as="geometry" />
        </mxCell>
        <mxCell id="nB9c-g2lxoRYfgPW0xEW-72" value="ref" style="shape=umlFrame;whiteSpace=wrap;html=1;pointerEvents=0;" vertex="1" parent="WIyWlLk6GJQsqaUBKTNV-1">
          <mxGeometry x="1244" y="-315" width="721" height="50" as="geometry" />
        </mxCell>
        <mxCell id="nB9c-g2lxoRYfgPW0xEW-73" value="Other&lt;br&gt;User" style="text;html=1;align=center;verticalAlign=middle;resizable=0;points=[];autosize=1;strokeColor=none;fillColor=none;" vertex="1" parent="WIyWlLk6GJQsqaUBKTNV-1">
          <mxGeometry x="1770" y="-360" width="50" height="40" as="geometry" />
        </mxCell>
        <mxCell id="nB9c-g2lxoRYfgPW0xEW-83" value="Delete Friend" style="rounded=0;whiteSpace=wrap;html=1;" vertex="1" parent="WIyWlLk6GJQsqaUBKTNV-1">
          <mxGeometry x="1244" y="-255" width="721" height="50" as="geometry" />
        </mxCell>
        <mxCell id="nB9c-g2lxoRYfgPW0xEW-84" value="ref" style="shape=umlFrame;whiteSpace=wrap;html=1;pointerEvents=0;" vertex="1" parent="WIyWlLk6GJQsqaUBKTNV-1">
          <mxGeometry x="1244" y="-255" width="721" height="50" as="geometry" />
        </mxCell>
        <mxCell id="nB9c-g2lxoRYfgPW0xEW-85" value="Find Friend" style="rounded=0;whiteSpace=wrap;html=1;" vertex="1" parent="WIyWlLk6GJQsqaUBKTNV-1">
          <mxGeometry x="1244" y="-195" width="721" height="50" as="geometry" />
        </mxCell>
        <mxCell id="nB9c-g2lxoRYfgPW0xEW-86" value="ref" style="shape=umlFrame;whiteSpace=wrap;html=1;pointerEvents=0;" vertex="1" parent="WIyWlLk6GJQsqaUBKTNV-1">
          <mxGeometry x="1244" y="-195" width="721" height="50" as="geometry" />
        </mxCell>
        <mxCell id="nB9c-g2lxoRYfgPW0xEW-99" value="" style="html=1;points=[];perimeter=orthogonalPerimeter;outlineConnect=0;targetShapes=umlLifeline;portConstraint=eastwest;newEdgeStyle={&quot;edgeStyle&quot;:&quot;elbowEdgeStyle&quot;,&quot;elbow&quot;:&quot;vertical&quot;,&quot;curved&quot;:0,&quot;rounded&quot;:0};" vertex="1" parent="WIyWlLk6GJQsqaUBKTNV-1">
          <mxGeometry x="324" y="4120" width="10" height="90" as="geometry" />
        </mxCell>
        <mxCell id="nB9c-g2lxoRYfgPW0xEW-100" value="FindObject(objectId)" style="html=1;verticalAlign=bottom;endArrow=block;edgeStyle=elbowEdgeStyle;elbow=vertical;curved=0;rounded=0;" edge="1" parent="WIyWlLk6GJQsqaUBKTNV-1">
          <mxGeometry relative="1" as="geometry">
            <mxPoint x="174" y="4124" as="sourcePoint" />
            <Array as="points" />
            <mxPoint x="330" y="4124" as="targetPoint" />
          </mxGeometry>
        </mxCell>
        <mxCell id="nB9c-g2lxoRYfgPW0xEW-101" value="return&amp;nbsp; object" style="html=1;verticalAlign=bottom;endArrow=open;dashed=1;endSize=8;edgeStyle=elbowEdgeStyle;elbow=vertical;curved=0;rounded=0;" edge="1" parent="WIyWlLk6GJQsqaUBKTNV-1">
          <mxGeometry relative="1" as="geometry">
            <mxPoint x="174" y="4208.24" as="targetPoint" />
            <Array as="points" />
            <mxPoint x="324" y="4208.12" as="sourcePoint" />
          </mxGeometry>
        </mxCell>
        <mxCell id="nB9c-g2lxoRYfgPW0xEW-102" value="" style="html=1;points=[];perimeter=orthogonalPerimeter;outlineConnect=0;targetShapes=umlLifeline;portConstraint=eastwest;newEdgeStyle={&quot;edgeStyle&quot;:&quot;elbowEdgeStyle&quot;,&quot;elbow&quot;:&quot;vertical&quot;,&quot;curved&quot;:0,&quot;rounded&quot;:0};" vertex="1" parent="WIyWlLk6GJQsqaUBKTNV-1">
          <mxGeometry x="539" y="4139.5" width="10" height="38" as="geometry" />
        </mxCell>
        <mxCell id="nB9c-g2lxoRYfgPW0xEW-103" value="SearchObject(objectId)" style="html=1;verticalAlign=bottom;endArrow=block;edgeStyle=elbowEdgeStyle;elbow=vertical;curved=0;rounded=0;" edge="1" parent="WIyWlLk6GJQsqaUBKTNV-1">
          <mxGeometry relative="1" as="geometry">
            <mxPoint x="335" y="4144" as="sourcePoint" />
            <Array as="points">
              <mxPoint x="520" y="4144" />
            </Array>
            <mxPoint x="543" y="4144" as="targetPoint" />
          </mxGeometry>
        </mxCell>
        <mxCell id="nB9c-g2lxoRYfgPW0xEW-104" value="return object" style="html=1;verticalAlign=bottom;endArrow=open;dashed=1;endSize=8;edgeStyle=elbowEdgeStyle;elbow=vertical;curved=0;rounded=0;" edge="1" parent="WIyWlLk6GJQsqaUBKTNV-1">
          <mxGeometry relative="1" as="geometry">
            <mxPoint x="333" y="4170" as="targetPoint" />
            <Array as="points" />
            <mxPoint x="542.5" y="4170.470588235294" as="sourcePoint" />
          </mxGeometry>
        </mxCell>
        <mxCell id="nB9c-g2lxoRYfgPW0xEW-105" value="User" style="shape=umlActor;verticalLabelPosition=bottom;verticalAlign=top;html=1;outlineConnect=0;" vertex="1" parent="WIyWlLk6GJQsqaUBKTNV-1">
          <mxGeometry x="1217" y="2148" width="30" height="60" as="geometry" />
        </mxCell>
        <mxCell id="nB9c-g2lxoRYfgPW0xEW-106" value="" style="endArrow=none;dashed=1;html=1;rounded=0;" edge="1" parent="WIyWlLk6GJQsqaUBKTNV-1">
          <mxGeometry width="50" height="50" relative="1" as="geometry">
            <mxPoint x="1231" y="2460" as="sourcePoint" />
            <mxPoint x="1231" y="2236" as="targetPoint" />
          </mxGeometry>
        </mxCell>
        <mxCell id="nB9c-g2lxoRYfgPW0xEW-107" value=": Write_Post" style="shape=umlLifeline;perimeter=lifelinePerimeter;whiteSpace=wrap;html=1;container=0;dropTarget=0;collapsible=0;recursiveResize=0;outlineConnect=0;portConstraint=eastwest;newEdgeStyle={&quot;edgeStyle&quot;:&quot;elbowEdgeStyle&quot;,&quot;elbow&quot;:&quot;vertical&quot;,&quot;curved&quot;:0,&quot;rounded&quot;:0};" vertex="1" parent="WIyWlLk6GJQsqaUBKTNV-1">
          <mxGeometry x="1533" y="2156" width="132" height="314" as="geometry" />
        </mxCell>
        <mxCell id="nB9c-g2lxoRYfgPW0xEW-108" value="sd Write Post" style="shape=umlFrame;whiteSpace=wrap;html=1;pointerEvents=0;width=140;height=30;" vertex="1" parent="WIyWlLk6GJQsqaUBKTNV-1">
          <mxGeometry x="1100" y="2086" width="1000" height="414" as="geometry" />
        </mxCell>
        <mxCell id="nB9c-g2lxoRYfgPW0xEW-109" value="MyRoomObject : Belong_Room_Object" style="shape=umlLifeline;perimeter=lifelinePerimeter;whiteSpace=wrap;html=1;container=0;dropTarget=0;collapsible=0;recursiveResize=0;outlineConnect=0;portConstraint=eastwest;newEdgeStyle={&quot;edgeStyle&quot;:&quot;elbowEdgeStyle&quot;,&quot;elbow&quot;:&quot;vertical&quot;,&quot;curved&quot;:0,&quot;rounded&quot;:0};" vertex="1" parent="WIyWlLk6GJQsqaUBKTNV-1">
          <mxGeometry x="1320" y="2156" width="132" height="314" as="geometry" />
        </mxCell>
        <mxCell id="nB9c-g2lxoRYfgPW0xEW-110" value="" style="html=1;points=[];perimeter=orthogonalPerimeter;outlineConnect=0;targetShapes=umlLifeline;portConstraint=eastwest;newEdgeStyle={&quot;edgeStyle&quot;:&quot;elbowEdgeStyle&quot;,&quot;elbow&quot;:&quot;vertical&quot;,&quot;curved&quot;:0,&quot;rounded&quot;:0};" vertex="1" parent="nB9c-g2lxoRYfgPW0xEW-109">
          <mxGeometry x="60" y="100" width="10" height="200" as="geometry" />
        </mxCell>
        <mxCell id="nB9c-g2lxoRYfgPW0xEW-112" value="" style="html=1;points=[];perimeter=orthogonalPerimeter;outlineConnect=0;targetShapes=umlLifeline;portConstraint=eastwest;newEdgeStyle={&quot;edgeStyle&quot;:&quot;elbowEdgeStyle&quot;,&quot;elbow&quot;:&quot;vertical&quot;,&quot;curved&quot;:0,&quot;rounded&quot;:0};" vertex="1" parent="WIyWlLk6GJQsqaUBKTNV-1">
          <mxGeometry x="1595" y="2260" width="10" height="200" as="geometry" />
        </mxCell>
        <mxCell id="nB9c-g2lxoRYfgPW0xEW-115" value=": PostDB" style="shape=umlLifeline;perimeter=lifelinePerimeter;whiteSpace=wrap;html=1;container=0;dropTarget=0;collapsible=0;recursiveResize=0;outlineConnect=0;portConstraint=eastwest;newEdgeStyle={&quot;edgeStyle&quot;:&quot;elbowEdgeStyle&quot;,&quot;elbow&quot;:&quot;vertical&quot;,&quot;curved&quot;:0,&quot;rounded&quot;:0};" vertex="1" parent="WIyWlLk6GJQsqaUBKTNV-1">
          <mxGeometry x="1710" y="2156" width="132" height="314" as="geometry" />
        </mxCell>
        <mxCell id="nB9c-g2lxoRYfgPW0xEW-116" value="" style="html=1;points=[];perimeter=orthogonalPerimeter;outlineConnect=0;targetShapes=umlLifeline;portConstraint=eastwest;newEdgeStyle={&quot;edgeStyle&quot;:&quot;elbowEdgeStyle&quot;,&quot;elbow&quot;:&quot;vertical&quot;,&quot;curved&quot;:0,&quot;rounded&quot;:0};" vertex="1" parent="nB9c-g2lxoRYfgPW0xEW-115">
          <mxGeometry x="61" y="100" width="10" height="200" as="geometry" />
        </mxCell>
        <mxCell id="nB9c-g2lxoRYfgPW0xEW-124" value="Edit Friend" style="rounded=0;whiteSpace=wrap;html=1;" vertex="1" parent="WIyWlLk6GJQsqaUBKTNV-1">
          <mxGeometry x="1200" y="2380" width="721" height="50" as="geometry" />
        </mxCell>
        <mxCell id="nB9c-g2lxoRYfgPW0xEW-125" value="ref" style="shape=umlFrame;whiteSpace=wrap;html=1;pointerEvents=0;" vertex="1" parent="WIyWlLk6GJQsqaUBKTNV-1">
          <mxGeometry x="1200" y="2380" width="721" height="50" as="geometry" />
        </mxCell>
        <mxCell id="nB9c-g2lxoRYfgPW0xEW-126" value="Write Post" style="rounded=0;whiteSpace=wrap;html=1;" vertex="1" parent="WIyWlLk6GJQsqaUBKTNV-1">
          <mxGeometry x="1200" y="2262.5" width="721" height="50" as="geometry" />
        </mxCell>
        <mxCell id="nB9c-g2lxoRYfgPW0xEW-127" value="ref" style="shape=umlFrame;whiteSpace=wrap;html=1;pointerEvents=0;" vertex="1" parent="WIyWlLk6GJQsqaUBKTNV-1">
          <mxGeometry x="1200" y="2262.5" width="721" height="50" as="geometry" />
        </mxCell>
        <mxCell id="nB9c-g2lxoRYfgPW0xEW-129" value="Delete Post" style="rounded=0;whiteSpace=wrap;html=1;" vertex="1" parent="WIyWlLk6GJQsqaUBKTNV-1">
          <mxGeometry x="1200" y="2320" width="721" height="50" as="geometry" />
        </mxCell>
        <mxCell id="nB9c-g2lxoRYfgPW0xEW-130" value="ref" style="shape=umlFrame;whiteSpace=wrap;html=1;pointerEvents=0;" vertex="1" parent="WIyWlLk6GJQsqaUBKTNV-1">
          <mxGeometry x="1200" y="2320" width="721" height="50" as="geometry" />
        </mxCell>
        <mxCell id="nB9c-g2lxoRYfgPW0xEW-149" value="User" style="shape=umlActor;verticalLabelPosition=bottom;verticalAlign=top;html=1;outlineConnect=0;" vertex="1" parent="WIyWlLk6GJQsqaUBKTNV-1">
          <mxGeometry x="1240" y="4028" width="30" height="60" as="geometry" />
        </mxCell>
        <mxCell id="nB9c-g2lxoRYfgPW0xEW-150" value="" style="endArrow=none;dashed=1;html=1;rounded=0;" edge="1" parent="WIyWlLk6GJQsqaUBKTNV-1">
          <mxGeometry width="50" height="50" relative="1" as="geometry">
            <mxPoint x="1254" y="4486" as="sourcePoint" />
            <mxPoint x="1254" y="4116" as="targetPoint" />
          </mxGeometry>
        </mxCell>
        <mxCell id="nB9c-g2lxoRYfgPW0xEW-152" value="sd&amp;nbsp;Add List" style="shape=umlFrame;whiteSpace=wrap;html=1;pointerEvents=0;width=140;height=30;" vertex="1" parent="WIyWlLk6GJQsqaUBKTNV-1">
          <mxGeometry x="1123" y="3966" width="1000" height="540" as="geometry" />
        </mxCell>
        <mxCell id="nB9c-g2lxoRYfgPW0xEW-156" value="MyRoomObject : Belong_Room_Object" style="shape=umlLifeline;perimeter=lifelinePerimeter;whiteSpace=wrap;html=1;container=0;dropTarget=0;collapsible=0;recursiveResize=0;outlineConnect=0;portConstraint=eastwest;newEdgeStyle={&quot;edgeStyle&quot;:&quot;elbowEdgeStyle&quot;,&quot;elbow&quot;:&quot;vertical&quot;,&quot;curved&quot;:0,&quot;rounded&quot;:0};" vertex="1" parent="WIyWlLk6GJQsqaUBKTNV-1">
          <mxGeometry x="1740" y="4036" width="132" height="450" as="geometry" />
        </mxCell>
        <mxCell id="nB9c-g2lxoRYfgPW0xEW-157" value="" style="html=1;points=[];perimeter=orthogonalPerimeter;outlineConnect=0;targetShapes=umlLifeline;portConstraint=eastwest;newEdgeStyle={&quot;edgeStyle&quot;:&quot;elbowEdgeStyle&quot;,&quot;elbow&quot;:&quot;vertical&quot;,&quot;curved&quot;:0,&quot;rounded&quot;:0};" vertex="1" parent="nB9c-g2lxoRYfgPW0xEW-156">
          <mxGeometry x="61" y="97" width="10" height="70" as="geometry" />
        </mxCell>
        <mxCell id="nB9c-g2lxoRYfgPW0xEW-159" value="UpdateObjectList()" style="html=1;verticalAlign=bottom;endArrow=block;edgeStyle=elbowEdgeStyle;elbow=vertical;curved=0;rounded=0;" edge="1" parent="WIyWlLk6GJQsqaUBKTNV-1" target="nB9c-g2lxoRYfgPW0xEW-157">
          <mxGeometry relative="1" as="geometry">
            <mxPoint x="1257" y="4163" as="sourcePoint" />
            <Array as="points" />
            <mxPoint x="1968.4999999999998" y="4163" as="targetPoint" />
          </mxGeometry>
        </mxCell>
        <mxCell id="nB9c-g2lxoRYfgPW0xEW-160" value="return success" style="html=1;verticalAlign=bottom;endArrow=open;dashed=1;endSize=8;edgeStyle=elbowEdgeStyle;elbow=vertical;curved=0;rounded=0;" edge="1" parent="WIyWlLk6GJQsqaUBKTNV-1" source="nB9c-g2lxoRYfgPW0xEW-157">
          <mxGeometry relative="1" as="geometry">
            <mxPoint x="1257" y="4187" as="targetPoint" />
            <Array as="points">
              <mxPoint x="1297" y="4187" />
              <mxPoint x="1317" y="4187" />
            </Array>
            <mxPoint x="1968.4999999999998" y="4183" as="sourcePoint" />
          </mxGeometry>
        </mxCell>
        <mxCell id="nB9c-g2lxoRYfgPW0xEW-169" value="Add List" style="rounded=0;whiteSpace=wrap;html=1;" vertex="1" parent="WIyWlLk6GJQsqaUBKTNV-1">
          <mxGeometry x="105" y="4360" width="721" height="50" as="geometry" />
        </mxCell>
        <mxCell id="nB9c-g2lxoRYfgPW0xEW-170" value="ref" style="shape=umlFrame;whiteSpace=wrap;html=1;pointerEvents=0;" vertex="1" parent="WIyWlLk6GJQsqaUBKTNV-1">
          <mxGeometry x="105" y="4360" width="721" height="50" as="geometry" />
        </mxCell>
        <mxCell id="nB9c-g2lxoRYfgPW0xEW-171" value="User" style="shape=umlActor;verticalLabelPosition=bottom;verticalAlign=top;html=1;outlineConnect=0;" vertex="1" parent="WIyWlLk6GJQsqaUBKTNV-1">
          <mxGeometry x="1227" y="5812" width="30" height="60" as="geometry" />
        </mxCell>
        <mxCell id="nB9c-g2lxoRYfgPW0xEW-172" value="" style="endArrow=none;dashed=1;html=1;rounded=0;" edge="1" parent="WIyWlLk6GJQsqaUBKTNV-1">
          <mxGeometry width="50" height="50" relative="1" as="geometry">
            <mxPoint x="1241" y="6270" as="sourcePoint" />
            <mxPoint x="1241" y="5900" as="targetPoint" />
          </mxGeometry>
        </mxCell>
        <mxCell id="nB9c-g2lxoRYfgPW0xEW-173" value="sd Remove Object" style="shape=umlFrame;whiteSpace=wrap;html=1;pointerEvents=0;width=140;height=30;" vertex="1" parent="WIyWlLk6GJQsqaUBKTNV-1">
          <mxGeometry x="1110" y="5750" width="1000" height="540" as="geometry" />
        </mxCell>
        <mxCell id="nB9c-g2lxoRYfgPW0xEW-174" value="MyRoomObject : Belong_Room_Object" style="shape=umlLifeline;perimeter=lifelinePerimeter;whiteSpace=wrap;html=1;container=0;dropTarget=0;collapsible=0;recursiveResize=0;outlineConnect=0;portConstraint=eastwest;newEdgeStyle={&quot;edgeStyle&quot;:&quot;elbowEdgeStyle&quot;,&quot;elbow&quot;:&quot;vertical&quot;,&quot;curved&quot;:0,&quot;rounded&quot;:0};" vertex="1" parent="WIyWlLk6GJQsqaUBKTNV-1">
          <mxGeometry x="1414" y="5812" width="132" height="450" as="geometry" />
        </mxCell>
        <mxCell id="nB9c-g2lxoRYfgPW0xEW-175" value="" style="html=1;points=[];perimeter=orthogonalPerimeter;outlineConnect=0;targetShapes=umlLifeline;portConstraint=eastwest;newEdgeStyle={&quot;edgeStyle&quot;:&quot;elbowEdgeStyle&quot;,&quot;elbow&quot;:&quot;vertical&quot;,&quot;curved&quot;:0,&quot;rounded&quot;:0};" vertex="1" parent="nB9c-g2lxoRYfgPW0xEW-174">
          <mxGeometry x="60" y="118" width="10" height="202" as="geometry" />
        </mxCell>
        <mxCell id="nB9c-g2lxoRYfgPW0xEW-179" value=": MyRoomDB" style="shape=umlLifeline;perimeter=lifelinePerimeter;whiteSpace=wrap;html=1;container=0;dropTarget=0;collapsible=0;recursiveResize=0;outlineConnect=0;portConstraint=eastwest;newEdgeStyle={&quot;edgeStyle&quot;:&quot;elbowEdgeStyle&quot;,&quot;elbow&quot;:&quot;vertical&quot;,&quot;curved&quot;:0,&quot;rounded&quot;:0};" vertex="1" parent="WIyWlLk6GJQsqaUBKTNV-1">
          <mxGeometry x="1910" y="5820" width="132" height="450" as="geometry" />
        </mxCell>
        <mxCell id="nB9c-g2lxoRYfgPW0xEW-180" value="" style="html=1;points=[];perimeter=orthogonalPerimeter;outlineConnect=0;targetShapes=umlLifeline;portConstraint=eastwest;newEdgeStyle={&quot;edgeStyle&quot;:&quot;elbowEdgeStyle&quot;,&quot;elbow&quot;:&quot;vertical&quot;,&quot;curved&quot;:0,&quot;rounded&quot;:0};" vertex="1" parent="nB9c-g2lxoRYfgPW0xEW-179">
          <mxGeometry x="60" y="141" width="10" height="129" as="geometry" />
        </mxCell>
        <mxCell id="nB9c-g2lxoRYfgPW0xEW-181" value="return result" style="html=1;verticalAlign=bottom;endArrow=open;dashed=1;endSize=8;edgeStyle=elbowEdgeStyle;elbow=vertical;curved=0;rounded=0;" edge="1" parent="WIyWlLk6GJQsqaUBKTNV-1">
          <mxGeometry relative="1" as="geometry">
            <mxPoint x="1235" y="6120.52" as="targetPoint" />
            <Array as="points" />
            <mxPoint x="1473" y="6120.52" as="sourcePoint" />
          </mxGeometry>
        </mxCell>
        <mxCell id="nB9c-g2lxoRYfgPW0xEW-183" value="Operate MouseClick(object)" style="html=1;verticalAlign=bottom;endArrow=block;edgeStyle=elbowEdgeStyle;elbow=vertical;curved=0;rounded=0;" edge="1" parent="WIyWlLk6GJQsqaUBKTNV-1">
          <mxGeometry x="0.0047" relative="1" as="geometry">
            <mxPoint x="1239" y="5945" as="sourcePoint" />
            <Array as="points">
              <mxPoint x="1434" y="5945" />
            </Array>
            <mxPoint x="1479" y="5945" as="targetPoint" />
            <mxPoint as="offset" />
          </mxGeometry>
        </mxCell>
        <mxCell id="nB9c-g2lxoRYfgPW0xEW-184" value=": Collocate_Object" style="shape=umlLifeline;perimeter=lifelinePerimeter;whiteSpace=wrap;html=1;container=0;dropTarget=0;collapsible=0;recursiveResize=0;outlineConnect=0;portConstraint=eastwest;newEdgeStyle={&quot;edgeStyle&quot;:&quot;elbowEdgeStyle&quot;,&quot;elbow&quot;:&quot;vertical&quot;,&quot;curved&quot;:0,&quot;rounded&quot;:0};" vertex="1" parent="WIyWlLk6GJQsqaUBKTNV-1">
          <mxGeometry x="1573" y="5810" width="132" height="450" as="geometry" />
        </mxCell>
        <mxCell id="nB9c-g2lxoRYfgPW0xEW-185" value="" style="html=1;points=[];perimeter=orthogonalPerimeter;outlineConnect=0;targetShapes=umlLifeline;portConstraint=eastwest;newEdgeStyle={&quot;edgeStyle&quot;:&quot;elbowEdgeStyle&quot;,&quot;elbow&quot;:&quot;vertical&quot;,&quot;curved&quot;:0,&quot;rounded&quot;:0};" vertex="1" parent="nB9c-g2lxoRYfgPW0xEW-184">
          <mxGeometry x="60" y="190" width="10" height="50" as="geometry" />
        </mxCell>
        <mxCell id="nB9c-g2lxoRYfgPW0xEW-189" value="" style="endArrow=classic;html=1;rounded=0;" edge="1" parent="WIyWlLk6GJQsqaUBKTNV-1" target="nB9c-g2lxoRYfgPW0xEW-180">
          <mxGeometry width="50" height="50" relative="1" as="geometry">
            <mxPoint x="1482.73" y="5967" as="sourcePoint" />
            <mxPoint x="1631.73" y="5967" as="targetPoint" />
            <Array as="points">
              <mxPoint x="1508.73" y="5967" />
              <mxPoint x="1568.73" y="5967" />
            </Array>
          </mxGeometry>
        </mxCell>
        <mxCell id="nB9c-g2lxoRYfgPW0xEW-190" value="DeleteAll(object)" style="edgeLabel;html=1;align=center;verticalAlign=middle;resizable=0;points=[];" vertex="1" connectable="0" parent="nB9c-g2lxoRYfgPW0xEW-189">
          <mxGeometry x="-0.13" y="-1" relative="1" as="geometry">
            <mxPoint as="offset" />
          </mxGeometry>
        </mxCell>
        <mxCell id="nB9c-g2lxoRYfgPW0xEW-192" value="DisconnectAll(object)" style="html=1;verticalAlign=bottom;endArrow=block;edgeStyle=elbowEdgeStyle;elbow=vertical;curved=0;rounded=0;" edge="1" parent="WIyWlLk6GJQsqaUBKTNV-1">
          <mxGeometry relative="1" as="geometry">
            <mxPoint x="1975.5" y="6006.290000000001" as="sourcePoint" />
            <Array as="points">
              <mxPoint x="1767" y="6006.29" />
            </Array>
            <mxPoint x="1638.0714285714284" y="6006.290000000001" as="targetPoint" />
            <mxPoint as="offset" />
          </mxGeometry>
        </mxCell>
        <mxCell id="nB9c-g2lxoRYfgPW0xEW-194" value="return result" style="html=1;verticalAlign=bottom;endArrow=open;dashed=1;endSize=8;edgeStyle=elbowEdgeStyle;elbow=vertical;curved=0;rounded=0;" edge="1" parent="WIyWlLk6GJQsqaUBKTNV-1" source="nB9c-g2lxoRYfgPW0xEW-185" target="nB9c-g2lxoRYfgPW0xEW-180">
          <mxGeometry relative="1" as="geometry">
            <mxPoint x="1687" y="6050" as="targetPoint" />
            <Array as="points">
              <mxPoint x="1780" y="6040" />
              <mxPoint x="1730" y="6081" />
            </Array>
            <mxPoint x="1925" y="6050" as="sourcePoint" />
          </mxGeometry>
        </mxCell>
        <mxCell id="nB9c-g2lxoRYfgPW0xEW-219" value="Place Object" style="rounded=0;whiteSpace=wrap;html=1;" vertex="1" parent="WIyWlLk6GJQsqaUBKTNV-1">
          <mxGeometry x="69.5" y="1665" width="340.5" height="50" as="geometry" />
        </mxCell>
        <mxCell id="nB9c-g2lxoRYfgPW0xEW-220" value="ref" style="shape=umlFrame;whiteSpace=wrap;html=1;pointerEvents=0;" vertex="1" parent="WIyWlLk6GJQsqaUBKTNV-1">
          <mxGeometry x="69.5" y="1665" width="340.5" height="50" as="geometry" />
        </mxCell>
        <mxCell id="nB9c-g2lxoRYfgPW0xEW-222" value="return result" style="html=1;verticalAlign=bottom;endArrow=open;dashed=1;endSize=8;edgeStyle=elbowEdgeStyle;elbow=vertical;curved=0;rounded=0;" edge="1" parent="WIyWlLk6GJQsqaUBKTNV-1">
          <mxGeometry relative="1" as="geometry">
            <mxPoint x="1480" y="6080.51" as="targetPoint" />
            <Array as="points" />
            <mxPoint x="1970.5" y="6080.000000000001" as="sourcePoint" />
          </mxGeometry>
        </mxCell>
        <mxCell id="nB9c-g2lxoRYfgPW0xEW-223" value="User" style="shape=umlActor;verticalLabelPosition=bottom;verticalAlign=top;html=1;outlineConnect=0;" vertex="1" parent="WIyWlLk6GJQsqaUBKTNV-1">
          <mxGeometry x="1170" y="1488" width="30" height="60" as="geometry" />
        </mxCell>
        <mxCell id="nB9c-g2lxoRYfgPW0xEW-224" value="" style="endArrow=none;dashed=1;html=1;rounded=0;" edge="1" parent="WIyWlLk6GJQsqaUBKTNV-1">
          <mxGeometry width="50" height="50" relative="1" as="geometry">
            <mxPoint x="1184" y="1946" as="sourcePoint" />
            <mxPoint x="1184" y="1576" as="targetPoint" />
          </mxGeometry>
        </mxCell>
        <mxCell id="nB9c-g2lxoRYfgPW0xEW-227" value="sd Setting My Room" style="shape=umlFrame;whiteSpace=wrap;html=1;pointerEvents=0;width=140;height=30;" vertex="1" parent="WIyWlLk6GJQsqaUBKTNV-1">
          <mxGeometry x="1090" y="1426" width="1000" height="540" as="geometry" />
        </mxCell>
        <mxCell id="nB9c-g2lxoRYfgPW0xEW-230" value="SettingRoom(RoomName, RoomSize)" style="html=1;verticalAlign=bottom;endArrow=block;edgeStyle=elbowEdgeStyle;elbow=vertical;curved=0;rounded=0;" edge="1" parent="WIyWlLk6GJQsqaUBKTNV-1" target="nB9c-g2lxoRYfgPW0xEW-231">
          <mxGeometry x="0.0013" relative="1" as="geometry">
            <mxPoint x="1183" y="1616" as="sourcePoint" />
            <Array as="points">
              <mxPoint x="1378" y="1616" />
            </Array>
            <mxPoint x="1427" y="1616" as="targetPoint" />
            <mxPoint as="offset" />
          </mxGeometry>
        </mxCell>
        <mxCell id="nB9c-g2lxoRYfgPW0xEW-231" value=": MyRoomDB" style="shape=umlLifeline;perimeter=lifelinePerimeter;whiteSpace=wrap;html=1;container=0;dropTarget=0;collapsible=0;recursiveResize=0;outlineConnect=0;portConstraint=eastwest;newEdgeStyle={&quot;edgeStyle&quot;:&quot;elbowEdgeStyle&quot;,&quot;elbow&quot;:&quot;vertical&quot;,&quot;curved&quot;:0,&quot;rounded&quot;:0};" vertex="1" parent="WIyWlLk6GJQsqaUBKTNV-1">
          <mxGeometry x="1506" y="1496" width="132" height="450" as="geometry" />
        </mxCell>
        <mxCell id="nB9c-g2lxoRYfgPW0xEW-232" value="" style="html=1;points=[];perimeter=orthogonalPerimeter;outlineConnect=0;targetShapes=umlLifeline;portConstraint=eastwest;newEdgeStyle={&quot;edgeStyle&quot;:&quot;elbowEdgeStyle&quot;,&quot;elbow&quot;:&quot;vertical&quot;,&quot;curved&quot;:0,&quot;rounded&quot;:0};" vertex="1" parent="nB9c-g2lxoRYfgPW0xEW-231">
          <mxGeometry x="61" y="100" width="10" height="170" as="geometry" />
        </mxCell>
        <mxCell id="nB9c-g2lxoRYfgPW0xEW-249" value="Place Object" style="rounded=0;whiteSpace=wrap;html=1;" vertex="1" parent="WIyWlLk6GJQsqaUBKTNV-1">
          <mxGeometry x="1309.75" y="1331" width="340.5" height="50" as="geometry" />
        </mxCell>
        <mxCell id="nB9c-g2lxoRYfgPW0xEW-250" value="ref" style="shape=umlFrame;whiteSpace=wrap;html=1;pointerEvents=0;" vertex="1" parent="WIyWlLk6GJQsqaUBKTNV-1">
          <mxGeometry x="1309.75" y="1331" width="340.5" height="50" as="geometry" />
        </mxCell>
        <mxCell id="nB9c-g2lxoRYfgPW0xEW-252" value="return result" style="html=1;verticalAlign=bottom;endArrow=open;dashed=1;endSize=8;edgeStyle=elbowEdgeStyle;elbow=vertical;curved=0;rounded=0;" edge="1" parent="WIyWlLk6GJQsqaUBKTNV-1" source="nB9c-g2lxoRYfgPW0xEW-231">
          <mxGeometry relative="1" as="geometry">
            <mxPoint x="1445" y="1760" as="sourcePoint" />
            <mxPoint x="1180" y="1760" as="targetPoint" />
            <Array as="points">
              <mxPoint x="1328" y="1760" />
            </Array>
          </mxGeometry>
        </mxCell>
      </root>
    </mxGraphModel>
  </diagram>
</mxfile>
